<svg   <path d="M79.8281 20.5781C80.8125 20.5781 81.625 20.6979 82.2656 20.9375C82.9115 21.1771 83.3906 21.5417 83.7031 22.0312C84.0208 22.5208 84.1797 23.1432 84.1797 23.8984C84.1797 24.4609 84.0755 24.9401 83.8672 25.3359C83.6589 25.7318 83.3854 26.0599 83.0469 26.3203C82.7083 26.5807 82.3464 26.7891 81.9609 26.9453L85.2031 32H83.0859L80.3281 27.4219H78.4922V32H76.6172V20.5781H79.8281ZM79.7031 22.1406H78.4922V25.875H79.7891C80.6589 25.875 81.2891 25.7135 81.6797 25.3906C82.0755 25.0677 82.2734 24.5911 82.2734 23.9609C82.2734 23.2995 82.0625 22.8307 81.6406 22.5547C81.224 22.2786 80.5781 22.1406 79.7031 22.1406ZM93.3047 32H86.8359V20.5781H93.3047V22.1562H88.7109V25.2578H93.0156V26.8281H88.7109V30.4141H93.3047V32ZM100.641 22.0078C100.094 22.0078 99.6042 22.1068 99.1719 22.3047C98.7448 22.5026 98.3828 22.7891 98.0859 23.1641C97.7891 23.5339 97.5625 23.9844 97.4062 24.5156C97.25 25.0417 97.1719 25.6354 97.1719 26.2969C97.1719 27.1823 97.2969 27.9453 97.5469 28.5859C97.7969 29.2214 98.1771 29.7109 98.6875 30.0547C99.1979 30.3932 99.8438 30.5625 100.625 30.5625C101.109 30.5625 101.581 30.5156 102.039 30.4219C102.497 30.3281 102.971 30.2005 103.461 30.0391V31.6328C102.997 31.8151 102.529 31.9479 102.055 32.0312C101.581 32.1146 101.034 32.1562 100.414 32.1562C99.2474 32.1562 98.2786 31.9141 97.5078 31.4297C96.7422 30.9453 96.1693 30.263 95.7891 29.3828C95.4141 28.5026 95.2266 27.4714 95.2266 26.2891C95.2266 25.4245 95.3464 24.6328 95.5859 23.9141C95.8255 23.1953 96.1745 22.5755 96.6328 22.0547C97.0911 21.5286 97.6562 21.125 98.3281 20.8438C99.0052 20.5573 99.7786 20.4141 100.648 20.4141C101.221 20.4141 101.784 20.4792 102.336 20.6094C102.893 20.7344 103.409 20.9141 103.883 21.1484L103.227 22.6953C102.831 22.5078 102.417 22.3464 101.984 22.2109C101.552 22.0755 101.104 22.0078 100.641 22.0078ZM112.383 32H105.914V20.5781H112.383V22.1562H107.789V25.2578H112.094V26.8281H107.789V30.4141H112.383V32ZM114.852 32V20.5781H116.727V32H114.852ZM128.211 20.5781L124.219 32H122.234L118.242 20.5781H120.164L122.57 27.7344C122.643 27.9427 122.721 28.1953 122.805 28.4922C122.893 28.7891 122.974 29.0885 123.047 29.3906C123.125 29.6927 123.185 29.9609 123.227 30.1953C123.268 29.9609 123.326 29.6927 123.398 29.3906C123.477 29.0885 123.557 28.7891 123.641 28.4922C123.724 28.1953 123.802 27.9401 123.875 27.7266L126.289 20.5781H128.211ZM136.18 32H129.711V20.5781H136.18V22.1562H131.586V25.2578H135.891V26.8281H131.586V30.4141H136.18V32ZM147.922 26.1797C147.922 27.4661 147.682 28.5417 147.203 29.4062C146.724 30.2656 146.029 30.9141 145.117 31.3516C144.206 31.7839 143.107 32 141.82 32H138.648V20.5781H142.164C143.346 20.5781 144.367 20.7917 145.227 21.2188C146.086 21.6406 146.75 22.2682 147.219 23.1016C147.688 23.9297 147.922 24.9557 147.922 26.1797ZM145.969 26.2344C145.969 25.2969 145.82 24.526 145.523 23.9219C145.232 23.3177 144.799 22.8698 144.227 22.5781C143.659 22.2812 142.958 22.1328 142.125 22.1328H140.523V30.4297H141.852C143.232 30.4297 144.263 30.0781 144.945 29.375C145.628 28.6719 145.969 27.625 145.969 26.2344Z" fill="#0E3BD8"/></svg>