<svg width="24" height="24" viewBox="0 0 24 24" fill="none" xmlns="http://www.w3.org/2000/svg">
<path d="M19.0518 14.3156H19.0517C19.0448 14.6799 18.9694 15.0392 18.83 15.3754L21.5688 16.9267C21.6321 16.7374 21.6666 16.5395 21.671 16.3396V7.65917C21.6703 7.30093 21.5746 6.94904 21.3934 6.6386C21.2121 6.32822 20.9517 6.07004 20.6378 5.88997L19.0518 14.3156ZM19.0518 14.3156V14.3127V9.68886V9.68861C19.0509 9.16727 18.9117 8.65539 18.6482 8.20409C18.3847 7.7528 18.0063 7.37797 17.5508 7.11685L17.5506 7.11673L13.5002 4.80342L13.5002 4.8034L13.4978 4.80204C13.1778 4.6272 12.8283 4.51253 12.467 4.46336V1.34286C12.6658 1.38345 12.8576 1.4531 13.0361 1.54974L20.6376 5.88982L19.0518 14.3156ZM17.0837 7.91761L13.0348 5.60624L17.0837 7.91761ZM17.0837 7.91761C17.284 8.03716 17.4616 8.18951 17.6091 8.36772L12.0002 11.5657L6.39138 8.36772C6.53892 8.18951 6.71651 8.03716 6.91675 7.91761L10.9657 5.60624L17.0837 7.91761ZM12.0002 5.33279C11.6371 5.33279 11.2804 5.42709 10.9658 5.60615L12.0002 5.33279ZM12.0002 5.33279C12.3634 5.33279 12.7201 5.42709 13.0347 5.60615L12.0002 5.33279ZM21.1036 5.08747L21.1034 5.08736L13.5002 0.746189L13.4999 0.746037C13.0435 0.486672 12.5264 0.350244 12.0002 0.350244C11.4741 0.350244 10.957 0.486672 10.5005 0.746037L10.5003 0.746189L2.89712 5.08736L2.89693 5.08747C2.44141 5.34841 2.06291 5.72312 1.79943 6.17432C1.53594 6.62553 1.39675 7.13736 1.3959 7.65863V7.65887L1.3959 16.3412L1.3959 16.3415C1.39675 16.8627 1.53594 17.3746 1.79943 17.8258C2.06291 18.277 2.44141 18.6517 2.89693 18.9126L2.89712 18.9127L10.5003 23.2539L10.5005 23.2541C10.957 23.5134 11.4741 23.6498 12.0002 23.6498C12.5264 23.6498 13.0435 23.5134 13.4999 23.2541L13.5002 23.2539L21.1034 18.9127L21.1036 18.9126C21.5591 18.6517 21.9376 18.277 22.2011 17.8258C22.4645 17.3746 22.6037 16.8627 22.6046 16.3415V16.3412V7.65887V7.65863C22.6037 7.13736 22.4645 6.62553 22.2011 6.17432C21.9376 5.72312 21.5591 5.34841 21.1036 5.08747ZM10.5027 4.80208L10.5026 4.80206L10.5003 4.80341L6.44995 7.11572L6.44972 7.11585C5.99422 7.37696 5.61576 7.7518 5.3523 8.20308C5.08882 8.65438 4.94963 9.16627 4.94873 9.6876V9.68786V14.3117H4.9487L4.94876 14.3146C4.95573 14.6789 5.0311 15.0382 5.17055 15.3745L2.43165 16.9272C2.36841 16.7378 2.3339 16.54 2.3295 16.3401V7.65902C2.33022 7.30083 2.42591 6.949 2.60713 6.6386C2.78835 6.3282 3.04882 6.07001 3.36272 5.88994C3.36278 5.8899 3.36285 5.88986 3.36292 5.88982L10.9644 1.54974C11.1429 1.4531 11.3347 1.38345 11.5334 1.34286V4.4632C11.1721 4.51229 10.8226 4.62704 10.5027 4.80208ZM6.4474 16.8829L6.44995 16.8844L10.5003 19.1967L10.5004 19.1968C10.9568 19.4566 11.4739 19.5932 12.0002 19.5932C12.5266 19.5932 13.0437 19.4566 13.5 19.1968L13.5002 19.1967L17.5505 16.8844L17.5506 16.8844L17.5531 16.8829C17.8635 16.6975 18.1367 16.4576 18.3595 16.1753L21.1008 17.7285C20.9663 17.8778 20.8099 18.0067 20.6364 18.1109L13.0351 22.4509C13.0351 22.4509 13.035 22.451 13.035 22.451C12.7201 22.6294 12.3634 22.7233 12.0002 22.7233C11.6371 22.7233 11.2804 22.6294 10.9655 22.451C10.9654 22.451 10.9654 22.4509 10.9654 22.4509L3.36408 18.1109C3.19063 18.0067 3.03418 17.8778 2.89965 17.7285L5.64101 16.1753C5.86377 16.4576 6.13699 16.6975 6.4474 16.8829ZM12.467 12.3689L18.0437 9.18924C18.0896 9.35199 18.1146 9.52001 18.1179 9.68935V14.3114C18.1172 14.6698 18.0215 15.0217 17.8403 15.3323C17.659 15.6428 17.3985 15.9011 17.0846 16.0813C17.0845 16.0814 17.0845 16.0814 17.0845 16.0814L13.0361 18.3931C12.8577 18.49 12.6658 18.5598 12.467 18.6003V12.3689ZM5.95653 9.18973L11.5334 12.3689V18.6003C11.3347 18.5598 11.1429 18.49 10.9645 18.3932L6.91578 16.0819C6.60177 15.9017 6.34122 15.6434 6.15997 15.3328C5.97876 15.0223 5.88307 14.6704 5.88233 14.3122C5.88233 14.3121 5.88233 14.312 5.88233 14.3119L5.88233 9.68981C5.88568 9.52048 5.91067 9.35246 5.95653 9.18973Z" fill="#A4ABAE" stroke="#A4ABAE" stroke-width="0.3"/>
</svg>
