<svg width="17" height="15" viewBox="0 0 17 15" fill="none" xmlns="http://www.w3.org/2000/svg">
<path d="M16.4065 0.447883L10.3991 0.176064C10.24 0.177937 10.1239 0.249438 10.0507 0.390677C9.97764 0.531875 9.99261 0.664855 10.0963 0.789481L11.7544 2.78255L0.650323 12.0204C0.567239 12.0896 0.521157 12.173 0.512248 12.2707C0.503343 12.3684 0.533353 12.4589 0.602421 12.5419L2.02361 14.2502C2.09265 14.3332 2.17608 14.3793 2.27379 14.3882C2.37163 14.3971 2.46204 14.3669 2.545 14.2979L13.6492 5.05997L15.3072 7.053C15.4061 7.1718 15.5342 7.21064 15.691 7.17025C15.8435 7.12405 15.9323 7.0197 15.9583 6.85786L16.7543 0.865513C16.7643 0.756901 16.7347 0.661242 16.6656 0.578128C16.6016 0.501215 16.5151 0.457849 16.4065 0.447883Z" fill="#333C4E"/>
</svg>
