<svg width="18" height="17" viewBox="0 0 18 17" fill="none" xmlns="http://www.w3.org/2000/svg">
<path d="M17.3757 1.24653L11.8342 0.905782C11.4674 0.883266 11.1293 1.16034 11.0793 1.52437C11.0293 1.88839 11.3098 2.21336 11.5713 2.53249L12.7802 4.00779L4.27437 10.978L3.06542 9.5027C2.8039 9.18357 2.5404 8.84466 2.17365 8.82217C1.80687 8.79966 1.46875 9.07673 1.41875 9.44078L0.663823 14.9412C0.63734 15.1355 0.702059 15.311 0.819928 15.4397C0.923295 15.581 1.08264 15.6789 1.27838 15.6912L6.82044 16.0315C7.18721 16.054 7.52533 15.7769 7.57534 15.4129C7.62536 15.0489 7.25417 14.6132 7.09581 14.42L5.88686 12.9447L10.1398 9.45959L14.3927 5.97449L15.6017 7.44979C15.8632 7.76892 16.1142 8.09263 16.4809 8.11512C16.8477 8.13761 17.1858 7.86056 17.2358 7.49651L17.9913 1.99557C18.0178 1.80126 17.953 1.62578 17.8348 1.49663C17.7307 1.35669 17.5714 1.2587 17.3757 1.24653Z" fill="#333C4E"/>
</svg>
