<svg width="16" height="14" viewBox="0 0 16 14" fill="none" xmlns="http://www.w3.org/2000/svg">
<path d="M1.84043 11.1193L13.2971 1.8443L10.2432 1.51683C10.0614 1.49866 9.91458 1.42023 9.80275 1.28153C9.69091 1.14283 9.6444 0.981485 9.6632 0.7975C9.68169 0.617089 9.76042 0.470863 9.89937 0.358822C10.0383 0.246793 10.1993 0.20059 10.3822 0.220211L14.8701 0.701471C14.9994 0.715346 15.1108 0.74635 15.2044 0.794482C15.2979 0.842641 15.3817 0.912518 15.4555 1.00411C15.5294 1.09572 15.5791 1.19128 15.6045 1.2908C15.63 1.39034 15.6358 1.50474 15.622 1.63398L15.1407 6.12184C15.1211 6.30482 15.0449 6.45221 14.9122 6.56404C14.7795 6.67585 14.6169 6.72202 14.4244 6.70254C14.2299 6.6805 14.0763 6.59963 13.9637 6.45992C13.851 6.32019 13.8051 6.15359 13.8258 5.96012L14.1463 2.89746L2.67129 12.1497L5.73475 12.507C5.90141 12.5374 6.04444 12.6188 6.16385 12.7514C6.28325 12.884 6.33355 13.0423 6.31474 13.2263C6.29626 13.4067 6.21754 13.5529 6.0786 13.665C5.93966 13.777 5.7787 13.8232 5.59573 13.8036L1.10787 13.3223C0.978593 13.3085 0.86917 13.277 0.779593 13.2278C0.690015 13.1787 0.608928 13.1091 0.536334 13.0191C0.463727 12.929 0.411952 12.8335 0.381009 12.7327C0.350039 12.6318 0.341533 12.519 0.35549 12.3944L0.837241 7.90196C0.856972 7.72209 0.935797 7.57576 1.07372 7.46296C1.21163 7.35016 1.37259 7.30316 1.55657 7.32196C1.73697 7.34046 1.88086 7.42106 1.98824 7.56374C2.0956 7.70645 2.14413 7.86553 2.13382 8.04099L1.84043 11.1193Z" fill="#333C4E"/>
</svg>
