<svg width="16" height="14" viewBox="0 0 16 14" fill="none" xmlns="http://www.w3.org/2000/svg">
<path d="M13.4494 1.98094L10.256 1.6453C10.0753 1.62898 9.92982 1.55268 9.81945 1.41639C9.70909 1.2801 9.66312 1.11994 9.68153 0.935919C9.69964 0.75547 9.7766 0.610259 9.9124 0.500287C10.0482 0.390315 10.2076 0.344947 10.3906 0.364183L14.9749 0.838021C15.2105 0.862799 15.3993 0.962946 15.5415 1.13846C15.6836 1.31398 15.7423 1.51954 15.7175 1.75516L15.235 6.34644C15.2157 6.52945 15.1387 6.67555 15.0039 6.78474C14.869 6.89393 14.7125 6.93696 14.5343 6.91383C14.348 6.90042 14.1987 6.82437 14.0864 6.68566C13.9741 6.54696 13.9305 6.38374 13.9555 6.19602L14.2824 3.00965L1.32229 13.5046C1.17265 13.6258 1.01037 13.6771 0.835456 13.6587C0.66053 13.6403 0.512439 13.5562 0.391185 13.4064C0.269919 13.2567 0.218544 13.0944 0.237059 12.9197C0.255548 12.745 0.339617 12.597 0.489262 12.4759L13.4494 1.98094Z" fill="#333C4E"/>
</svg>
