<svg width="28" height="28" viewBox="0 0 28 28" fill="none" xmlns="http://www.w3.org/2000/svg">
<path d="M21.4065 7.44788L15.3991 7.17606C15.24 7.17794 15.1239 7.24944 15.0507 7.39068C14.9776 7.53188 14.9926 7.66486 15.0963 7.78948L16.7544 9.78255L5.65032 19.0204C5.56724 19.0896 5.52116 19.173 5.51225 19.2707C5.50334 19.3684 5.53335 19.4589 5.60242 19.5419L7.02361 21.2502C7.09265 21.3332 7.17608 21.3793 7.27379 21.3882C7.37163 21.3971 7.46204 21.3669 7.545 21.2979L18.6492 12.06L20.3072 14.053C20.4061 14.1718 20.5342 14.2106 20.691 14.1703C20.8435 14.124 20.9323 14.0197 20.9583 13.8579L21.7543 7.86551C21.7643 7.7569 21.7347 7.66124 21.6656 7.57813C21.6016 7.50121 21.5151 7.45785 21.4065 7.44788Z" fill="#333C4E"/>
<path d="M1 26.8V23.4828C1 23.3047 1.21543 23.2154 1.34142 23.3414L4.65858 26.6586C4.78457 26.7846 4.69534 27 4.51716 27H1.2C1.08954 27 1 26.9105 1 26.8Z" fill="#333C4E"/>
</svg>
