<svg width="28" height="28" viewBox="0 0 28 28" fill="none" xmlns="http://www.w3.org/2000/svg">
<path d="M19.194 7.54691C18.0839 5.6243 16.0703 4.54886 13.9993 4.54688L13.2168 13.7919L19.8698 11.7762C20.1624 10.3815 19.9626 8.87808 19.194 7.54691Z" fill="#1862BF"/>
<path d="M11.0017 5.35132C8.69841 6.68112 7.61106 9.30793 8.12895 11.7766L14.0008 13.7919C14.0008 13.7919 14.0008 13.0092 14.001 13.0092V4.54688C12.9814 4.54596 11.9481 4.8049 11.0017 5.35132Z" fill="#1862BF"/>
<path d="M19.8705 11.7764L15.0873 15.464L14 21.9453C15.0616 22.8967 16.464 23.4756 18.0018 23.4756C21.3145 23.4756 24 20.79 24 17.4774C24 14.8171 22.2681 12.5619 19.8705 11.7764Z" fill="#FF3939"/>
<path d="M8.12949 11.7764L12.9127 15.464L14 21.9453C12.9384 22.8967 11.536 23.4756 9.99823 23.4756C6.68555 23.4756 4 20.7902 4 17.4774C4 14.8171 5.73187 12.5619 8.12949 11.7764Z" fill="#15CCC2"/>
<path d="M13.9994 21.9449C15.2247 20.8467 15.9959 19.2522 15.9959 17.4771C15.9959 17.0552 15.9521 16.6437 15.8692 16.2464L13.2168 15.7622L13.9994 21.9449Z" fill="#6FE8D5"/>
<path d="M12.1307 16.2451C12.0477 16.6428 12.0039 17.0548 12.0039 17.4771C12.0039 19.2522 12.7751 20.8467 14.0004 21.9451C14.0004 21.9451 14.0004 21.9449 14.0005 21.9449V15.7622L12.1307 16.2451Z" fill="#6FE8D5"/>
<path d="M14 13.0095L14.5437 15.0259L15.87 16.2465C16.2554 16.1197 16.6338 15.9517 16.9991 15.7408C18.5367 14.853 19.5324 13.3871 19.8705 11.7762C19.2823 11.5835 18.6542 11.479 18.0018 11.479C16.464 11.479 15.0616 12.0579 14 13.0095Z" fill="#FF8859"/>
<path d="M12.1311 16.2452L13.2183 15.3601L14.0008 13.0093C12.9392 12.0579 11.5368 11.479 9.99902 11.479C9.34595 11.479 8.71744 11.5838 8.12891 11.7767C8.25601 12.3829 8.47955 12.9796 8.80609 13.5452C9.57483 14.8765 10.7769 15.8014 12.1311 16.2452Z" fill="#96F2EB"/>
<path d="M15.8692 16.2463C15.6034 14.972 14.9334 13.8464 13.9994 13.0093L13.2168 15.3599L13.9994 16.5447C14.6252 16.5453 15.2561 16.448 15.8692 16.2463Z" fill="#EFE2DD"/>
<path d="M12.1309 16.2452C12.7324 16.4422 13.3638 16.5443 14.0007 16.5449V13.0094L14.0005 13.0093C13.0667 13.8462 12.3968 14.9716 12.1309 16.2452Z" fill="#FFF5F5"/>
</svg>
