<svg xmlns="http://www.w3.org/2000/svg" width="20" height="20" viewBox="0 0 20 20" fill="none">
  <path d="M11.1258 4.22809L11.1258 4.22815C11.8897 3.51204 12.8884 3.11758 13.9364 3.11758C15.9188 3.11758 17.6322 4.55864 17.9846 6.49447C18.1582 6.68015 18.6187 7.11794 19.0217 7.48693C19.0217 7.48693 19.0217 7.48694 19.0217 7.48694L18.9204 7.59758C19.0384 7.70558 19.0784 7.87558 19.0184 8.02558L11.1258 4.22809ZM11.1258 4.22809L11.1224 4.23152M11.1258 4.22809L11.1224 4.23152M11.1224 4.23152L11.1184 4.23549M11.1224 4.23152L11.1184 4.23549M11.1184 4.23549L11.1184 4.23551M11.1184 4.23549L11.1184 4.23551M11.1184 4.23551L11.115 4.2389L11.1144 4.23952L1.15983 14.0801C1.15969 14.0802 1.15954 14.0804 1.15939 14.0805L11.1184 4.23551ZM18.6564 8.42358C18.8779 8.42358 19.0775 8.28801 19.1581 8.08032L1.26226 14.7398L1.15637 14.8456C1.15637 14.8456 1.15637 14.8456 1.15637 14.8456C2.48369 16.173 4.22837 16.8376 5.97044 16.8376C7.52947 16.8376 9.08894 16.3044 10.3501 15.2417C10.6169 15.2786 10.8892 15.2996 11.1604 15.2996C14.4353 15.2996 17.1004 12.6344 17.1004 9.35958C17.1004 9.04508 17.076 8.73187 17.0269 8.42358H18.6564ZM15.9296 7.558L15.9287 7.55919C15.8271 7.6938 15.7929 7.86844 15.8403 8.031C15.9624 8.46147 16.0244 8.90752 16.0244 9.35958C16.0244 11.9825 13.9373 14.1266 11.3365 14.2185C13.2877 11.7156 13.2485 8.12279 11.1989 5.66627L11.8624 5.00969C12.4263 4.48269 13.161 4.19358 13.9344 4.19358C15.4321 4.19358 16.7247 5.31101 16.94 6.79117L16.9402 6.79291C16.9443 6.82109 16.95 6.86104 16.9681 6.9085C16.9865 6.95645 17.0147 7.00545 17.057 7.06271C17.1088 7.13276 17.1871 7.22234 17.3066 7.34558H16.3584C16.1885 7.34558 16.0311 7.42633 15.9296 7.558ZM2.32011 14.4473L10.4297 6.42918C12.2433 8.67435 12.1019 12.0059 10.0244 14.0835C7.91935 16.1885 4.5698 16.3093 2.32011 14.4473Z" fill="#333C4E" stroke="#333C4E" stroke-width="0.3"/>
</svg>