<svg width="28" height="28" viewBox="0 0 28 28" fill="none" xmlns="http://www.w3.org/2000/svg">
<mask id="mask0_3203_13315" style="mask-type:luminance" maskUnits="userSpaceOnUse" x="6" y="6" width="17" height="17">
<path d="M6 6H23V23H6V6Z" fill="white"/>
</mask>
<g mask="url(#mask0_3203_13315)">
<path d="M19.7568 6.49752H9.23145C8.26872 6.49752 7.48828 7.27796 7.48828 8.24069V21.9644C7.48828 22.0697 7.59911 22.1382 7.6933 22.0911L12.6876 19.5939C12.7275 19.574 12.7744 19.574 12.8143 19.5939L17.8086 22.0911C17.9028 22.1382 18.0137 22.0697 18.0137 21.9644V8.24069C18.0137 7.27796 18.7941 6.49752 19.7568 6.49752ZM19.7568 6.49752C20.7196 6.49752 21.5 7.27796 21.5 8.24069V13.7911C21.5 14.1823 21.1829 14.4995 20.7917 14.4995H18.0137" stroke="#333C4E" stroke-width="1.02376" stroke-miterlimit="10"/>
</g>
</svg>
