<svg width="20" height="20" viewBox="0 0 20 20" fill="none" xmlns="http://www.w3.org/2000/svg">
<path d="M4.20308 18H15.7969C17.0123 18 18 17.0489 18 15.8785V5.30665C18 4.13628 17.0123 3.18516 15.7969 3.18516H14.9231V2.59258C14.9231 2.26665 14.6461 2 14.3077 2C13.9692 2 13.6923 2.26665 13.6923 2.59258V3.18516L6.30771 3.18516V2.59258C6.30771 2.26665 6.03075 2 5.69229 2C5.35382 2 5.07692 2.26665 5.07692 2.59258V3.18516L4.20308 3.18516C2.9877 3.18516 2 4.13628 2 5.30665L2 15.8785C2 17.0489 2.9877 18 4.20308 18ZM3.2308 5.30665C3.2308 4.79111 3.66771 4.37038 4.20308 4.37038H5.07692V4.96296C5.07692 5.28889 5.35382 5.55554 5.69229 5.55554C6.03075 5.55554 6.30766 5.28889 6.30766 4.96296V4.37038L13.6923 4.37038V4.96296C13.6923 5.28889 13.9692 5.55554 14.3077 5.55554C14.6461 5.55554 14.923 5.28889 14.923 4.96296V4.37038H15.7969C16.3322 4.37038 16.7692 4.79111 16.7692 5.30665V15.8785C16.7692 16.3941 16.3322 16.8148 15.7969 16.8148H4.20308C3.66771 16.8148 3.2308 16.3941 3.2308 15.8785L3.2308 5.30665Z" fill="#A4ABAE"/>
<path d="M6.4616 8.81544C6.88643 8.81544 7.23081 8.4838 7.23081 8.07471C7.23081 7.66562 6.88643 7.33398 6.4616 7.33398C6.03677 7.33398 5.69238 7.66562 5.69238 8.07471C5.69238 8.4838 6.03677 8.81544 6.4616 8.81544Z" fill="#A4ABAE"/>
<path d="M9.84539 8.81544C10.2702 8.81544 10.6146 8.4838 10.6146 8.07471C10.6146 7.66562 10.2702 7.33398 9.84539 7.33398C9.42056 7.33398 9.07617 7.66562 9.07617 8.07471C9.07617 8.4838 9.42056 8.81544 9.84539 8.81544Z" fill="#A4ABAE"/>
<path d="M13.2311 8.81544C13.656 8.81544 14.0003 8.4838 14.0003 8.07471C14.0003 7.66562 13.656 7.33398 13.2311 7.33398C12.8063 7.33398 12.4619 7.66562 12.4619 8.07471C12.4619 8.4838 12.8063 8.81544 13.2311 8.81544Z" fill="#A4ABAE"/>
<path d="M6.4616 11.7783C6.88643 11.7783 7.23081 11.4467 7.23081 11.0376C7.23081 10.6285 6.88643 10.2969 6.4616 10.2969C6.03677 10.2969 5.69238 10.6285 5.69238 11.0376C5.69238 11.4467 6.03677 11.7783 6.4616 11.7783Z" fill="#A4ABAE"/>
<path d="M9.84539 11.7783C10.2702 11.7783 10.6146 11.4467 10.6146 11.0376C10.6146 10.6285 10.2702 10.2969 9.84539 10.2969C9.42056 10.2969 9.07617 10.6285 9.07617 11.0376C9.07617 11.4467 9.42056 11.7783 9.84539 11.7783Z" fill="#A4ABAE"/>
<path d="M13.2311 11.7783C13.656 11.7783 14.0003 11.4467 14.0003 11.0376C14.0003 10.6285 13.656 10.2969 13.2311 10.2969C12.8063 10.2969 12.4619 10.6285 12.4619 11.0376C12.4619 11.4467 12.8063 11.7783 13.2311 11.7783Z" fill="#A4ABAE"/>
<path d="M6.4616 14.7412C6.88643 14.7412 7.23081 14.4096 7.23081 14.0005C7.23081 13.5914 6.88643 13.2598 6.4616 13.2598C6.03677 13.2598 5.69238 13.5914 5.69238 14.0005C5.69238 14.4096 6.03677 14.7412 6.4616 14.7412Z" fill="#A4ABAE"/>
<path d="M9.84539 14.7412C10.2702 14.7412 10.6146 14.4096 10.6146 14.0005C10.6146 13.5914 10.2702 13.2598 9.84539 13.2598C9.42056 13.2598 9.07617 13.5914 9.07617 14.0005C9.07617 14.4096 9.42056 14.7412 9.84539 14.7412Z" fill="#A4ABAE"/>
<path d="M13.2311 14.7412C13.656 14.7412 14.0003 14.4096 14.0003 14.0005C14.0003 13.5914 13.656 13.2598 13.2311 13.2598C12.8063 13.2598 12.4619 13.5914 12.4619 14.0005C12.4619 14.4096 12.8063 14.7412 13.2311 14.7412Z" fill="#A4ABAE"/>
</svg>
