<svg width="28" height="28" viewBox="0 0 28 28" fill="none" xmlns="http://www.w3.org/2000/svg">
<path d="M13.1471 22.096L21.0956 18.7424C21.2034 18.6979 21.2755 18.5906 21.276 18.4741L21.3792 9.85009C21.3811 9.76288 21.3359 9.66166 21.2505 9.60428L13.9727 4.7119C13.8898 4.65615 13.7863 4.64679 13.6941 4.6839L5.74717 8.03514C5.63204 8.08521 5.56967 8.19913 5.56683 8.30341L5.46194 16.9298C5.46235 17.0293 5.51011 17.1216 5.59303 17.1773L12.8708 22.0697C12.9489 22.1222 13.0671 22.1308 13.1471 22.096ZM6.47704 8.36642L13.7765 5.28819L20.469 9.78708L13.1695 12.8653L6.47704 8.36642ZM6.05263 16.7781L6.14909 8.8542L12.8416 13.3531L12.7475 21.2786L6.05263 16.7781Z" fill="#333C4E"/>
</svg>
