<svg width="28" height="28" viewBox="0 0 28 28" fill="none" xmlns="http://www.w3.org/2000/svg">
<path d="M21.9788 23C21.7453 23 21.5156 22.9129 21.3268 22.7437L18.3639 20.0908H6.01897C5.45703 20.0911 5 19.6028 5 19.0025V6.08862C5 5.48827 5.45703 5 6.01897 5H21.9813C22.543 5.0003 23 5.48857 23 6.08862V21.9096C23 22.3372 22.7747 22.7154 22.4119 22.896C22.2724 22.966 22.1248 23 21.9788 23ZM6.01897 6.08862V19.0022H18.5492C18.669 19.0022 18.7846 19.0472 18.8766 19.1293L21.9816 21.9093L21.981 6.08862H6.01897ZM13.0435 9.99751C13.0435 9.69674 12.8154 9.45335 12.5341 9.45335H9.03341C8.75187 9.45335 8.52406 9.69704 8.52406 9.99751C8.52406 10.298 8.75216 10.5417 9.03341 10.5417H12.5341C12.8157 10.542 13.0435 10.2983 13.0435 9.99751ZM19.4759 12.5455C19.4759 12.2448 19.2478 12.0014 18.9666 12.0014H9.03341C8.75187 12.0014 8.52406 12.2451 8.52406 12.5455C8.52406 12.846 8.75216 13.0897 9.03341 13.0897H18.9666C19.2478 13.09 19.4759 12.8463 19.4759 12.5455ZM19.4759 15.0936C19.4759 14.7931 19.2478 14.5494 18.9666 14.5494H9.03341C8.75187 14.5494 8.52406 14.7931 8.52406 15.0936C8.52406 15.3941 8.75216 15.6377 9.03341 15.6377H18.9666C19.2478 15.638 19.4759 15.3941 19.4759 15.0936Z" fill="#333C4E" stroke="#333C4E" stroke-width="0.2"/>
</svg>
