<svg width="20" height="20" viewBox="0 0 20 20" fill="none" xmlns="http://www.w3.org/2000/svg">
<path d="M2.46875 11.0938C2.72763 11.0938 2.9375 10.8839 2.9375 10.625V9.375C2.9375 9.11612 2.72763 8.90625 2.46875 8.90625C2.20987 8.90625 2 9.11612 2 9.375V10.625C2 10.8839 2.20987 11.0938 2.46875 11.0938Z" fill="#333C4E"/>
<path d="M2.46875 7.96875C2.72763 7.96875 2.9375 7.75888 2.9375 7.5V6.25C2.9375 5.99112 2.72763 5.78125 2.46875 5.78125C2.20987 5.78125 2 5.99112 2 6.25V7.5C2 7.75888 2.20987 7.96875 2.46875 7.96875Z" fill="#333C4E"/>
<path d="M3.71875 2.65625H3.09375C2.49066 2.65625 2 3.14691 2 3.75V4.375C2 4.63388 2.20987 4.84375 2.46875 4.84375C2.72763 4.84375 2.9375 4.63388 2.9375 4.375V3.75C2.9375 3.66384 3.00759 3.59375 3.09375 3.59375H3.71875C3.97763 3.59375 4.1875 3.38388 4.1875 3.125C4.1875 2.86612 3.97763 2.65625 3.71875 2.65625Z" fill="#333C4E"/>
<path d="M5.59375 3.59375H6.84375C7.10263 3.59375 7.3125 3.38388 7.3125 3.125C7.3125 2.86612 7.10263 2.65625 6.84375 2.65625H5.59375C5.33487 2.65625 5.125 2.86612 5.125 3.125C5.125 3.38388 5.33487 3.59375 5.59375 3.59375Z" fill="#333C4E"/>
<path d="M6.84375 16.4062H5.59375C5.33487 16.4062 5.125 16.6161 5.125 16.875C5.125 17.1339 5.33487 17.3438 5.59375 17.3438H6.84375C7.10263 17.3438 7.3125 17.1339 7.3125 16.875C7.3125 16.6161 7.10263 16.4062 6.84375 16.4062Z" fill="#333C4E"/>
<path d="M2.46875 14.2188C2.72763 14.2188 2.9375 14.0089 2.9375 13.75V12.5C2.9375 12.2411 2.72763 12.0312 2.46875 12.0312C2.20987 12.0312 2 12.2411 2 12.5V13.75C2 14.0089 2.20987 14.2188 2.46875 14.2188Z" fill="#333C4E"/>
<path d="M3.71875 16.4062H3.09375C3.00759 16.4062 2.9375 16.3362 2.9375 16.25V15.625C2.9375 15.3661 2.72763 15.1562 2.46875 15.1562C2.20987 15.1562 2 15.3661 2 15.625V16.25C2 16.8531 2.49066 17.3438 3.09375 17.3438H3.71875C3.97763 17.3438 4.1875 17.1339 4.1875 16.875C4.1875 16.6161 3.97763 16.4062 3.71875 16.4062Z" fill="#333C4E"/>
<path d="M16.9063 2.65625H10.4688V2.46875C10.4688 2.20987 10.2589 2 10 2C9.74114 2 9.53127 2.20987 9.53127 2.46875V2.65625H8.71877C8.45989 2.65625 8.25002 2.86612 8.25002 3.125C8.25002 3.38388 8.45989 3.59375 8.71877 3.59375H9.53127V11.4062H7.38167L7.51895 11.269C7.70202 11.0859 7.70202 10.7891 7.51895 10.6061C7.33589 10.423 7.03911 10.423 6.85605 10.6061L5.91855 11.5436C5.73548 11.7266 5.73548 12.0234 5.91855 12.2065L6.85605 13.144C7.03911 13.327 7.33589 13.327 7.51895 13.144C7.70202 12.9609 7.70202 12.6641 7.51895 12.4811L7.38167 12.3438H9.53127V16.4062H8.71877C8.45989 16.4062 8.25002 16.6161 8.25002 16.875C8.25002 17.1339 8.45989 17.3438 8.71877 17.3438H9.53127V17.5312C9.53127 17.7901 9.74114 18 10 18C10.2589 18 10.4688 17.7901 10.4688 17.5312V17.3438H16.9063C17.5094 17.3438 18 16.8531 18 16.25V3.75C18 3.14691 17.5094 2.65625 16.9063 2.65625ZM14.0815 8.45644L13.144 9.39394C12.9609 9.577 12.6641 9.577 12.481 9.39394C12.298 9.21088 12.298 8.91409 12.481 8.73103L12.6183 8.59375H10.4688V7.65625H12.6184L12.4811 7.51897C12.298 7.33591 12.298 7.03912 12.4811 6.85606C12.6641 6.673 12.9609 6.673 13.144 6.85606L14.0815 7.79356C14.2645 7.97659 14.2645 8.27341 14.0815 8.45644Z" fill="#333C4E"/>
</svg>
