<svg width="28" height="28" viewBox="0 0 28 28" fill="none" xmlns="http://www.w3.org/2000/svg">
<path d="M20.125 24H8.875C7.84167 24 7 23.1592 7 22.125V13.375C7 12.3408 7.84167 11.5 8.875 11.5H20.125C21.1583 11.5 22 12.3408 22 13.375V22.125C22 23.1592 21.1583 24 20.125 24ZM8.875 12.75C8.53083 12.75 8.25 13.03 8.25 13.375V22.125C8.25 22.47 8.53083 22.75 8.875 22.75H20.125C20.4692 22.75 20.75 22.47 20.75 22.125V13.375C20.75 13.03 20.4692 12.75 20.125 12.75H8.875Z" fill="#333C4E"/>
<path d="M18.875 12.75C18.53 12.75 18.25 12.47 18.25 12.125V9C18.25 6.9325 16.5675 5.25 14.5 5.25C12.4325 5.25 10.75 6.9325 10.75 9V12.125C10.75 12.47 10.47 12.75 10.125 12.75C9.78 12.75 9.5 12.47 9.5 12.125V9C9.5 6.2425 11.7425 4 14.5 4C17.2575 4 19.5 6.2425 19.5 9V12.125C19.5 12.47 19.22 12.75 18.875 12.75Z" fill="#333C4E"/>
<path d="M14.5002 18.1668C13.581 18.1668 12.8335 17.4193 12.8335 16.5002C12.8335 15.581 13.581 14.8335 14.5002 14.8335C15.4193 14.8335 16.1668 15.581 16.1668 16.5002C16.1668 17.4193 15.4193 18.1668 14.5002 18.1668ZM14.5002 16.0835C14.271 16.0835 14.0835 16.2702 14.0835 16.5002C14.0835 16.7302 14.271 16.9168 14.5002 16.9168C14.7293 16.9168 14.9168 16.7302 14.9168 16.5002C14.9168 16.2702 14.7293 16.0835 14.5002 16.0835Z" fill="#333C4E"/>
<path d="M14.5 20.6667C14.155 20.6667 13.875 20.3867 13.875 20.0417V17.75C13.875 17.405 14.155 17.125 14.5 17.125C14.845 17.125 15.125 17.405 15.125 17.75V20.0417C15.125 20.3867 14.845 20.6667 14.5 20.6667Z" fill="#333C4E"/>
</svg>
