<svg width="20" height="20" viewBox="0 0 20 20" fill="none" xmlns="http://www.w3.org/2000/svg">
<g clip-path="url(#clip0_837_16224)">
<path d="M18.6261 19.217H0.725689C0.325107 19.217 0 18.8919 0 18.4913C0 18.0907 0.325107 17.7656 0.725689 17.7656H18.6261C19.0267 17.7656 19.3518 18.0907 19.3518 18.4913C19.3518 18.8919 19.0267 19.217 18.6261 19.217Z" fill="#333C4E"/>
<path d="M9.83065 19.216C9.64497 19.216 9.45912 19.1453 9.31792 19.0031C9.03427 18.7196 9.03427 18.26 9.31792 17.9766L18.1906 9.10369C18.4218 8.87248 18.5487 8.57058 18.5487 8.25221C18.5487 7.92816 18.4218 7.62237 18.1906 7.39116L13.4398 2.64016C13.1496 2.34411 12.8119 2.28316 12.5786 2.28316C12.2554 2.28316 11.9546 2.40807 11.7329 2.63538L1.80944 12.559C1.51233 12.8492 1.45138 13.186 1.45138 13.4201C1.45138 13.7432 1.57628 14.0443 1.80359 14.2657L5.51531 17.9774C5.79878 18.2609 5.79878 18.7205 5.51531 19.0041C5.23166 19.2876 4.77208 19.2876 4.48861 19.0041L0.782738 15.2983C0.280638 14.8066 0 14.1382 0 13.4201C0 12.6955 0.280638 12.0238 0.789471 11.5265L10.7014 1.61558C11.6856 0.60536 13.4834 0.607309 14.4722 1.62143L19.2162 6.36641C19.7214 6.87152 20 7.54104 20 8.25327C20 8.95858 19.7214 9.62528 19.2162 10.1304L10.3436 19.0031C10.2022 19.1453 10.0165 19.216 9.83065 19.216Z" fill="#333C4E"/>
<path d="M15.1159 13.9334C14.93 13.9334 14.7443 13.8629 14.603 13.7206L7.11397 6.23145C6.8305 5.94798 6.8305 5.4884 7.11397 5.20492C7.39744 4.92128 7.85702 4.92128 8.1405 5.20492L15.6297 12.6939C15.9131 12.9774 15.9131 13.4371 15.6297 13.7206C15.4865 13.8618 15.3007 13.9334 15.1159 13.9334Z" fill="#333C4E"/>
</g>
<defs>
<clipPath id="clip0_837_16224">
<rect width="20" height="20" fill="white"/>
</clipPath>
</defs>
</svg>
