<svg width="28" height="28" viewBox="0 0 28 28" fill="none" xmlns="http://www.w3.org/2000/svg">
<g clip-path="url(#clip0_3102_142076)">
<path d="M14 28.0001C21.732 28.0001 28.0001 21.732 28.0001 14C28.0001 6.26803 21.732 0 14 0C6.26803 0 0 6.26803 0 14C0 21.732 6.26803 28.0001 14 28.0001Z" fill="#FF0000"/>
<path d="M20.3875 20.3875C19.8625 20.9124 18.9874 20.9124 18.4625 20.3875L14 15.925L9.53749 20.3875C9.01251 20.9124 8.13746 20.9124 7.61248 20.3875C7.08751 19.8625 7.08751 18.9874 7.61248 18.4625L12.075 14L7.61248 9.53749C7.08751 9.01251 7.08751 8.13746 7.61248 7.61248C8.13746 7.08751 9.01251 7.08751 9.53749 7.61248L14 12.075L18.4625 7.61248C18.9874 7.08751 19.8625 7.08751 20.3875 7.61248C20.9124 8.13746 20.9124 9.01251 20.3875 9.53749L15.925 14L20.3875 18.4625C20.9124 18.9874 20.9124 19.8624 20.3875 20.3875Z" fill="white"/>
</g>
<defs>
<clipPath id="clip0_3102_142076">
<rect width="28" height="28" fill="white"/>
</clipPath>
</defs>
</svg>
