<svg width="20" height="20" viewBox="0 0 20 20" fill="none" xmlns="http://www.w3.org/2000/svg">
<path d="M14.5183 7.52039H12.1274V8.93901H14.5183C15.2292 8.93901 15.7808 9.30218 15.7808 9.61475V15.9054C15.7808 16.218 15.2292 16.5812 14.5183 16.5812H5.48113C4.77017 16.5812 4.21856 16.218 4.21856 15.9054V9.61499C4.21856 9.30242 4.77017 8.93925 5.48113 8.93925H7.87152V7.52062H5.48113C3.97762 7.52062 2.79993 8.4406 2.79993 9.61499V15.9057C2.79993 17.0803 3.97762 18 5.48113 18H14.5185C16.0218 18 17.1997 17.08 17.1997 15.9057V9.61499C17.1995 8.44037 16.0218 7.52039 14.5183 7.52039Z" fill="#333C4E"/>
<path d="M7.90047 5.53593C8.08205 5.53593 8.2634 5.46666 8.40195 5.3281L9.29002 4.44004V7.52036V8.93898V11.6566C9.29002 12.0484 9.60755 12.3659 9.99933 12.3659C10.3911 12.3659 10.7086 12.0484 10.7086 11.6566V8.93898V7.52036V4.39204L11.6447 5.3281C11.7833 5.46666 11.9648 5.53593 12.1462 5.53593C12.3275 5.53593 12.5091 5.46666 12.6477 5.3281C12.9248 5.05123 12.9248 4.602 12.6477 4.32513L10.5299 2.20736C10.3913 2.0688 10.21 2 10.0286 2C10.0268 2 10.0251 2 10.0232 2C10.0213 2 10.0197 2 10.0178 2C9.83642 2 9.65508 2.0688 9.51652 2.20736L7.39875 4.32513C7.12164 4.602 7.12164 5.05123 7.39875 5.3281C7.53754 5.46666 7.71888 5.53593 7.90047 5.53593Z" fill="#333C4E"/>
</svg>
