<svg width="31" height="39" viewBox="0 0 31 39" fill="none" xmlns="http://www.w3.org/2000/svg">
<path d="M30.685 0.75V33.6813H27.1787V4.25625H7.54373L5.06873 6.73125V0.75H30.685Z" fill="#EDF1F2"/>
<path d="M7.42825 6.31604L0.875 12.8693H7.42825V6.31604Z" fill="#EDF1F2"/>
<path d="M8.80325 5.62854C8.80325 5.62992 8.80325 5.62992 8.80325 5.62854V13.5568C8.80325 13.9363 8.49525 14.2443 8.11575 14.2443H0.1875V38.5625H25.8024V5.62854H8.80325ZM20.8125 35.8125H4.3125V31.6875H20.8125V35.8125ZM20.3711 27.8568H5.066C4.6865 27.8568 4.3785 27.5488 4.3785 27.1693C4.3785 26.7898 4.6865 26.4818 5.066 26.4818H20.3697C20.7492 26.4818 21.0572 26.7898 21.0572 27.1693C21.0572 27.5488 20.7506 27.8568 20.3711 27.8568ZM20.3711 22.3568H5.066C4.6865 22.3568 4.3785 22.0488 4.3785 21.6693C4.3785 21.2898 4.6865 20.9818 5.066 20.9818H20.3697C20.7492 20.9818 21.0572 21.2898 21.0572 21.6693C21.0572 22.0488 20.7506 22.3568 20.3711 22.3568ZM20.3711 16.8568H5.066C4.6865 16.8568 4.3785 16.5488 4.3785 16.1693C4.3785 15.7898 4.6865 15.4818 5.066 15.4818H20.3697C20.7492 15.4818 21.0572 15.7898 21.0572 16.1693C21.0572 16.5488 20.7506 16.8568 20.3711 16.8568ZM20.3711 11.3568H11.875C11.4955 11.3568 11.1875 11.0488 11.1875 10.6693C11.1875 10.2898 11.4955 9.98179 11.875 9.98179H20.3711C20.7506 9.98179 21.0586 10.2898 21.0586 10.6693C21.0586 11.0488 20.7506 11.3568 20.3711 11.3568Z" fill="#EDF1F2"/>
</svg>
