<svg width="28" height="28" viewBox="0 0 28 28" fill="none" xmlns="http://www.w3.org/2000/svg">
<path d="M11.9257 22C11.7587 22 11.5985 21.9298 11.4804 21.8047C11.3623 21.6797 11.2959 21.5101 11.2959 21.3333V14.9233L5.45831 8.12667C5.22852 7.85858 5.07716 7.52565 5.02262 7.16828C4.96807 6.8109 5.01268 6.44445 5.15104 6.1134C5.28939 5.78234 5.51554 5.50092 5.80204 5.30328C6.08853 5.10564 6.42306 5.00029 6.76501 5H20.235C20.5769 5.00029 20.9115 5.10564 21.198 5.30328C21.4845 5.50092 21.7106 5.78234 21.849 6.1134C21.9873 6.44445 22.0319 6.8109 21.9774 7.16828C21.9228 7.52565 21.7715 7.85858 21.5417 8.12667L15.7041 14.9233V18.6667C15.704 18.7665 15.6828 18.8651 15.6419 18.9551C15.601 19.0451 15.5416 19.1243 15.4679 19.1867L12.3193 21.8533C12.2076 21.9482 12.0688 21.9999 11.9257 22ZM6.76501 6.33333C6.66702 6.33359 6.5712 6.36391 6.48914 6.42063C6.40709 6.47734 6.34232 6.55801 6.30268 6.65288C6.26304 6.74776 6.25021 6.85276 6.26577 6.95518C6.28132 7.05761 6.32458 7.15306 6.39032 7.23L12.3917 14.23C12.4945 14.3497 12.5527 14.5049 12.5554 14.6667V19.9467L14.4446 18.3333V14.6667C14.4442 14.5003 14.5026 14.3398 14.6083 14.2167L20.6097 7.21667C20.6715 7.13939 20.7114 7.04517 20.7248 6.94489C20.7382 6.84462 20.7245 6.74238 20.6853 6.65C20.6461 6.55762 20.583 6.47886 20.5033 6.42282C20.4237 6.36679 20.3306 6.33576 20.235 6.33333H6.76501Z" fill="#333C4E"/>
</svg>
