<svg width="16" height="16" viewBox="0 0 16 16" fill="none" xmlns="http://www.w3.org/2000/svg">
<g clip-path="url(#clip0_1160_27175)">
<path d="M13.8115 16.0009H1.6169C1.1596 16.0009 0.854736 15.6961 0.854736 15.2388C0.854736 14.7814 1.1596 14.4766 1.6169 14.4766H13.8115C14.2688 14.4766 14.5736 14.7814 14.5736 15.2388C14.5736 15.6961 14.2688 16.0009 13.8115 16.0009Z" fill="#333C4E"/>
<path d="M7.71426 12.5723C4.5894 12.5723 1.99805 9.98082 1.99805 6.85583V0.758286C1.99805 0.300971 2.30291 -0.00390625 2.76021 -0.00390625C3.21751 -0.00390625 3.52237 0.300971 3.52237 0.758286V6.85583C3.52237 9.1424 5.42777 11.0479 7.71426 11.0479C10.0007 11.0479 11.9061 9.1424 11.9061 6.85583V0.758286C11.9061 0.300971 12.211 -0.00390625 12.6683 -0.00390625C13.1256 -0.00390625 13.4305 0.300971 13.4305 0.758286V6.85583C13.4305 9.98082 10.8391 12.5723 7.71426 12.5723Z" fill="#333C4E"/>
</g>
<defs>
<clipPath id="clip0_1160_27175">
<rect width="16" height="16" rx="2" fill="white"/>
</clipPath>
</defs>
</svg>
