<svg width="16" height="16" viewBox="0 0 16 16" fill="none" xmlns="http://www.w3.org/2000/svg">
<g clip-path="url(#clip0_1160_25403)">
<path d="M11.3863 7.64643C12.1783 6.99632 12.868 5.94998 12.868 4.27737V4.23454C12.868 3.17137 12.5418 2.24799 11.8983 1.49C11.8953 1.48636 11.8921 1.48277 11.8889 1.47925C11.0181 0.51151 9.71508 0 8.12061 0H3.6679C3.40944 0 3.19995 0.229139 3.19995 0.511851V15.4881C3.19995 15.7709 3.40944 16 3.6679 16H8.36462C9.89248 16 11.1878 15.5897 12.1105 14.8135C13.0849 13.9937 13.6 12.814 13.6 11.4018V11.359C13.6 9.68115 12.8391 8.41369 11.3863 7.64643ZM8.40216 13.4574H5.59986V9.19654H8.13938C9.16549 9.19654 9.97687 9.39849 10.4858 9.78062C10.9412 10.1225 11.1626 10.6038 11.1626 11.252V11.2948C11.1626 13.2466 9.2321 13.4574 8.40216 13.4574ZM7.87551 6.67522H5.59986V2.5427H7.98927C9.54074 2.5427 10.4305 3.24513 10.4305 4.46988V4.51265C10.4305 6.39427 8.82971 6.67522 7.87551 6.67522Z" fill="#333C4E"/>
</g>
<defs>
<clipPath id="clip0_1160_25403">
<rect width="16" height="16" rx="1.6" fill="white"/>
</clipPath>
</defs>
</svg>
