<svg width="17" height="16" viewBox="0 0 17 16" fill="none" xmlns="http://www.w3.org/2000/svg">
<path d="M13.9375 9.04365H3.0625C2.752 9.04365 2.5 8.732 2.5 8.348C2.5 7.96399 2.752 7.65234 3.0625 7.65234H13.9375C14.248 7.65234 14.5 7.96399 14.5 8.348C14.5 8.732 14.248 9.04365 13.9375 9.04365Z" fill="#333C4E"/>
<path d="M8.49992 16C5.92619 16 3.83325 14.0711 3.83325 11.7C3.83325 11.3688 4.09458 11.1 4.41659 11.1C4.73859 11.1 4.99992 11.3688 4.99992 11.7C4.99992 13.4096 6.57019 14.8 8.49992 14.8C10.4296 14.8 11.9999 13.4096 11.9999 11.7C11.9999 9.99035 10.4296 8.59993 8.49992 8.59993C5.92619 8.59993 3.83325 6.67117 3.83325 4.30004C3.83325 1.92875 5.92619 0 8.49992 0C11.0736 0 13.1666 1.92875 13.1666 4.30004C13.1666 4.63124 12.9053 4.90003 12.5833 4.90003C12.2612 4.90003 11.9999 4.63124 11.9999 4.30004C11.9999 2.59042 10.4296 1.2 8.49992 1.2C6.57019 1.2 4.99992 2.59042 4.99992 4.30004C4.99992 6.00965 6.57019 7.39993 8.49992 7.39993C11.0736 7.39993 13.1666 9.32883 13.1666 11.7C13.1666 14.0711 11.0736 16 8.49992 16Z" fill="#333C4E"/>
</svg>
