<svg width="16" height="16" viewBox="0 0 16 16" fill="none" xmlns="http://www.w3.org/2000/svg">
<path d="M13.5 2H2.5C2.224 2 2 2.224 2 2.5C2 2.776 2.224 3 2.5 3H13.5C13.776 3 14 2.776 14 2.5C14 2.224 13.776 2 13.5 2Z" fill="#333C4E"/>
<path d="M13.5 13H2.5C2.224 13 2 13.224 2 13.5C2 13.776 2.224 14 2.5 14H13.5C13.776 14 14 13.776 14 13.5C14 13.224 13.776 13 13.5 13Z" fill="#333C4E"/>
<path d="M2.5 5.75H9.5C9.776 5.75 10 5.526 10 5.25C10 4.974 9.776 4.75 9.5 4.75H2.5C2.224 4.75 2 4.974 2 5.25C2 5.526 2.224 5.75 2.5 5.75Z" fill="#333C4E"/>
<path d="M13.5 7.5H2.5C2.224 7.5 2 7.724 2 8C2 8.276 2.224 8.5 2.5 8.5H13.5C13.776 8.5 14 8.276 14 8C14 7.724 13.776 7.5 13.5 7.5Z" fill="#333C4E"/>
<path d="M2.5 11.25H9.5C9.776 11.25 10 11.026 10 10.75C10 10.474 9.776 10.25 9.5 10.25H2.5C2.224 10.25 2 10.474 2 10.75C2 11.026 2.224 11.25 2.5 11.25Z" fill="#333C4E"/>
</svg>
