<svg width="16" height="16" viewBox="0 0 16 16" fill="none" xmlns="http://www.w3.org/2000/svg">
<path d="M13.5 2H2.5C2.224 2 2 2.224 2 2.5C2 2.776 2.224 3 2.5 3H13.5C13.776 3 14 2.776 14 2.5C14 2.224 13.776 2 13.5 2Z" fill="#333C4E"/>
<path d="M13.5 13H2.5C2.224 13 2 13.224 2 13.5C2 13.776 2.224 14 2.5 14H13.5C13.776 14 14 13.776 14 13.5C14 13.224 13.776 13 13.5 13Z" fill="#333C4E"/>
<path d="M13.5 4.75H6.5C6.224 4.75 6 4.974 6 5.25C6 5.526 6.224 5.75 6.5 5.75H13.5C13.776 5.75 14 5.526 14 5.25C14 4.974 13.776 4.75 13.5 4.75Z" fill="#333C4E"/>
<path d="M13.5 7.5H2.5C2.224 7.5 2 7.724 2 8C2 8.276 2.224 8.5 2.5 8.5H13.5C13.776 8.5 14 8.276 14 8C14 7.724 13.776 7.5 13.5 7.5Z" fill="#333C4E"/>
<path d="M13.5 10.25H6.5C6.224 10.25 6 10.474 6 10.75C6 11.026 6.224 11.25 6.5 11.25H13.5C13.776 11.25 14 11.026 14 10.75C14 10.474 13.776 10.25 13.5 10.25Z" fill="#333C4E"/>
</svg>
