<svg width="16" height="16" viewBox="0 0 16 16" fill="none" xmlns="http://www.w3.org/2000/svg">
<g clip-path="url(#clip0_1160_27172)">
<path d="M12.8571 0H9.88362C9.88233 0 9.88104 0 9.8797 0H6.91426C6.504 0 6.17139 0.325621 6.17139 0.727266C6.17139 1.12891 6.504 1.45453 6.91426 1.45453H8.97956L6.30526 14.5453H3.94281C3.53255 14.5453 3.19995 14.8709 3.19995 15.2726C3.19995 15.6742 3.53255 15.9999 3.94281 15.9999H6.91208C6.91307 15.9999 6.91406 16 6.915 16C6.91614 16 6.91723 15.9999 6.91827 15.9999H9.88565C10.2959 15.9999 10.6285 15.6742 10.6285 15.2726C10.6285 14.8709 10.2959 14.5453 9.88565 14.5453H7.82035L10.4946 1.45453H12.8571C13.2673 1.45453 13.6 1.12891 13.6 0.727266C13.6 0.325621 13.2674 0 12.8571 0Z" fill="#333C4E"/>
</g>
<defs>
<clipPath id="clip0_1160_27172">
<rect width="16" height="16" rx="1.6" fill="white"/>
</clipPath>
</defs>
</svg>
