<svg width="16" height="16" viewBox="0 0 16 16" fill="none" xmlns="http://www.w3.org/2000/svg">
<path d="M13.8999 2H2.8999C2.6239 2 2.3999 2.224 2.3999 2.5C2.3999 2.776 2.6239 3 2.8999 3H13.8999C14.1759 3 14.3999 2.776 14.3999 2.5C14.3999 2.224 14.1759 2 13.8999 2Z" fill="#333C4E"/>
<path d="M13.8999 13H2.8999C2.6239 13 2.3999 13.224 2.3999 13.5C2.3999 13.776 2.6239 14 2.8999 14H13.8999C14.1759 14 14.3999 13.776 14.3999 13.5C14.3999 13.224 14.1759 13 13.8999 13Z" fill="#333C4E"/>
<path d="M4.5 5.75H11.5C11.776 5.75 12 5.526 12 5.25C12 4.974 11.776 4.75 11.5 4.75H4.5C4.224 4.75 4 4.974 4 5.25C4 5.526 4.224 5.75 4.5 5.75Z" fill="#333C4E"/>
<path d="M13.8999 7.5H2.8999C2.6239 7.5 2.3999 7.724 2.3999 8C2.3999 8.276 2.6239 8.5 2.8999 8.5H13.8999C14.1759 8.5 14.3999 8.276 14.3999 8C14.3999 7.724 14.1759 7.5 13.8999 7.5Z" fill="#333C4E"/>
<path d="M4.5 11.25H11.5C11.776 11.25 12 11.026 12 10.75C12 10.474 11.776 10.25 11.5 10.25H4.5C4.224 10.25 4 10.474 4 10.75C4 11.026 4.224 11.25 4.5 11.25Z" fill="#333C4E"/>
</svg>
