<svg xmlns="http://www.w3.org/2000/svg" width="20" height="20" viewBox="0 0 20 20" fill="none">
  <path d="M7.5 10.625H2.5C2.33424 10.625 2.17527 10.6908 2.05806 10.8081C1.94085 10.9253 1.875 11.0842 1.875 11.25V15C1.875 15.1658 1.94085 15.3247 2.05806 15.4419C2.17527 15.5592 2.33424 15.625 2.5 15.625H7.5C7.66576 15.625 7.82473 15.5592 7.94194 15.4419C8.05915 15.3247 8.125 15.1658 8.125 15V11.25C8.125 11.0842 8.05915 10.9253 7.94194 10.8081C7.82473 10.6908 7.66576 10.625 7.5 10.625ZM6.875 14.375H3.125V11.875H6.875V14.375Z" fill="#333C4E"/>
  <path d="M17.5 4.325H2.5C2.32098 4.325 2.14929 4.39612 2.0227 4.5227C1.89612 4.64929 1.825 4.82098 1.825 5V8.75C1.825 8.92902 1.89612 9.10071 2.0227 9.2273C2.14929 9.35388 2.32098 9.425 2.5 9.425C2.67902 9.425 2.85071 9.35388 2.9773 9.2273C3.10388 9.10071 3.175 8.92902 3.175 8.75V5.675H16.825V14.325H10C9.82098 14.325 9.64929 14.3961 9.5227 14.5227C9.39612 14.6493 9.325 14.821 9.325 15C9.325 15.179 9.39612 15.3507 9.5227 15.4773C9.64929 15.6039 9.82098 15.675 10 15.675H17.5C17.679 15.675 17.8507 15.6039 17.9773 15.4773C18.1039 15.3507 18.175 15.179 18.175 15V5C18.175 4.82098 18.1039 4.64929 17.9773 4.5227C17.8507 4.39612 17.679 4.325 17.5 4.325Z" fill="#333C4E" stroke="black" stroke-width="0.1"/>
</svg>