<svg width="20" height="20" viewBox="0 0 20 20" fill="none" xmlns="http://www.w3.org/2000/svg">
<path d="M9.78782 12.1574C9.78594 12.1574 9.78407 12.1574 9.78219 12.1574C9.43719 12.1543 9.15969 11.8721 9.16282 11.5268L9.16563 11.2143C9.16563 11.1965 9.16657 11.1784 9.16844 11.1606C9.255 10.2515 9.85844 9.69431 10.3438 9.2465C10.5081 9.09463 10.6638 8.95119 10.7963 8.8015C10.9578 8.61931 11.1922 8.24619 10.9456 7.79588C10.6616 7.27588 9.96782 7.12869 9.42875 7.25213C8.86563 7.38088 8.65813 7.86181 8.58438 8.13681C8.495 8.47025 8.15219 8.66806 7.81875 8.579C7.48532 8.48963 7.2875 8.14681 7.37657 7.81338C7.62563 6.88306 8.27188 6.23463 9.14938 6.03369C10.3303 5.764 11.5197 6.24119 12.0419 7.19588C12.4766 7.99088 12.3575 8.92369 11.7309 9.63056C11.5569 9.82681 11.3709 9.99869 11.1909 10.1646C10.7425 10.5787 10.4622 10.8556 10.4147 11.2552L10.4122 11.5374C10.4097 11.8815 10.1303 12.1574 9.78782 12.1574Z" fill="#333C4E"/>
<path d="M9.78748 14.032C9.62498 14.032 9.46248 13.9664 9.34685 13.8508C9.2281 13.7352 9.16248 13.5727 9.16248 13.407C9.16248 13.2445 9.2281 13.082 9.34685 12.9664C9.5781 12.7352 9.99685 12.7352 10.2281 12.9664C10.3469 13.082 10.4125 13.2445 10.4125 13.407C10.4125 13.5727 10.3469 13.732 10.2312 13.8508C10.1125 13.9664 9.9531 14.032 9.78748 14.032Z" fill="#333C4E"/>
<path d="M9.97594 18.1245C9.265 18.1245 8.56031 18.032 7.88125 17.8492C4.955 17.062 2.66375 14.638 2.04406 11.6733C1.4125 8.65297 2.57813 5.47797 5.01407 3.58453C6.42219 2.48984 8.19813 1.88672 10.015 1.88672C11.2728 1.88672 12.5219 2.17922 13.6275 2.73203C16.3578 4.09797 18.1219 6.95172 18.1219 10.0027C18.1219 12.492 16.9472 14.8914 14.9797 16.4208C13.5666 17.5195 11.7894 18.1245 9.97594 18.1245ZM10.0153 3.13672C8.475 3.13672 6.97125 3.64609 5.78156 4.57141C3.72 6.17391 2.73313 8.86109 3.26781 11.4173C3.79219 13.9252 5.73063 15.9761 8.20625 16.642C8.77938 16.7961 9.375 16.8745 9.97594 16.8745C11.5128 16.8745 13.0175 16.363 14.2128 15.4339C15.8781 14.1395 16.8722 12.1092 16.8722 10.0027C16.8722 7.42109 15.3794 5.00609 13.0688 3.85016C12.1356 3.38359 11.08 3.13672 10.0153 3.13672Z" fill="#333C4E"/>
</svg>
