<svg width="28" height="28" viewBox="0 0 28 28" fill="none" xmlns="http://www.w3.org/2000/svg">
<path d="M6.82568 5.875C6.58163 5.63095 6.18595 5.63095 5.94189 5.875C5.69784 6.11905 5.69784 6.51474 5.94189 6.75879L21.3081 22.125C21.5522 22.369 21.9479 22.369 22.1919 22.125C22.4359 21.881 22.4359 21.4853 22.1919 21.2412L21.2007 20.25C21.7481 20.25 22.1919 19.8062 22.1919 19.2588V8.75C22.1919 8.19771 21.7442 7.75 21.1919 7.75H9.11489C8.84968 7.75 8.59532 7.64464 8.40779 7.45711L6.82568 5.875ZM7.00884 9.59331C6.61511 9.19958 5.94189 9.47844 5.94189 10.0353V19.25C5.94189 19.8023 6.38961 20.25 6.94189 20.25H11.5189C11.7841 20.25 12.0384 20.3554 12.226 20.5429L13.3598 21.6767C13.7503 22.0672 14.3835 22.0672 14.774 21.6767L16.049 20.4017C16.1461 20.3046 16.2779 20.25 16.4152 20.25C16.8766 20.25 17.1077 19.6922 16.7814 19.3659L16.5986 19.1831C16.4814 19.0658 16.3224 19 16.1566 19H16.0493C15.8148 19 15.5899 19.0931 15.4241 19.259L14.0669 20.6162L12.7436 19.2929C12.5561 19.1054 12.3017 19 12.0365 19H7.19189V10.0353C7.19189 9.86949 7.12605 9.71052 7.00884 9.59331ZM9.95068 9H20.9419V18.2991C20.9419 18.6862 20.6281 19 20.241 19C20.0551 19 19.8769 18.9262 19.7454 18.7947L9.95068 9Z" fill="#333C4E"/>
</svg>
