<svg width="28" height="28" viewBox="0 0 28 28" fill="none" xmlns="http://www.w3.org/2000/svg">
<path d="M18.744 13.1626C19.119 13.9126 19.3127 14.7188 19.3127 15.5626C19.3127 18.4938 16.9315 20.8751 14.0002 20.8751C12.8127 20.8751 11.7127 20.4876 10.8315 19.8188L17.7565 12.8938C17.844 12.8876 17.9315 12.8688 18.019 12.8438C18.3065 12.7626 18.6065 12.9001 18.744 13.1626ZM19.694 10.9563C20.9815 12.2438 21.8815 13.8313 22.1315 15.3501C22.1815 15.6563 22.4502 15.8751 22.7502 15.8751C22.7815 15.8751 22.819 15.8688 22.8502 15.8626C23.194 15.8063 23.4252 15.4876 23.369 15.1438C23.0565 13.2563 22.019 11.4688 20.594 10.0563L19.694 10.9563ZM23.194 4.80635C22.9502 4.5626 22.5502 4.5626 22.3065 4.80635L18.6065 8.50635C18.2315 8.2751 17.844 8.0751 17.4502 7.9001C16.344 7.40635 15.169 7.1251 14.0002 7.1251C9.72522 7.1251 5.34397 10.8751 4.63147 15.1438C4.57522 15.4876 4.80647 15.8063 5.15022 15.8626C5.48772 15.9251 5.81272 15.6938 5.86897 15.3501C6.41897 12.0563 10.0127 8.3751 14.0002 8.3751C14.8627 8.3751 15.7065 8.54385 16.5002 8.8501C16.9127 9.00635 17.3127 9.19385 17.7002 9.4126L15.219 11.8938C14.9565 11.5688 14.769 11.1876 14.6815 10.7563C14.6752 10.7376 14.669 10.7126 14.6565 10.6938C14.6002 10.5001 14.4565 10.3501 14.2627 10.2876C14.1502 10.2501 14.044 10.2501 14.0002 10.2501C11.069 10.2501 8.68772 12.6313 8.68772 15.5626C8.68772 15.9063 8.71897 16.2438 8.78147 16.5688C8.87522 17.0313 9.01897 17.4751 9.22522 17.8876L4.80647 22.3063C4.56272 22.5501 4.56272 22.9501 4.80647 23.1938C4.93147 23.3126 5.08772 23.3751 5.25022 23.3751C5.41272 23.3751 5.56897 23.3126 5.69397 23.1938L9.91897 18.9688L16.2065 12.6813H16.2127L18.7627 10.1251L19.6565 9.23135L23.194 5.69385C23.4377 5.4501 23.4377 5.0501 23.194 4.80635Z" fill="#333C4E"/>
</svg>
