<svg width="20" height="20" viewBox="0 0 20 20" fill="none" xmlns="http://www.w3.org/2000/svg">
<path d="M17.3121 9.81855C17.584 9.50966 17.5577 9.03621 17.2534 8.76135L10.5498 2.70242C10.2455 2.42756 9.75764 2.43332 9.45977 2.7154L2.73329 9.08439C2.43542 9.36647 2.4208 9.83931 2.70092 10.1401L2.86957 10.3215C3.14935 10.6223 3.60159 10.6581 3.87902 10.4013L4.38172 9.93633V16.7442C4.38172 17.1619 4.70937 17.5 5.11345 17.5H7.73545C8.13953 17.5 8.46718 17.1619 8.46718 16.7442V11.9814H11.8116V16.7442C11.8057 17.1616 12.0949 17.4997 12.4989 17.4997H15.2776C15.6817 17.4997 16.0093 17.1616 16.0093 16.7439V10.0322C16.0093 10.0322 16.1482 10.1579 16.3195 10.3134C16.4905 10.4686 16.8496 10.3441 17.1215 10.0349L17.3121 9.81855Z" fill="#333C4E"/>
</svg>
