<svg width="28" height="28" viewBox="0 0 28 28" fill="none" xmlns="http://www.w3.org/2000/svg">
<g clip-path="url(#clip0_3102_142103)">
<path d="M14 27.125C16.5959 27.125 19.1335 26.3552 21.2919 24.913C23.4503 23.4709 25.1325 21.421 26.1259 19.0227C27.1193 16.6244 27.3792 13.9854 26.8728 11.4394C26.3664 8.89345 25.1163 6.55479 23.2808 4.71923C21.4452 2.88367 19.1066 1.63363 16.5606 1.1272C14.0146 0.620768 11.3756 0.880687 8.97728 1.87409C6.579 2.86749 4.52915 4.54975 3.08696 6.70815C1.64477 8.86654 0.875 11.4041 0.875 14C0.875 17.481 2.25781 20.8194 4.71922 23.2808C7.18064 25.7422 10.519 27.125 14 27.125ZM14 5.79251C14.3461 5.79251 14.6845 5.89514 14.9722 6.08743C15.26 6.27973 15.4843 6.55304 15.6168 6.87281C15.7492 7.19258 15.7839 7.54445 15.7164 7.88391C15.6489 8.22338 15.4822 8.5352 15.2374 8.77994C14.9927 9.02469 14.6809 9.19136 14.3414 9.25888C14.0019 9.3264 13.6501 9.29175 13.3303 9.1593C13.0105 9.02684 12.7372 8.80254 12.5449 8.51475C12.3526 8.22697 12.25 7.88862 12.25 7.54251C12.25 7.07838 12.4344 6.63326 12.7626 6.30507C13.0908 5.97688 13.5359 5.79251 14 5.79251ZM12.25 14C12.25 13.5359 12.4344 13.0908 12.7626 12.7626C13.0908 12.4344 13.5359 12.25 14 12.25C14.4641 12.25 14.9092 12.4344 15.2374 12.7626C15.5656 13.0908 15.75 13.5359 15.75 14V21C15.75 21.4641 15.5656 21.9093 15.2374 22.2374C14.9092 22.5656 14.4641 22.75 14 22.75C13.5359 22.75 13.0908 22.5656 12.7626 22.2374C12.4344 21.9093 12.25 21.4641 12.25 21V14Z" fill="#359EFF"/>
</g>
<defs>
<clipPath id="clip0_3102_142103">
<rect width="28" height="28" fill="white"/>
</clipPath>
</defs>
</svg>
