<?xml version="1.0" encoding="UTF-8" standalone="no" ?>
<!DOCTYPE svg PUBLIC "-//W3C//DTD SVG 1.1//EN" "http://www.w3.org/Graphics/SVG/1.1/DTD/svg11.dtd">
<svg xmlns="http://www.w3.org/2000/svg" xmlns:xlink="http://www.w3.org/1999/xlink" version="1.1" width="100" height="100" viewBox="0 0 100 100" xml:space="preserve">
<desc>Created with Fabric.js 5.2.4</desc>
<defs>
</defs>
<rect x="0" y="0" width="100%" height="100%" fill="transparent"></rect>
<g transform="matrix(0 0 0 0 0 0)" id="2ed56e91-3011-4c39-b8bd-184592033522"  >
</g>
<g transform="matrix(1 0 0 1 50 50)" id="9b30194e-216f-4489-a414-43db9cbf630b"  >
<rect style="stroke: none; stroke-width: 1; stroke-dasharray: none; stroke-linecap: butt; stroke-dashoffset: 0; stroke-linejoin: miter; stroke-miterlimit: 4; fill: rgb(255,255,255); fill-rule: nonzero; opacity: 1; visibility: hidden;" vector-effect="non-scaling-stroke"  x="-50" y="-50" rx="0" ry="0" width="100" height="100" />
</g>
<g transform="matrix(2.45 0 0 2.76 50 50)"  >
<path style="stroke: none; stroke-width: 1; stroke-dasharray: none; stroke-linecap: butt; stroke-dashoffset: 0; stroke-linejoin: miter; stroke-miterlimit: 4; fill: rgb(51,60,78); fill-rule: nonzero; opacity: 1;" vector-effect="non-scaling-stroke"  transform=" translate(-11.5, -11.5)" d="M 19.5 9 C 18.31257853218074 9.001513271152557 17.289525236419966 9.836863394252724 17.0506 11 L 13.9494 11 C 13.711628934057751 9.83622993242755 12.68781136969508 9.000439446886435 11.5 9.000439446886435 C 10.312188630304922 9.000439446886435 9.28837106594225 9.83622993242755 9.050600000000001 11 L 5.9494 11 C 5.692717641245869 9.742518390156729 4.525550645019381 8.883665230270058 3.248637852203801 9.01265961748719 C 1.9717250593882203 9.141654004704321 0.9999102572168219 10.216588206229346 0.9999102572168219 11.5 C 0.9999102572168219 12.783411793770654 1.9717250593882207 13.858345995295679 3.2486378522038013 13.98734038251281 C 4.525550645019382 14.11633476972994 5.692717641245869 13.257481609843271 5.9494 12 L 9.0506 12 C 9.288371065942249 13.16377006757245 10.31218863030492 13.999560553113565 11.5 13.999560553113565 C 12.687811369695078 13.999560553113565 13.71162893405775 13.16377006757245 13.949399999999999 12 L 17.0506 12 C 17.313728070143522 13.289059013384074 18.530906816121043 14.153600189938112 19.83470892236887 13.977504792417589 C 21.13851102861669 13.801409394897066 22.08272658640909 12.644943863184322 21.994456591128987 11.332267997169629 C 21.906186595848883 10.019592131154933 20.81564034563164 8.999952772482487 19.5 9 Z M 3.5 13 C 2.6715728752538097 13 2 12.32842712474619 2 11.5 C 2 10.67157287525381 2.6715728752538097 10 3.5 10 C 4.32842712474619 10 5 10.671572875253808 5 11.5 C 4.999063147823003 12.328038757412113 4.328038757412114 12.999063147823003 3.5 13 Z M 11.5 13 C 10.67157287525381 13 10 12.32842712474619 10 11.5 C 10 10.67157287525381 10.67157287525381 10 11.5 10 C 12.32842712474619 10 13 10.671572875253808 13 11.5 C 12.999063147823003 12.328038757412113 12.328038757412113 12.999063147823003 11.5 13 Z M 19.5 13 C 18.67157287525381 13 18 12.32842712474619 18 11.5 C 18 10.67157287525381 18.67157287525381 10 19.5 10 C 20.32842712474619 10 21 10.671572875253808 21 11.5 C 20.999063147823005 12.328038757412113 20.328038757412113 12.999063147823003 19.5 13 Z" stroke-linecap="round" />
</g>
<g transform="matrix(0 0 0 0 15 0)"  >
<g style=""   >
</g>
</g>
</svg>