<?xml version="1.0" encoding="UTF-8" standalone="no" ?>
<!DOCTYPE svg PUBLIC "-//W3C//DTD SVG 1.1//EN" "http://www.w3.org/Graphics/SVG/1.1/DTD/svg11.dtd">
<svg xmlns="http://www.w3.org/2000/svg" xmlns:xlink="http://www.w3.org/1999/xlink" version="1.1" width="1080" height="1080" viewBox="0 0 1080 1080" xml:space="preserve">
<desc>Created with Fabric.js 5.2.4</desc>
<defs>
</defs>
<g transform="matrix(1 0 0 1 540 540)" id="0d706630-b2e4-4267-b791-b18052341378"  >
<rect style="stroke: none; stroke-width: 1; stroke-dasharray: none; stroke-linecap: butt; stroke-dashoffset: 0; stroke-linejoin: miter; stroke-miterlimit: 4; fill: rgb(255,255,255); fill-rule: nonzero; opacity: 1; visibility: hidden;" vector-effect="non-scaling-stroke"  x="-540" y="-540" rx="0" ry="0" width="1080" height="1080" />
</g>
<g transform="matrix(1 0 0 1 540 540)" id="63c50165-42d4-475b-94b0-ea904475c83e"  >
</g>
<g transform="matrix(NaN NaN NaN NaN 0 0)"  >
<g style=""   >
</g>
</g>
<g transform="matrix(38.57 0 0 38.57 540 540)"  >
<g style=""   >
		<g transform="matrix(1 0 0 1 0 0)"  >
<path style="stroke: none; stroke-width: 1; stroke-dasharray: none; stroke-linecap: butt; stroke-dashoffset: 0; stroke-linejoin: miter; stroke-miterlimit: 4; fill: rgb(51,60,78); fill-rule: nonzero; opacity: 1;" vector-effect="non-scaling-stroke"  transform=" translate(-14, -14)" d="M 22.9998 9.5002 C 22.9951 8.25764 21.9841 7.25413 20.7415 7.2588 C 19.8576 7.26211 19.0575 7.78274 18.6964 8.58956 L 16.7756 8.2684 L 16.5877 9.37814 L 18.5181 9.70044 C 18.5932 10.5375 19.1286 11.2628 19.9062 11.5813 L 19.3584 15.7138 C 18.23 15.8464 17.3785 16.801 17.3751 17.9372 L 17.3751 17.9456 L 10.8905 19.6555 C 10.5446 19.0389 9.92776 18.6219 9.22668 18.5306 L 8.07813 9.33821 C 8.62453 9.1206 9.06431 8.69816 9.30374 8.16096 L 11.0423 8.4512 L 11.2274 7.34201 L 9.48036 7.05009 C 9.37416 5.81519 8.28694 4.9002 7.05204 5.00644 C 5.81715 5.11264 4.90215 6.19982 5.00839 7.43471 C 5.09898 8.488 5.91238 9.33522 6.96107 9.4687 L 8.11075 18.6594 C 6.95527 19.1164 6.38897 20.4235 6.84594 21.579 C 7.3029 22.7345 8.61004 23.3008 9.76553 22.8438 C 10.6247 22.504 11.1889 21.6735 11.188 20.7495 L 11.188 20.7411 L 17.6727 19.0312 C 18.2767 20.1135 19.6438 20.5013 20.7261 19.8973 C 21.8084 19.2933 22.1962 17.9262 21.5922 16.8439 C 21.3424 16.3963 20.9469 16.0477 20.4715 15.8561 L 21.0194 11.7236 C 22.1467 11.5897 22.9967 10.6354 22.9998 9.5002 Z M 7.25074 8.37526 C 6.62946 8.37526 6.1258 7.87161 6.1258 7.25033 C 6.1258 6.62905 6.62946 6.1254 7.25074 6.1254 C 7.87202 6.1254 8.37567 6.62905 8.37567 7.25033 C 8.37567 7.87161 7.87202 8.37526 7.25074 8.37526 Z M 8.93814 21.8745 C 8.31686 21.8745 7.8132 21.3708 7.8132 20.7495 C 7.8132 20.1283 8.31686 19.6246 8.93814 19.6246 C 9.55942 19.6246 10.0631 20.1283 10.0631 20.7495 C 10.0631 21.3708 9.55942 21.8745 8.93814 21.8745 Z M 20.7499 17.9372 C 20.7499 18.5585 20.2463 19.0621 19.625 19.0621 C 19.0037 19.0621 18.5001 18.5585 18.5001 17.9372 C 18.5001 17.3159 19.0037 16.8123 19.625 16.8123 C 20.2463 16.8123 20.7499 17.3159 20.7499 17.9372 Z M 19.625 9.5002 C 19.625 8.87892 20.1287 8.37526 20.7499 8.37526 C 21.3712 8.37526 21.8749 8.87892 21.8749 9.5002 C 21.8749 10.1215 21.3712 10.6251 20.7499 10.6251 C 20.1287 10.6251 19.625 10.1215 19.625 9.5002 Z" stroke-linecap="round" />
</g>
		<g transform="matrix(1 0 0 1 1.02 -5.45)"  >
<path style="stroke: none; stroke-width: 1; stroke-dasharray: none; stroke-linecap: butt; stroke-dashoffset: 0; stroke-linejoin: miter; stroke-miterlimit: 4; fill: rgb(51,60,78); fill-rule: nonzero; opacity: 1;" vector-effect="non-scaling-stroke"  transform=" translate(-15.02, -8.55)" d="M 15.6643 8.08336 L 14.5547 7.89819 L 14.3695 9.00783 L 15.4792 9.19299 L 15.6643 8.08336 Z" stroke-linecap="round" />
</g>
		<g transform="matrix(1 0 0 1 -1.2 -5.83)"  >
<path style="stroke: none; stroke-width: 1; stroke-dasharray: none; stroke-linecap: butt; stroke-dashoffset: 0; stroke-linejoin: miter; stroke-miterlimit: 4; fill: rgb(51,60,78); fill-rule: nonzero; opacity: 1;" vector-effect="non-scaling-stroke"  transform=" translate(-12.8, -8.17)" d="M 13.4455 7.71273 L 12.3359 7.52734 L 12.1505 8.63687 L 13.2601 8.82226 L 13.4455 7.71273 Z" stroke-linecap="round" />
</g>
</g>
</g>
</svg>