<?xml version="1.0" encoding="UTF-8" standalone="no" ?>
<!DOCTYPE svg PUBLIC "-//W3C//DTD SVG 1.1//EN" "http://www.w3.org/Graphics/SVG/1.1/DTD/svg11.dtd">
<svg xmlns="http://www.w3.org/2000/svg" xmlns:xlink="http://www.w3.org/1999/xlink" version="1.1" width="200" height="200" viewBox="0 0 200 200" xml:space="preserve">
<desc>Created with Fabric.js 5.2.4</desc>
<defs>
</defs>
<g transform="matrix(1 0 0 1 540 540)" id="61c55055-966c-4b88-9ae0-7dc496b065dd"  >
</g>
<g transform="matrix(1 0 0 1 540 540)" id="733e99be-afbd-49c9-b22e-e652f98525f4"  >
<rect style="stroke: none; stroke-width: 1; stroke-dasharray: none; stroke-linecap: butt; stroke-dashoffset: 0; stroke-linejoin: miter; stroke-miterlimit: 4; fill: rgb(255,255,255); fill-rule: nonzero; opacity: 1; visibility: hidden;" vector-effect="non-scaling-stroke"  x="-540" y="-540" rx="0" ry="0" width="1080" height="1080" />
</g>
<g transform="matrix(0.19 0 0 0.19 9.5 9.5)"  >
<rect style="stroke: none; stroke-width: 1; stroke-dasharray: none; stroke-linecap: butt; stroke-dashoffset: 0; stroke-linejoin: miter; stroke-miterlimit: 4; fill: rgb(255,255,255); fill-opacity: 0; fill-rule: nonzero; opacity: 1;" vector-effect="non-scaling-stroke"  x="-50" y="-50" rx="0" ry="0" width="100" height="100" />
</g>
<g transform="matrix(0.19 0 0 0.19 102.6 102.6)"  >
<rect style="stroke: none; stroke-width: 1; stroke-dasharray: none; stroke-linecap: butt; stroke-dashoffset: 0; stroke-linejoin: miter; stroke-miterlimit: 4; fill: rgb(255,255,255); fill-rule: nonzero; opacity: 1; visibility: hidden;" vector-effect="non-scaling-stroke"  x="-540" y="-540" rx="0" ry="0" width="1080" height="1080" />
</g>
<g transform="matrix(12.92 0 0 12.92 100 100)"  >
<path style="stroke: none; stroke-width: 1; stroke-dasharray: none; stroke-linecap: butt; stroke-dashoffset: 0; stroke-linejoin: miter; stroke-miterlimit: 4; fill: rgb(51,60,78); fill-rule: nonzero; opacity: 1;" vector-effect="non-scaling-stroke"  transform=" translate(-8, -7.5)" d="M 10.5 12 L 1.5 12 C 1.224 12 1 11.776 1 11.5 L 1 3.5 C 1 3.224 1.224 3 1.5 3 L 10.5 3 C 10.633 3 10.76 3.053 10.854 3.146 L 14.854 7.146 C 15.049 7.341 15.049 7.6579999999999995 14.854 7.853 L 10.854 11.853 C 10.76 11.947 10.633 12 10.5 12 z M 2 11 L 10.293 11 L 13.793 7.5 L 10.293 4 L 2 4 L 2 11 z" stroke-linecap="round" />
</g>
<g transform="matrix(12.92 0 0 12.92 67.74 100.02)"  >
<path style="stroke: none; stroke-width: 1; stroke-dasharray: none; stroke-linecap: butt; stroke-dashoffset: 0; stroke-linejoin: miter; stroke-miterlimit: 4; fill: rgb(51,60,78); fill-rule: nonzero; opacity: 1;" vector-effect="non-scaling-stroke"  transform=" translate(-5.5, -7.5)" d="M 7.5 8 L 3.5 8 C 3.224 8 3 7.776 3 7.5 C 3 7.224 3.224 7 3.5 7 L 7.5 7 C 7.776 7 8 7.224 8 7.5 C 8 7.776 7.776 8 7.5 8 z" stroke-linecap="round" />
</g>
</svg>