<svg width="20" height="20" viewBox="0 0 20 20" fill="none" xmlns="http://www.w3.org/2000/svg">
<path d="M16.875 3.125H3.125C2.09125 3.125 1.25 3.96625 1.25 5V15C1.25 16.0337 2.09125 16.875 3.125 16.875H16.875C17.9088 16.875 18.75 16.0337 18.75 15V5C18.75 3.96625 17.9088 3.125 16.875 3.125ZM17.5 5.21125V14.4981L13.6125 8.66687L17.5 5.21125ZM8.875 10.875C9.20062 11.1194 9.59062 11.2431 9.98563 11.2431C10.3938 11.2431 10.8081 11.1106 11.1656 10.8419L12.6694 9.505L16.7488 15.6244H3.25125L7.33187 9.50313L8.875 10.875ZM16.5594 4.375L10.3756 9.875C10.1544 10.0406 9.84562 10.0412 9.66562 9.90812L3.44125 4.375H16.5594ZM6.38812 8.66562L2.5 14.4981V5.21125L6.38812 8.66562Z" fill="#333C4E"/>
</svg>
