<svg width="28" height="28" viewBox="0 0 28 28" fill="none" xmlns="http://www.w3.org/2000/svg">
<path d="M18.84 20.4582H16.86C16.4956 20.4582 16.2 20.1722 16.2 19.8198C16.2 19.4674 16.4956 19.1814 16.86 19.1814H18.84C21.509 19.1814 23.6799 17.0806 23.6799 14.4998C23.6799 11.9191 21.509 9.81828 18.84 9.81828H16.86C16.4956 9.81828 16.2 9.53229 16.2 9.17989C16.2 8.8275 16.4956 8.5415 16.86 8.5415H18.84C22.2367 8.5415 25 11.2151 25 14.4998C25 17.7846 22.2367 20.4582 18.84 20.4582Z" fill="#333C4E"/>
<path d="M11.14 20.4582H9.15998C5.76328 20.4582 3 17.7846 3 14.4998C3 11.2151 5.76328 8.5415 9.15998 8.5415H11.14C11.5043 8.5415 11.8 8.8275 11.8 9.17989C11.8 9.53229 11.5043 9.81828 11.14 9.81828H9.15998C6.49096 9.81828 4.32001 11.9191 4.32001 14.4998C4.32001 17.0806 6.49096 19.1814 9.15998 19.1814H11.14C11.5043 19.1814 11.8 19.4674 11.8 19.8198C11.8 20.1722 11.5043 20.4582 11.14 20.4582Z" fill="#333C4E"/>
<path d="M17.2175 15.3518H10.7826C10.3727 15.3518 10.04 14.9705 10.04 14.5006C10.04 14.0307 10.3727 13.6494 10.7826 13.6494H17.2175C17.6274 13.6494 17.96 14.0307 17.96 14.5006C17.96 14.9705 17.6274 15.3518 17.2175 15.3518Z" fill="#333C4E"/>
</svg>
