<svg width="16" height="16" viewBox="0 0 16 16" fill="none" xmlns="http://www.w3.org/2000/svg">
<path d="M9.99902 0L12.0564 2.05733C10.093 4.02067 5.92635 8.188 5.72302 8.39067C5.20235 8.91133 5.20235 9.75533 5.72302 10.276C6.24369 10.7967 7.08769 10.7967 7.60835 10.276C7.81102 10.0727 11.9777 5.906 13.9417 3.94267L15.999 6V0H9.99902Z" fill="#333C4E"/>
<path d="M13.9997 8.00065C13.631 8.00065 13.333 8.29865 13.333 8.66732V13.334H2.66634V2.66732H7.33301C7.70101 2.66732 7.99967 2.36932 7.99967 2.00065C7.99967 1.63198 7.70101 1.33398 7.33301 1.33398H2.66634C1.93034 1.33398 1.33301 1.93065 1.33301 2.66732V13.334C1.33301 14.0707 1.93034 14.6673 2.66634 14.6673H13.333C14.069 14.6673 14.6663 14.0707 14.6663 13.334V8.66732C14.6663 8.29865 14.3683 8.00065 13.9997 8.00065Z" fill="#333C4E"/>
</svg>
