<svg width="97" height="10" viewBox="0 0 97 10" fill="none" xmlns="http://www.w3.org/2000/svg">
<path d="M5.22266 2.56055C5.69661 2.56055 6.16146 2.61523 6.61719 2.72461C7.08203 2.83398 7.52409 2.99805 7.94336 3.2168C8.36263 3.42643 8.73177 3.70898 9.05078 4.06445C9.37891 4.41992 9.55664 4.84375 9.58398 5.33594V5.91016V8.24805C9.5293 8.79492 9.22852 9.09115 8.68164 9.13672C8.42643 9.13672 8.20312 9.05469 8.01172 8.89062C7.82943 8.71745 7.73828 8.50326 7.73828 8.24805V7.64648V5.75977C7.72005 5.47721 7.61068 5.24479 7.41016 5.0625C7.21875 4.87109 7 4.7207 6.75391 4.61133C6.51693 4.50195 6.26628 4.41992 6.00195 4.36523C5.74674 4.31055 5.48698 4.2832 5.22266 4.2832C4.95833 4.2832 4.69401 4.31055 4.42969 4.36523C4.17448 4.41992 3.92383 4.50195 3.67773 4.61133C3.44076 4.7207 3.22201 4.87109 3.02148 5.0625C2.83008 5.24479 2.72526 5.47721 2.70703 5.75977V7.64648V8.24805C2.66146 8.79492 2.36523 9.09115 1.81836 9.13672C1.56315 9.13672 1.33984 9.05469 1.14844 8.89062C0.966146 8.71745 0.875 8.50326 0.875 8.24805V5.91016V5.33594C0.902344 4.84375 1.07552 4.41992 1.39453 4.06445C1.71354 3.70898 2.08268 3.42643 2.50195 3.2168C2.92122 2.99805 3.35872 2.83398 3.81445 2.72461C4.2793 2.61523 4.7487 2.56055 5.22266 2.56055ZM13.8633 0.90625H14.4922H19.1406C19.3958 0.915365 19.6055 1.01107 19.7695 1.19336C19.9427 1.37565 20.0293 1.5944 20.0293 1.84961C19.9837 2.39648 19.6875 2.69271 19.1406 2.73828H14.3281C13.9818 2.75651 13.6947 2.88867 13.4668 3.13477C13.2389 3.38086 13.0703 3.66341 12.9609 3.98242C12.8607 4.29232 12.8105 4.61133 12.8105 4.93945C12.8105 5.26758 12.8607 5.59115 12.9609 5.91016C13.0703 6.22005 13.2389 6.49805 13.4668 6.74414C13.6947 6.99023 13.9818 7.1224 14.3281 7.14062H19.1406C19.3958 7.14974 19.6055 7.24544 19.7695 7.42773C19.9427 7.61003 20.0293 7.82878 20.0293 8.08398C20.0202 8.33008 19.929 8.53971 19.7559 8.71289C19.5918 8.87695 19.3867 8.96354 19.1406 8.97266H14.123H13.8633C13.2253 8.9362 12.6966 8.69466 12.2773 8.24805C11.8672 7.79232 11.571 7.27734 11.3887 6.70312C11.2155 6.12891 11.1289 5.54102 11.1289 4.93945C11.1289 4.33789 11.2201 3.75 11.4023 3.17578C11.5846 2.60156 11.8809 2.09115 12.291 1.64453C12.7012 1.1888 13.2253 0.942708 13.8633 0.90625ZM20.002 4.88477C20.002 5.13997 19.9108 5.35417 19.7285 5.52734C19.5553 5.70964 19.3411 5.80078 19.0859 5.80078H14.957C14.7018 5.80078 14.4831 5.71419 14.3008 5.54102C14.1276 5.35872 14.041 5.13997 14.041 4.88477C14.041 4.62956 14.1276 4.41081 14.3008 4.22852C14.4831 4.05534 14.7018 3.96875 14.957 3.96875H19.0859C19.3411 3.96875 19.5553 4.0599 19.7285 4.24219C19.9108 4.41536 20.002 4.62956 20.002 4.88477ZM24.2949 9.28711C23.985 9.28711 23.6751 9.23242 23.3652 9.12305C23.0645 9.01367 22.7728 8.85417 22.4902 8.64453C22.2077 8.42578 21.9616 8.13867 21.752 7.7832C21.5423 7.42773 21.4284 7.00391 21.4102 6.51172V1.57617C21.4102 1.32096 21.5013 1.11133 21.6836 0.947266C21.875 0.774089 22.0983 0.6875 22.3535 0.6875C22.9004 0.733073 23.1966 1.0293 23.2422 1.57617V6.40234C23.2513 6.62109 23.2969 6.80794 23.3789 6.96289C23.4609 7.10872 23.5521 7.22721 23.6523 7.31836C23.7526 7.40039 23.8529 7.46419 23.9531 7.50977C24.0625 7.54622 24.1719 7.56445 24.2812 7.56445C24.3906 7.56445 24.5 7.54622 24.6094 7.50977C24.7188 7.46419 24.8236 7.40039 24.9238 7.31836C25.0241 7.22721 25.1152 7.10872 25.1973 6.96289C25.2793 6.80794 25.3203 6.62109 25.3203 6.40234V1.57617C25.3203 1.32096 25.4115 1.11133 25.5938 0.947266C25.7852 0.774089 26.0085 0.6875 26.2637 0.6875C26.8105 0.733073 27.1113 1.0293 27.166 1.57617V6.40234C27.1751 6.62109 27.2207 6.80339 27.3027 6.94922C27.3848 7.10417 27.4759 7.22721 27.5762 7.31836C27.6764 7.40039 27.7767 7.46419 27.877 7.50977C27.9863 7.54622 28.0957 7.56445 28.2051 7.56445C28.3145 7.56445 28.4238 7.54622 28.5332 7.50977C28.6426 7.46419 28.7474 7.40039 28.8477 7.31836C28.9479 7.22721 29.0391 7.10872 29.1211 6.96289C29.2031 6.80794 29.2441 6.62109 29.2441 6.40234V1.57617C29.2441 1.32096 29.3353 1.11133 29.5176 0.947266C29.709 0.774089 29.9323 0.6875 30.1875 0.6875C30.7344 0.733073 31.0352 1.0293 31.0898 1.57617V6.51172C31.0898 7.00391 30.9805 7.42773 30.7617 7.7832C30.5521 8.13867 30.306 8.42578 30.0234 8.64453C29.75 8.85417 29.4583 9.01367 29.1484 9.12305C28.8477 9.23242 28.5378 9.28711 28.2188 9.28711C27.9089 9.28711 27.599 9.23242 27.2891 9.12305C26.9883 9.01367 26.6966 8.84961 26.4141 8.63086C26.3594 8.5944 26.3092 8.55339 26.2637 8.50781C26.209 8.55339 26.1589 8.5944 26.1133 8.63086C25.8307 8.84961 25.5345 9.01367 25.2246 9.12305C24.9238 9.23242 24.6139 9.28711 24.2949 9.28711ZM41.7266 1.82227C41.7266 2.07747 41.6354 2.29167 41.4531 2.46484C41.2799 2.64714 41.0658 2.73828 40.8105 2.73828H35.3418C35.1686 2.7474 35.0228 2.78841 34.9043 2.86133C34.7949 2.92513 34.7129 3.0026 34.6582 3.09375C34.6035 3.17578 34.5762 3.26237 34.5762 3.35352C34.5762 3.44466 34.6035 3.53581 34.6582 3.62695C34.7129 3.70898 34.7949 3.78646 34.9043 3.85938C35.0228 3.92318 35.1686 3.95964 35.3418 3.96875H39.2246C39.8626 3.98698 40.3867 4.13737 40.7969 4.41992C41.2161 4.69336 41.5124 5.01237 41.6855 5.37695C41.8678 5.73242 41.959 6.09701 41.959 6.4707C41.959 6.83529 41.8678 7.19987 41.6855 7.56445C41.5033 7.91992 41.207 8.23893 40.7969 8.52148C40.3867 8.79492 39.8626 8.93164 39.2246 8.93164H39.1426C39.0879 8.94076 39.0332 8.94531 38.9785 8.94531H33.8105C33.5553 8.94531 33.3366 8.85872 33.1543 8.68555C32.9811 8.50326 32.8945 8.28451 32.8945 8.0293C32.8945 7.77409 32.9857 7.5599 33.168 7.38672C33.3411 7.20443 33.5553 7.11328 33.8105 7.11328H39.3066C39.4798 7.1224 39.6211 7.09049 39.7305 7.01758C39.849 6.94466 39.9355 6.86263 39.9902 6.77148C40.0449 6.67122 40.0723 6.57096 40.0723 6.4707C40.0723 6.4069 40.0449 6.32031 39.9902 6.21094C39.9355 6.09245 39.849 5.99674 39.7305 5.92383C39.6211 5.85091 39.4798 5.8099 39.3066 5.80078H35.4238C34.7858 5.78255 34.2572 5.63672 33.8379 5.36328C33.4277 5.08984 33.1315 4.77995 32.9492 4.43359C32.776 4.07812 32.6895 3.7181 32.6895 3.35352C32.6895 2.99805 32.7806 2.64714 32.9629 2.30078C33.1452 1.94531 33.4414 1.63086 33.8516 1.35742C34.2617 1.08398 34.7858 0.938151 35.4238 0.919922H35.5059C35.5605 0.910807 35.6152 0.90625 35.6699 0.90625H40.8105C41.0658 0.90625 41.2799 0.997396 41.4531 1.17969C41.6354 1.35286 41.7266 1.56706 41.7266 1.82227ZM50.832 0.90625C51.2969 0.915365 51.7116 1.0612 52.0762 1.34375C52.4408 1.6263 52.7324 1.96354 52.9512 2.35547C53.179 2.7474 53.3477 3.16211 53.457 3.59961C53.5664 4.03711 53.6211 4.48372 53.6211 4.93945C53.6211 5.54102 53.5254 6.13346 53.334 6.7168C53.1517 7.29102 52.8464 7.80143 52.418 8.24805C51.9987 8.69466 51.4701 8.9362 50.832 8.97266H46.0605C45.4225 8.94531 44.8893 8.70833 44.4609 8.26172C44.0326 7.8151 43.7272 7.30013 43.5449 6.7168C43.3717 6.13346 43.2852 5.54102 43.2852 4.93945C43.2852 4.33789 43.3763 3.75 43.5586 3.17578C43.7409 2.59245 44.0417 2.07747 44.4609 1.63086C44.8893 1.17513 45.4225 0.933594 46.0605 0.90625H46.3203H50.5723H50.832ZM50.3672 7.14062C50.7135 7.1224 51.0007 6.99479 51.2285 6.75781C51.4655 6.51172 51.6341 6.22917 51.7344 5.91016C51.8346 5.59115 51.8848 5.26758 51.8848 4.93945C51.8848 4.61133 51.8301 4.29232 51.7207 3.98242C51.6204 3.66341 51.4564 3.38086 51.2285 3.13477C51.0007 2.88867 50.7135 2.75651 50.3672 2.73828H46.4844C46.138 2.75651 45.8509 2.88867 45.623 3.13477C45.3952 3.38086 45.2266 3.66341 45.1172 3.98242C45.0169 4.29232 44.9668 4.61133 44.9668 4.93945C44.9668 5.26758 45.0169 5.59115 45.1172 5.91016C45.2174 6.22917 45.3815 6.51172 45.6094 6.75781C45.8464 6.99479 46.138 7.1224 46.4844 7.14062H50.3672ZM56.0547 9.13672C55.8086 9.1276 55.599 9.04102 55.4258 8.87695C55.2526 8.70378 55.1615 8.49414 55.1523 8.24805V4.84375C55.1615 4.19661 55.2526 3.58594 55.4258 3.01172C55.6081 2.4375 55.9043 1.95443 56.3145 1.5625C56.7337 1.16146 57.2624 0.942708 57.9004 0.90625H63.1777C63.4238 0.915365 63.6289 1.00651 63.793 1.17969C63.9661 1.34375 64.0573 1.54883 64.0664 1.79492C64.0664 2.05013 63.9798 2.26888 63.8066 2.45117C63.6426 2.63346 63.4329 2.72917 63.1777 2.73828H58.3652C58.0189 2.75651 57.7318 2.88867 57.5039 3.13477C57.276 3.38086 57.1302 3.66341 57.0664 3.98242C57.0117 4.29232 56.9889 4.63411 56.998 5.00781V8.24805C56.9889 8.50326 56.8932 8.71745 56.7109 8.89062C56.5286 9.05469 56.3099 9.13672 56.0547 9.13672ZM57.6406 5.54102C57.6406 5.28581 57.7318 5.07161 57.9141 4.89844C58.0872 4.71615 58.3014 4.625 58.5566 4.625H63.1777C63.4329 4.625 63.6471 4.71615 63.8203 4.89844C64.0026 5.07161 64.0938 5.28581 64.0938 5.54102C64.0938 5.79622 64.0072 6.01497 63.834 6.19727C63.6517 6.37044 63.4329 6.45703 63.1777 6.45703H58.5566C58.3014 6.45703 58.0827 6.37044 57.9004 6.19727C57.7272 6.01497 57.6406 5.79622 57.6406 5.54102ZM65.0781 1.82227C65.0781 1.56706 65.1647 1.35286 65.3379 1.17969C65.5202 0.997396 65.7389 0.90625 65.9941 0.90625H73.9512C74.2064 0.90625 74.4251 0.992839 74.6074 1.16602C74.7806 1.34831 74.8672 1.56706 74.8672 1.82227C74.8672 2.07747 74.776 2.29622 74.5938 2.47852C74.4206 2.65169 74.2064 2.73828 73.9512 2.73828H70.9023V8.27539C70.8477 8.82227 70.5469 9.11849 70 9.16406C69.7448 9.16406 69.5215 9.08203 69.3301 8.91797C69.1478 8.74479 69.0566 8.5306 69.0566 8.27539V2.73828H65.9941C65.7389 2.73828 65.5247 2.64714 65.3516 2.46484C65.1693 2.29167 65.0781 2.07747 65.0781 1.82227ZM79.4199 2.73828C79.0736 2.75651 78.7819 2.88867 78.5449 3.13477C78.3171 3.38086 78.153 3.66341 78.0527 3.98242C77.9525 4.29232 77.9023 4.61133 77.9023 4.93945C77.9023 5.26758 77.9479 5.59115 78.0391 5.91016C78.1393 6.22917 78.3079 6.51172 78.5449 6.75781C78.7819 6.99479 79.0736 7.1224 79.4199 7.14062H83.9316C84.5059 7.19531 84.8203 7.50977 84.875 8.08398C84.8659 8.33919 84.7702 8.55339 84.5879 8.72656C84.4056 8.89062 84.1868 8.97266 83.9316 8.97266H79.5703H78.9414C78.3034 8.9362 77.7793 8.69466 77.3691 8.24805C76.959 7.79232 76.6628 7.27734 76.4805 6.70312C76.3073 6.12891 76.2207 5.54102 76.2207 4.93945C76.2207 4.49284 76.2708 4.05078 76.3711 3.61328C76.4714 3.17578 76.6263 2.76107 76.8359 2.36914C77.0547 1.9681 77.3418 1.6263 77.6973 1.34375C78.0618 1.0612 78.4766 0.915365 78.9414 0.90625H79.2012H83.9316C84.5059 0.960938 84.8203 1.27539 84.875 1.84961C84.875 2.10482 84.7793 2.31901 84.5879 2.49219C84.4056 2.65625 84.1868 2.73828 83.9316 2.73828H79.4199ZM93.4746 0.90625C93.9395 0.915365 94.3542 1.0612 94.7188 1.34375C95.0833 1.6263 95.375 1.96354 95.5938 2.35547C95.8216 2.7474 95.9902 3.16211 96.0996 3.59961C96.209 4.03711 96.2637 4.48372 96.2637 4.93945C96.2637 5.54102 96.168 6.13346 95.9766 6.7168C95.7943 7.29102 95.4889 7.80143 95.0605 8.24805C94.6413 8.69466 94.1126 8.9362 93.4746 8.97266H88.7031C88.0651 8.94531 87.5319 8.70833 87.1035 8.26172C86.6751 7.8151 86.3698 7.30013 86.1875 6.7168C86.0143 6.13346 85.9277 5.54102 85.9277 4.93945C85.9277 4.33789 86.0189 3.75 86.2012 3.17578C86.3835 2.59245 86.6842 2.07747 87.1035 1.63086C87.5319 1.17513 88.0651 0.933594 88.7031 0.90625H88.9629H93.2148H93.4746ZM93.0098 7.14062C93.3561 7.1224 93.6432 6.99479 93.8711 6.75781C94.1081 6.51172 94.2767 6.22917 94.377 5.91016C94.4772 5.59115 94.5273 5.26758 94.5273 4.93945C94.5273 4.61133 94.4727 4.29232 94.3633 3.98242C94.263 3.66341 94.099 3.38086 93.8711 3.13477C93.6432 2.88867 93.3561 2.75651 93.0098 2.73828H89.127C88.7806 2.75651 88.4935 2.88867 88.2656 3.13477C88.0378 3.38086 87.8691 3.66341 87.7598 3.98242C87.6595 4.29232 87.6094 4.61133 87.6094 4.93945C87.6094 5.26758 87.6595 5.59115 87.7598 5.91016C87.86 6.22917 88.0241 6.51172 88.252 6.75781C88.4889 6.99479 88.7806 7.1224 89.127 7.14062H93.0098Z" fill="#FF874A"/>
</svg>
