<svg width="28" height="28" viewBox="0 0 28 28" fill="none" xmlns="http://www.w3.org/2000/svg">
<path d="M4.85359 17.7886C4.35607 16.5874 4.1 15.3001 4.1 14C4.1 11.3744 5.14303 8.85625 6.99964 6.99964C8.85625 5.14303 11.3744 4.1 14 4.1C16.6256 4.1 19.1437 5.14303 21.0004 6.99964C22.857 8.85625 23.9 11.3744 23.9 14C23.9 15.3001 23.6439 16.5874 23.1464 17.7886C22.6489 18.9897 21.9197 20.0811 21.0004 21.0004C20.0811 21.9197 18.9897 22.6489 17.7886 23.1464C16.5874 23.6439 15.3001 23.9 14 23.9C12.6999 23.9 11.4126 23.6439 10.2114 23.1464C9.01031 22.6489 7.91894 21.9197 6.99964 21.0004C6.08034 20.0811 5.35111 18.9897 4.85359 17.7886Z" stroke="#333C4E" stroke-width="1.2" stroke-linecap="round" stroke-linejoin="round"/>
<path d="M14 10.5H14.0117" stroke="#333C4E" stroke-width="2" stroke-linecap="round" stroke-linejoin="round"/>
<path d="M12.834 14H14.0007V18.6667H15.1673" stroke="#333C4E" stroke-width="1.5" stroke-linecap="round" stroke-linejoin="round"/>
</svg>
