<svg width="28" height="28" viewBox="0 0 28 28" fill="none" xmlns="http://www.w3.org/2000/svg">
<path d="M7.14996 17.65H8.24998V18.8C8.24998 18.9935 8.40645 19.15 8.59996 19.15C8.79348 19.15 8.94995 18.9935 8.94995 18.8V17.65H10.0499V18.2C10.0499 18.3935 10.2064 18.55 10.3999 18.55C10.5934 18.55 10.7499 18.3935 10.7499 18.2V17.65H11.8499V18.8C11.8499 18.9935 12.0064 19.15 12.1999 19.15C12.3934 19.15 12.5499 18.9935 12.5499 18.8V17.65H13.6499V18.2C13.6499 18.3935 13.8063 18.55 13.9999 18.55C14.1934 18.55 14.3498 18.3935 14.3498 18.2V17.65H15.4498V18.8C15.4498 18.9935 15.6063 19.15 15.7998 19.15C15.9933 19.15 16.1498 18.9935 16.1498 18.8V17.65H17.2498V18.2C17.2498 18.3935 17.4063 18.55 17.5998 18.55C17.7933 18.55 17.9498 18.3935 17.9498 18.2V17.65H19.0498V18.8C19.0498 18.9935 19.2062 19.15 19.3998 19.15C19.5933 19.15 19.7497 18.9935 19.7497 18.8V17.65H20.8503L20.85 18.2V18.2C20.85 18.3932 21.0064 18.55 21.2 18.55C21.3932 18.55 21.55 18.3936 21.55 18.2L21.5503 17.65H22.3497V20.55H5.65001V17.65H6.44999L6.4497 18.2V18.2C6.4497 18.3932 6.60613 18.55 6.79968 18.55C6.99284 18.55 7.14966 18.3936 7.14967 18.2C7.14967 18.2 7.14967 18.2 7.14967 18.2L7.14996 17.65ZM22.7 16.95H5.29999C5.10647 16.95 4.95 17.1065 4.95 17.3V20.9C4.95 21.0935 5.10647 21.25 5.29999 21.25H22.7C22.8935 21.25 23.05 21.0935 23.05 20.9V17.3C23.05 17.1065 22.8935 16.95 22.7 16.95Z" fill="#333C4E" stroke="#333C4E" stroke-width="0.1"/>
<path d="M5.29999 8.54961C5.10647 8.54961 4.95 8.70608 4.95 8.8996V13.9996C4.95 14.1931 5.10647 14.3496 5.29999 14.3496C5.4935 14.3496 5.64998 14.1931 5.64998 13.9996V11.5996V8.89961C5.64998 8.8996 5.64998 8.8996 5.64998 8.8996C5.65001 8.70607 5.49349 8.54961 5.29999 8.54961Z" fill="#333C4E" stroke="#333C4E" stroke-width="0.1"/>
<path d="M22.7004 8.54961C22.5069 8.54961 22.3504 8.70608 22.3504 8.8996V11.5996V13.9996C22.3504 14.1931 22.5069 14.3496 22.7004 14.3496C22.8939 14.3496 23.0504 14.1931 23.0504 13.9996V8.8996C23.0504 8.70608 22.8939 8.54961 22.7004 8.54961Z" fill="#333C4E" stroke="#333C4E" stroke-width="0.1"/>
<path d="M21.7753 11.3775L21.7752 11.3773L20.3823 9.57734L20.3823 9.57731C20.294 9.46326 20.1472 9.42079 20.0159 9.47126L20.0159 9.47126L20.0155 9.47139C19.8847 9.52274 19.8002 9.65513 19.8002 9.80024V11.2503H8.20017V9.79996C8.20017 9.65487 8.11567 9.5224 7.98474 9.47138L7.98473 9.47138C7.85304 9.42008 7.7066 9.46317 7.61808 9.57733L7.61805 9.57737L6.22516 11.3777L6.22514 11.3777C6.17509 11.4425 6.1502 11.5218 6.1502 11.6002C6.1502 11.6787 6.17505 11.758 6.22508 11.823L6.22516 11.8231L7.61805 13.6231L7.61809 13.6232C7.68127 13.7046 7.77456 13.7502 7.87149 13.7502C7.90962 13.7502 7.94784 13.743 7.98439 13.7288L7.98457 13.7288C8.11539 13.6774 8.19989 13.5451 8.19989 13.4002V11.9502H19.7999V13.4002C19.7999 13.5453 19.8844 13.6778 20.0153 13.7288L20.0154 13.7288C20.0519 13.743 20.0902 13.7502 20.1283 13.7502C20.2253 13.7502 20.3185 13.7046 20.3819 13.6233L20.382 13.6231L21.7749 11.8232C21.7749 11.8232 21.7749 11.8231 21.7749 11.8231C21.8253 11.7581 21.8502 11.6791 21.8502 11.6002C21.8502 11.5214 21.8253 11.4425 21.7753 11.3775Z" fill="#333C4E" stroke="#333C4E" stroke-width="0.1"/>
<path d="M2 26V22L6 26H2Z" fill="#333C4E"/>
</svg>
