<svg width="28" height="28" viewBox="0 0 28 28" fill="none" xmlns="http://www.w3.org/2000/svg">
<path d="M19.8018 6.40918C18.5897 6.40918 17.6037 7.39579 17.6037 8.60856C17.6037 8.76985 17.6216 8.92705 17.6547 9.07859L14.8337 10.4901C14.4303 10.0233 13.8348 9.72705 13.1711 9.72705C11.9591 9.72705 10.973 10.7137 10.973 11.9264C10.973 13.1392 11.9591 14.1258 13.1711 14.1258C13.3434 14.1258 13.5108 14.1052 13.6718 14.0676L15.0219 16.0944C14.572 16.4974 14.2883 17.0824 14.2883 17.7327C14.2883 17.8575 14.2993 17.9799 14.3194 18.0991L10.3059 18.7685C10.0367 17.8583 9.19397 17.1922 8.1982 17.1922C6.98613 17.1922 6 18.1788 6 19.3915C6 20.6044 6.98613 21.591 8.1982 21.591C9.25037 21.591 10.1318 20.8473 10.3462 19.8577L14.7807 19.118C15.1841 19.6142 15.7987 19.932 16.4864 19.932C17.6985 19.932 18.6847 18.9454 18.6847 17.7327C18.6847 16.5199 17.6985 15.5333 16.4864 15.5333C16.3141 15.5333 16.1467 15.554 15.9858 15.5916L14.6357 13.5647C15.0856 13.1617 15.3693 12.5767 15.3693 11.9264C15.3693 11.7651 15.3513 11.608 15.3182 11.4565L18.1393 10.045C18.5427 10.5118 19.1381 10.808 19.8018 10.808C21.0139 10.808 22 9.82138 22 8.60856C22 7.39579 21.0139 6.40918 19.8018 6.40918ZM8.1982 20.51C7.58217 20.51 7.08105 20.0083 7.08105 19.3915C7.08105 18.7749 7.58222 18.2732 8.1982 18.2732C8.81417 18.2732 9.31529 18.7749 9.31529 19.3915C9.31529 20.0082 8.81417 20.51 8.1982 20.51ZM17.6037 17.7327C17.6037 18.3493 17.1025 18.851 16.4864 18.851C15.8704 18.851 15.3693 18.3494 15.3693 17.7327C15.3693 17.116 15.8704 16.6143 16.4864 16.6143C17.1025 16.6143 17.6037 17.116 17.6037 17.7327ZM12.054 11.9264C12.054 11.3098 12.5552 10.808 13.1711 10.808C13.7871 10.808 14.2882 11.3098 14.2882 11.9264C14.2882 12.5431 13.7871 13.0448 13.1711 13.0448C12.5552 13.0448 12.054 12.5431 12.054 11.9264ZM19.8018 9.72705C19.1858 9.72705 18.6847 9.22529 18.6847 8.60856C18.6847 7.99189 19.1858 7.49018 19.8018 7.49018C20.4178 7.49018 20.919 7.99183 20.919 8.60856C20.919 9.22523 20.4178 9.72705 19.8018 9.72705Z" fill="#333C4E"/>
</svg>
