<svg width="28" height="28" viewBox="0 0 28 28" fill="none" xmlns="http://www.w3.org/2000/svg">
<path d="M7.14996 17.65H8.24998V18.8C8.24998 18.9935 8.40645 19.15 8.59996 19.15C8.79348 19.15 8.94995 18.9935 8.94995 18.8V17.65H10.0499V18.2C10.0499 18.3935 10.2064 18.55 10.3999 18.55C10.5934 18.55 10.7499 18.3935 10.7499 18.2V17.65H11.8499V18.8C11.8499 18.9935 12.0064 19.15 12.1999 19.15C12.3934 19.15 12.5499 18.9935 12.5499 18.8V17.65H13.6499V18.2C13.6499 18.3935 13.8063 18.55 13.9999 18.55C14.1934 18.55 14.3498 18.3935 14.3498 18.2V17.65H15.4498V18.8C15.4498 18.9935 15.6063 19.15 15.7998 19.15C15.9933 19.15 16.1498 18.9935 16.1498 18.8V17.65H17.2498V18.2C17.2498 18.3935 17.4063 18.55 17.5998 18.55C17.7933 18.55 17.9498 18.3935 17.9498 18.2V17.65H19.0498V18.8C19.0498 18.9935 19.2062 19.15 19.3998 19.15C19.5933 19.15 19.7497 18.9935 19.7497 18.8V17.65H20.8503L20.85 18.2V18.2C20.85 18.3932 21.0064 18.55 21.2 18.55C21.3932 18.55 21.55 18.3936 21.55 18.2L21.5503 17.65H22.3497V20.55H5.65001V17.65H6.44999L6.4497 18.2V18.2C6.4497 18.3932 6.60613 18.55 6.79968 18.55C6.99284 18.55 7.14966 18.3936 7.14967 18.2C7.14967 18.2 7.14967 18.2 7.14967 18.2L7.14996 17.65ZM22.7 16.95H5.29999C5.10647 16.95 4.95 17.1065 4.95 17.3V20.9C4.95 21.0935 5.10647 21.25 5.29999 21.25H22.7C22.8935 21.25 23.05 21.0935 23.05 20.9V17.3C23.05 17.1065 22.8935 16.95 22.7 16.95Z" fill="#333C4E" stroke="#333C4E" stroke-width="0.1"/>
<path d="M5.29999 8.5501C5.10647 8.5501 4.95 8.70657 4.95 8.90009V14.0001C4.95 14.1936 5.10647 14.3501 5.29999 14.3501C5.4935 14.3501 5.64998 14.1936 5.64998 14.0001V11.6001V8.9001C5.64998 8.90009 5.64998 8.90009 5.64998 8.90009C5.65001 8.70656 5.49349 8.5501 5.29999 8.5501Z" fill="#333C4E" stroke="#333C4E" stroke-width="0.1"/>
<path d="M22.6984 8.54985C22.5049 8.54985 22.3484 8.70632 22.3484 8.89984V11.5998V13.9999C22.3484 14.1934 22.5049 14.3498 22.6984 14.3498C22.8919 14.3498 23.0484 14.1934 23.0484 13.9999V8.89984C23.0484 8.70633 22.8919 8.54985 22.6984 8.54985Z" fill="#333C4E" stroke="#333C4E" stroke-width="0.1"/>
<path d="M21.7743 11.3772L21.7742 11.3771L20.3813 9.57709L20.3813 9.57707C20.293 9.46302 20.1463 9.42054 20.0149 9.47102L20.0149 9.47102L20.0146 9.47115C19.8837 9.52249 19.7992 9.65488 19.7992 9.8V11.25H8.1992V9.79971C8.1992 9.65462 8.11469 9.52216 7.98376 9.47114L7.98376 9.47114C7.85206 9.41984 7.70562 9.46293 7.61711 9.57709L7.61708 9.57713L6.22419 11.3774L6.22416 11.3774C6.17411 11.4422 6.14922 11.5215 6.14922 11.6C6.14922 11.6785 6.17407 11.7578 6.2241 11.8228L6.22419 11.8229L7.61708 13.6229L7.61711 13.6229C7.68029 13.7044 7.77359 13.75 7.87051 13.75C7.90865 13.75 7.94687 13.7428 7.98341 13.7286L7.98359 13.7285C8.11442 13.6772 8.19891 13.5448 8.19891 13.4V11.95H19.7989V13.4C19.7989 13.5451 19.8834 13.6776 20.0143 13.7286L20.0144 13.7286C20.051 13.7428 20.0892 13.75 20.1273 13.75C20.2243 13.75 20.3175 13.7043 20.3809 13.6231L20.3811 13.6229L21.7739 11.8229C21.774 11.8229 21.774 11.8229 21.774 11.8229C21.8243 11.7578 21.8492 11.6788 21.8492 11.6C21.8492 11.5211 21.8243 11.4422 21.7743 11.3772Z" fill="#333C4E" stroke="#333C4E" stroke-width="0.1"/>
</svg>
