<svg width="28" height="28" viewBox="0 0 28 28" fill="none" xmlns="http://www.w3.org/2000/svg">
<path d="M7.14996 17.65H8.24998V18.8C8.24998 18.9935 8.40645 19.15 8.59996 19.15C8.79348 19.15 8.94995 18.9935 8.94995 18.8V17.65H10.0499V18.2C10.0499 18.3935 10.2064 18.55 10.3999 18.55C10.5934 18.55 10.7499 18.3935 10.7499 18.2V17.65H11.8499V18.8C11.8499 18.9935 12.0064 19.15 12.1999 19.15C12.3934 19.15 12.5499 18.9935 12.5499 18.8V17.65H13.6499V18.2C13.6499 18.3935 13.8063 18.55 13.9999 18.55C14.1934 18.55 14.3498 18.3935 14.3498 18.2V17.65H15.4498V18.8C15.4498 18.9935 15.6063 19.15 15.7998 19.15C15.9933 19.15 16.1498 18.9935 16.1498 18.8V17.65H17.2498V18.2C17.2498 18.3935 17.4063 18.55 17.5998 18.55C17.7933 18.55 17.9498 18.3935 17.9498 18.2V17.65H19.0498V18.8C19.0498 18.9935 19.2062 19.15 19.3998 19.15C19.5933 19.15 19.7497 18.9935 19.7497 18.8V17.65H20.8503L20.85 18.2V18.2C20.85 18.3932 21.0064 18.55 21.2 18.55C21.3932 18.55 21.55 18.3936 21.55 18.2L21.5503 17.65H22.3497V20.55H5.65001V17.65H6.44999L6.4497 18.2V18.2C6.4497 18.3932 6.60613 18.55 6.79968 18.55C6.99284 18.55 7.14966 18.3936 7.14967 18.2C7.14967 18.2 7.14967 18.2 7.14967 18.2L7.14996 17.65ZM22.7 16.95H5.29999C5.10647 16.95 4.95 17.1065 4.95 17.3V20.9C4.95 21.0935 5.10647 21.25 5.29999 21.25H22.7C22.8935 21.25 23.05 21.0935 23.05 20.9V17.3C23.05 17.1065 22.8935 16.95 22.7 16.95Z" fill="#333C4E" stroke="#333C4E" stroke-width="0.1"/>
<path d="M5.29999 8.54961C5.10647 8.54961 4.95 8.70608 4.95 8.8996V13.9996C4.95 14.1931 5.10647 14.3496 5.29999 14.3496C5.4935 14.3496 5.64998 14.1931 5.64998 13.9996V11.5996V8.89961C5.64998 8.8996 5.64998 8.8996 5.64998 8.8996C5.65001 8.70607 5.49349 8.54961 5.29999 8.54961Z" fill="#333C4E" stroke="#333C4E" stroke-width="0.1"/>
<path d="M22.6984 8.54961C22.5049 8.54961 22.3484 8.70608 22.3484 8.8996V11.5996V13.9996C22.3484 14.1931 22.5049 14.3496 22.6984 14.3496C22.8919 14.3496 23.0484 14.1931 23.0484 13.9996V8.8996C23.0484 8.70608 22.8919 8.54961 22.6984 8.54961Z" fill="#333C4E" stroke="#333C4E" stroke-width="0.1"/>
<path d="M7 11L21 11" stroke="#333C4E" stroke-width="0.8" stroke-linecap="round"/>
</svg>
