<svg width="28" height="28" viewBox="0 0 28 28" fill="none" xmlns="http://www.w3.org/2000/svg">
<path d="M22.9998 9.5002C22.9951 8.25764 21.9841 7.25413 20.7415 7.2588C19.8576 7.26211 19.0575 7.78274 18.6964 8.58956L16.7756 8.2684L16.5877 9.37814L18.5181 9.70044C18.5932 10.5375 19.1286 11.2628 19.9062 11.5813L19.3584 15.7138C18.23 15.8464 17.3785 16.801 17.3751 17.9372V17.9456L10.8905 19.6555C10.5446 19.0389 9.92776 18.6219 9.22668 18.5306L8.07813 9.33821C8.62453 9.1206 9.06431 8.69816 9.30374 8.16096L11.0423 8.4512L11.2274 7.34201L9.48036 7.05009C9.37416 5.81519 8.28694 4.9002 7.05204 5.00644C5.81715 5.11264 4.90215 6.19982 5.00839 7.43471C5.09898 8.488 5.91238 9.33522 6.96107 9.4687L8.11075 18.6594C6.95527 19.1164 6.38897 20.4235 6.84594 21.579C7.3029 22.7345 8.61004 23.3008 9.76553 22.8438C10.6247 22.504 11.1889 21.6735 11.188 20.7495V20.7411L17.6727 19.0312C18.2767 20.1135 19.6438 20.5013 20.7261 19.8973C21.8084 19.2933 22.1962 17.9262 21.5922 16.8439C21.3424 16.3963 20.9469 16.0477 20.4715 15.8561L21.0194 11.7236C22.1467 11.5897 22.9967 10.6354 22.9998 9.5002ZM7.25074 8.37526C6.62946 8.37526 6.1258 7.87161 6.1258 7.25033C6.1258 6.62905 6.62946 6.1254 7.25074 6.1254C7.87202 6.1254 8.37567 6.62905 8.37567 7.25033C8.37567 7.87161 7.87202 8.37526 7.25074 8.37526ZM8.93814 21.8745C8.31686 21.8745 7.8132 21.3708 7.8132 20.7495C7.8132 20.1283 8.31686 19.6246 8.93814 19.6246C9.55942 19.6246 10.0631 20.1283 10.0631 20.7495C10.0631 21.3708 9.55942 21.8745 8.93814 21.8745ZM20.7499 17.9372C20.7499 18.5585 20.2463 19.0621 19.625 19.0621C19.0037 19.0621 18.5001 18.5585 18.5001 17.9372C18.5001 17.3159 19.0037 16.8123 19.625 16.8123C20.2463 16.8123 20.7499 17.3159 20.7499 17.9372ZM19.625 9.5002C19.625 8.87892 20.1287 8.37526 20.7499 8.37526C21.3712 8.37526 21.8749 8.87892 21.8749 9.5002C21.8749 10.1215 21.3712 10.6251 20.7499 10.6251C20.1287 10.6251 19.625 10.1215 19.625 9.5002Z" fill="#333C4E"/>
<path d="M15.6643 8.08336L14.5547 7.89819L14.3695 9.00783L15.4792 9.19299L15.6643 8.08336Z" fill="#333C4E"/>
<path d="M13.4455 7.71273L12.3359 7.52734L12.1505 8.63687L13.2601 8.82226L13.4455 7.71273Z" fill="#333C4E"/>
</svg>
