<svg width="28" height="28" viewBox="0 0 28 28" fill="none" xmlns="http://www.w3.org/2000/svg">
<path d="M14 5.25C12.2694 5.25 10.5777 5.76318 9.13876 6.72464C7.69983 7.6861 6.57832 9.05267 5.91606 10.6515C5.25379 12.2504 5.08051 14.0097 5.41813 15.707C5.75575 17.4044 6.58911 18.9635 7.81282 20.1872C9.03653 21.4109 10.5956 22.2442 12.293 22.5819C13.9903 22.9195 15.7496 22.7462 17.3485 22.0839C18.9473 21.4217 20.3139 20.3002 21.2754 18.8612C22.2368 17.4223 22.75 15.7306 22.75 14C22.75 11.6794 21.8281 9.45376 20.1872 7.81282C18.5462 6.17187 16.3206 5.25 14 5.25ZM14 21.5V6.5C15.9891 6.5 17.8968 7.29018 19.3033 8.6967C20.7098 10.1032 21.5 12.0109 21.5 14C21.5 15.9891 20.7098 17.8968 19.3033 19.3033C17.8968 20.7098 15.9891 21.5 14 21.5Z" fill="#333C4E"/>
</svg>
