<svg width="28" height="28" viewBox="0 0 28 28" fill="none" xmlns="http://www.w3.org/2000/svg">
<path d="M14 12.5C13.6022 12.5 13.2206 12.658 12.9393 12.9393C12.658 13.2206 12.5 13.6022 12.5 14C12.5 14.3978 12.658 14.7794 12.9393 15.0607C13.2206 15.342 13.6022 15.5 14 15.5C14.3978 15.5 14.7794 15.342 15.0607 15.0607C15.342 14.7794 15.5 14.3978 15.5 14C15.5 13.6022 15.342 13.2206 15.0607 12.9393C14.7794 12.658 14.3978 12.5 14 12.5Z" fill="#A4ABAE"/>
<path d="M8.1665 12.5C7.76868 12.5 7.38715 12.658 7.10584 12.9393C6.82454 13.2206 6.6665 13.6022 6.6665 14C6.6665 14.3978 6.82454 14.7794 7.10584 15.0607C7.38715 15.342 7.76868 15.5 8.1665 15.5C8.56433 15.5 8.94586 15.342 9.22717 15.0607C9.50847 14.7794 9.6665 14.3978 9.6665 14C9.6665 13.6022 9.50847 13.2206 9.22717 12.9393C8.94586 12.658 8.56433 12.5 8.1665 12.5Z" fill="#A4ABAE"/>
<path d="M19.8335 12.5C19.4357 12.5 19.0541 12.658 18.7728 12.9393C18.4915 13.2206 18.3335 13.6022 18.3335 14C18.3335 14.3978 18.4915 14.7794 18.7728 15.0607C19.0541 15.342 19.4357 15.5 19.8335 15.5C20.2313 15.5 20.6129 15.342 20.8942 15.0607C21.1755 14.7794 21.3335 14.3978 21.3335 14C21.3335 13.6022 21.1755 13.2206 20.8942 12.9393C20.6129 12.658 20.2313 12.5 19.8335 12.5Z" fill="#A4ABAE"/>
</svg>
