<svg width="20" height="20" viewBox="0 0 20 20" fill="none" xmlns="http://www.w3.org/2000/svg">
<path d="M18.1375 8.40037C17.9606 8.15602 17.7273 7.95798 17.4574 7.82306C17.1876 7.68814 16.8892 7.62033 16.5875 7.62537H16.3875V6.37538C16.3876 6.12596 16.3378 5.87904 16.2413 5.64908C16.1447 5.41911 16.0032 5.21072 15.8251 5.03611C15.647 4.8615 15.4359 4.72418 15.2041 4.63219C14.9722 4.5402 14.7244 4.49539 14.475 4.50038H10.425C10.2735 4.49948 10.1264 4.44899 10.0063 4.35663L7.50625 2.40663C7.16408 2.14316 6.74435 2.00032 6.3125 2.00038H2.9125C2.66314 1.99539 2.41528 2.0402 2.18345 2.13219C1.95162 2.22418 1.74047 2.3615 1.56237 2.53611C1.38427 2.71072 1.24279 2.91911 1.14623 3.14907C1.04966 3.37904 0.999952 3.62596 1 3.87538V15.1254C0.999459 15.4713 1.09933 15.81 1.2875 16.1004C1.46044 16.3753 1.70013 16.602 1.98426 16.7594C2.26839 16.9167 2.58771 16.9996 2.9125 17.0004H14.7875C15.1956 17.0105 15.5958 16.8873 15.9275 16.6493C16.2591 16.4112 16.504 16.0715 16.625 15.6816L18.4125 10.0566C18.4985 9.77817 18.5185 9.4835 18.4707 9.196C18.423 8.9085 18.3089 8.63608 18.1375 8.40037ZM2.25 3.87538C2.24985 3.79005 2.26717 3.70559 2.3009 3.62721C2.33462 3.54883 2.38405 3.47818 2.44611 3.41963C2.50818 3.36107 2.58158 3.31585 2.66179 3.28674C2.742 3.25763 2.82733 3.24526 2.9125 3.25038H6.3125C6.4661 3.25037 6.61545 3.30088 6.7375 3.39413L9.2375 5.34413C9.5773 5.60755 9.99506 5.75047 10.425 5.75038H14.475C14.5602 5.74526 14.6455 5.75763 14.7257 5.78674C14.8059 5.81585 14.8793 5.86107 14.9414 5.91963C15.0035 5.97818 15.0529 6.04883 15.0866 6.12721C15.1203 6.20559 15.1377 6.29005 15.1375 6.37538V7.62537H5.1375C4.73259 7.61931 4.3366 7.74449 4.00876 7.98221C3.68091 8.21992 3.43884 8.55739 3.31875 8.94412L2.25 12.3379V3.87538ZM17.25 9.68163L15.4625 15.3066C15.4224 15.4395 15.3392 15.5552 15.226 15.6356C15.1129 15.7159 14.9762 15.7563 14.8375 15.7504H2.9625C2.82154 15.7501 2.68408 15.7064 2.56875 15.6254L4.56875 9.31913C4.60887 9.18626 4.69208 9.07054 4.80524 8.99019C4.9184 8.90984 5.05509 8.86945 5.19375 8.87537H16.5875C16.6928 8.87465 16.7968 8.89857 16.8913 8.94524C16.9857 8.9919 17.0679 9.06001 17.1313 9.14412C17.1908 9.21871 17.2324 9.30593 17.253 9.3991C17.2736 9.49227 17.2726 9.58891 17.25 9.68163Z" fill="#333C4E"/>
</svg>
