<svg width="28" height="28" viewBox="0 0 28 28" fill="none" xmlns="http://www.w3.org/2000/svg">
<path d="M23.4642 4.53573C22.7812 3.8528 21.6789 3.81839 20.9542 4.45784C20.521 4.84099 8.22586 15.7148 7.51082 16.3472C7.38976 16.4543 7.31827 16.6066 7.31331 16.7682C7.30839 16.9298 7.37038 17.0862 7.48468 17.2005L7.89904 17.6149L7.82795 17.686C7.18287 18.331 6.32524 18.6863 5.41296 18.6863C5.13365 18.6863 4.89313 18.8834 4.83836 19.1573L4.01143 23.2978C4.01136 23.2982 4.01132 23.2986 4.01124 23.2989C3.93174 23.7034 4.28579 24.0691 4.70015 23.9875C4.70042 23.9874 4.70065 23.9874 4.70093 23.9873L8.84266 23.1615C9.11654 23.1067 9.3137 22.8663 9.3137 22.587C9.3137 21.6747 9.66895 20.817 10.314 20.172L10.3851 20.1009L10.7994 20.5152C10.9095 20.6253 11.0586 20.6869 11.2138 20.6869C11.2197 20.6869 11.2258 20.6868 11.2317 20.6866C11.3933 20.6816 11.5457 20.6102 11.6527 20.4891L20.7503 10.2024C21.106 10.8384 21.039 11.654 20.5353 12.2249L17.3308 15.8566C17.1167 16.0993 17.1398 16.4696 17.3825 16.6837C17.6257 16.8983 17.996 16.8741 18.2096 16.632L21.4141 13.0003C22.345 11.9452 22.3811 10.3881 21.5534 9.29433L23.5425 7.04526C24.1816 6.321 24.1471 5.2187 23.4642 4.53573ZM12.7433 17.487L10.513 15.2566L18.6775 8.0359L19.964 9.32246L12.7433 17.487ZM9.48535 19.3433C8.73437 20.0943 8.27586 21.0597 8.16699 22.1015L6.36708 22.4615L7.48468 21.3439C7.71353 21.1151 7.71353 20.7441 7.48468 20.5152C7.25588 20.2864 6.88485 20.2864 6.656 20.5152L5.53844 21.6328L5.89842 19.8329C6.94024 19.724 7.90569 19.2655 8.65663 18.5146L8.72773 18.4435L9.55641 19.2721L9.48535 19.3433ZM11.1876 19.246L8.75394 16.8123L9.63348 16.0345L11.9655 18.3665L11.1876 19.246ZM22.6642 6.26935L20.7419 8.44296L19.557 7.25804L21.7301 5.33613C21.9914 5.10561 22.3891 5.118 22.6355 5.36442C22.8819 5.61084 22.8943 6.00856 22.6642 6.26935Z" fill="#333C4E"/>
</svg>
