<svg width="28" height="28" viewBox="0 0 28 28" fill="none" xmlns="http://www.w3.org/2000/svg">
<path d="M21.8375 8.59773C21.8375 8.56627 21.8423 8.53481 21.8423 8.50301C21.8426 8.17091 21.7743 7.84221 21.6418 7.53681C21.5092 7.23142 21.315 6.95568 21.0709 6.7263C20.5749 6.26016 19.9155 6.00006 19.2296 6.00006C18.5438 6.00006 17.8843 6.26016 17.3883 6.7263C17.0251 7.06903 16.7751 7.51143 16.6709 7.99591H12.3648C12.2605 7.51153 12.0107 7.06919 11.6477 6.7263C11.1516 6.26012 10.492 6 9.80608 6C9.12013 6 8.46055 6.26012 7.96444 6.7263C7.72073 6.95609 7.5268 7.23203 7.39432 7.53751C7.26183 7.843 7.19353 8.17171 7.19353 8.50386C7.19353 8.836 7.26183 9.16472 7.39432 9.4702C7.5268 9.77569 7.72073 10.0516 7.96444 10.2814C8.08848 10.3994 8.22412 10.5051 8.36937 10.5967L6.08756 16.0351C5.67401 15.9606 5.24839 15.9837 4.84569 16.1026C4.44298 16.2214 4.07468 16.4326 3.77103 16.7188C3.52729 16.9485 3.33333 17.2244 3.20082 17.5299C3.06831 17.8353 3 18.164 3 18.4962C3 18.8283 3.06831 19.157 3.20082 19.4625C3.33333 19.7679 3.52729 20.0438 3.77103 20.2736C4.26707 20.7396 4.92651 20.9997 5.61233 20.9997C6.29814 20.9997 6.95758 20.7396 7.45362 20.2736C7.69741 20.0438 7.89142 19.7679 8.02396 19.4624C8.1565 19.1569 8.22483 18.8282 8.22483 18.496C8.22483 18.1638 8.1565 17.8351 8.02396 17.5296C7.89142 17.2241 7.69741 16.9482 7.45362 16.7184C7.32963 16.6001 7.19385 16.4944 7.04834 16.4028L9.3305 10.9644C9.48741 10.9922 9.64648 11.0063 9.8059 11.0067C10.4923 11.0097 11.1529 10.7492 11.6474 10.2807C12.0104 9.93766 12.2603 9.49507 12.3644 9.01045H16.6692C16.7735 9.49511 17.0234 9.93771 17.3866 10.2807C17.8827 10.7467 18.5421 11.0067 19.2279 11.0067C19.9137 11.0067 20.5731 10.7467 21.0692 10.2807C21.2746 10.0848 21.4447 9.85601 21.5725 9.60415C22.2914 9.98442 22.8932 10.548 23.3148 11.2358C23.7364 11.9235 23.9623 12.7102 23.9688 13.5135C23.9683 14.0986 23.8492 14.6778 23.6184 15.217C23.3877 15.7563 23.05 16.2449 22.625 16.6542C22.178 17.0897 21.648 17.4342 21.0654 17.6679C20.4829 17.9016 19.8592 18.0199 19.2302 18.0161H19.1844L18.6602 18.0114C18.5591 17.5183 18.3072 17.0673 17.9383 16.7191C17.4422 16.253 16.7827 15.993 16.0969 15.993C15.411 15.993 14.7515 16.253 14.2554 16.7191C14.0117 16.9488 13.8177 17.2248 13.6852 17.5302C13.5527 17.8357 13.4844 18.1644 13.4844 18.4965C13.4844 18.8286 13.5527 19.1573 13.6852 19.4628C13.8177 19.7683 14.0117 20.0442 14.2554 20.2739C14.7514 20.74 15.4109 21 16.0967 21C16.7825 21 17.442 20.74 17.938 20.2739C18.2954 19.9363 18.5431 19.502 18.6499 19.0259L19.1752 19.0307H19.2305C19.9943 19.0345 20.7513 18.89 21.4583 18.6056C22.1653 18.3212 22.8084 17.9023 23.3507 17.373C23.8726 16.87 24.2873 16.2695 24.5705 15.6068C24.8537 14.9441 24.9997 14.2324 25 13.5135C24.992 12.4852 24.6915 11.4796 24.1326 10.6108C23.5736 9.74199 22.7786 9.04462 21.8375 8.59773ZM6.73622 17.4475C6.88075 17.5826 6.99584 17.7453 7.07448 17.9255C7.15312 18.1058 7.19368 18.3 7.19368 18.4962C7.19368 18.6924 7.15312 18.8865 7.07448 19.0668C6.99584 19.2471 6.88075 19.4097 6.73622 19.5449C6.43355 19.8296 6.031 19.9884 5.61233 19.9884C5.19365 19.9884 4.7911 19.8296 4.48843 19.5449C4.3439 19.4097 4.22881 19.2471 4.15017 19.0668C4.07153 18.8865 4.03097 18.6924 4.03097 18.4962C4.03097 18.3 4.07153 18.1058 4.15017 17.9255C4.22881 17.7453 4.3439 17.5826 4.48843 17.4475C4.7913 17.1632 5.19378 17.0046 5.61233 17.0046C6.03087 17.0046 6.43335 17.1632 6.73622 17.4475ZM20.8093 8.50335C20.809 8.6995 20.7683 8.89355 20.6896 9.07379C20.611 9.25403 20.4961 9.41672 20.3518 9.55206C20.0489 9.83628 19.6464 9.99483 19.2279 9.99483C18.8094 9.99483 18.4069 9.83628 18.104 9.55206C17.9595 9.41692 17.8444 9.25426 17.7658 9.07398C17.6871 8.89369 17.6466 8.69955 17.6466 8.50335C17.6466 8.30715 17.6871 8.11301 17.7658 7.93272C17.8444 7.75244 17.9595 7.58978 18.104 7.45464C18.4068 7.17009 18.8094 7.01132 19.2281 7.01132C19.6468 7.01132 20.0494 7.17009 20.3522 7.45464C20.4965 7.58994 20.6114 7.75263 20.69 7.93288C20.7685 8.11314 20.8092 8.30721 20.8093 8.50335ZM11.3872 8.50335C11.387 8.69949 11.3463 8.89355 11.2677 9.0738C11.1892 9.25406 11.0743 9.41675 10.93 9.55206C10.6271 9.83628 10.2246 9.99483 9.80608 9.99483C9.38755 9.99483 8.98509 9.83628 8.68219 9.55206C8.53774 9.41687 8.42273 9.2542 8.34414 9.07392C8.26556 8.89364 8.22503 8.69952 8.22503 8.50335C8.22503 8.30718 8.26556 8.11306 8.34414 7.93278C8.42273 7.7525 8.53774 7.58983 8.68219 7.45464C8.98505 7.17035 9.38753 7.01174 9.80608 7.01174C10.2246 7.01174 10.6271 7.17035 10.93 7.45464C11.0743 7.58991 11.1893 7.75259 11.268 7.93284C11.3466 8.1131 11.3869 8.30718 11.3872 8.50335ZM17.6781 18.4965C17.678 18.6927 17.6373 18.8868 17.5587 19.067C17.48 19.2473 17.365 19.41 17.2206 19.5452C16.9179 19.8299 16.5154 19.9888 16.0967 19.9888C15.678 19.9888 15.2755 19.8299 14.9728 19.5452C14.8283 19.4101 14.7132 19.2474 14.6345 19.0671C14.5559 18.8868 14.5153 18.6927 14.5153 18.4965C14.5153 18.3003 14.5559 18.1062 14.6345 17.9259C14.7132 17.7456 14.8283 17.5829 14.9728 17.4478C15.2757 17.1636 15.6781 17.0051 16.0965 17.0051C16.515 17.0051 16.9174 17.1636 17.2202 17.4478C17.3646 17.5831 17.4797 17.7457 17.5584 17.926C17.6371 18.1062 17.6778 18.3003 17.6781 18.4965Z" fill="#333C4E" stroke="#333C4E" stroke-width="0.2"/>
</svg>
