<svg width="28" height="28" viewBox="0 0 28 28" fill="none" xmlns="http://www.w3.org/2000/svg">
<path d="M22.0233 23.3969H4.81248C4.42733 23.3969 4.11475 23.0844 4.11475 22.6992C4.11475 22.314 4.42733 22.0015 4.81248 22.0015H22.0233C22.4085 22.0015 22.7211 22.314 22.7211 22.6992C22.7211 23.0844 22.4085 23.3969 22.0233 23.3969Z" fill="#333C4E"/>
<path d="M14.6626 19.8379C14.4784 19.8379 14.2998 19.7643 14.1694 19.6331L8.24892 13.7126C8.11315 13.5768 8.03786 13.389 8.04433 13.1963C8.05183 13.0028 8.13734 12.8214 8.28247 12.6939L17.4973 4.63099C18.5076 3.74707 20.0407 3.79732 20.9914 4.74717L23.1349 6.88977C24.0847 7.83859 24.135 9.37272 23.2512 10.383L15.1883 19.5987C15.0607 19.7439 14.8793 19.8304 14.6868 19.8369C14.6774 19.8379 14.6701 19.8379 14.6626 19.8379ZM9.7626 13.254L14.6282 18.1194L22.2 9.46573C22.6019 9.00614 22.5785 8.30841 22.1469 7.87675L20.0044 5.73432C19.5736 5.30266 18.8759 5.27933 18.4163 5.68117L9.7626 13.254Z" fill="#333C4E"/>
<path d="M11.7023 20.8248C11.5217 20.8248 11.3422 20.7541 11.2092 20.6202L7.26191 16.6728C7.04881 16.4607 6.99669 16.136 7.13075 15.8672L8.44615 13.2352C8.61923 12.8911 9.03793 12.7525 9.38203 12.9237C9.72732 13.0957 9.86683 13.5153 9.69462 13.8595L8.60338 16.0411L11.8399 19.2767L14.0216 18.1865C14.3667 18.0143 14.7844 18.1539 14.9574 18.498C15.1305 18.8432 14.99 19.2619 14.6449 19.4339L12.0139 20.7495C11.9154 20.8006 11.8093 20.8248 11.7023 20.8248Z" fill="#333C4E"/>
<path d="M9.35222 21.209H5.39834C5.11642 21.209 4.86243 21.0386 4.7546 20.779C4.6466 20.5186 4.7052 20.2181 4.90434 20.0191L8.24413 16.6699C8.51583 16.3982 8.95771 16.3964 9.23128 16.6689C9.50468 16.9415 9.50468 17.3835 9.23315 17.6561L7.07948 19.8135H9.06383L10.2266 18.6505C10.4992 18.378 10.9412 18.378 11.2138 18.6505C11.4863 18.9222 11.4863 19.365 11.2138 19.6375L9.84623 21.0052C9.71506 21.1354 9.53722 21.209 9.35222 21.209Z" fill="#333C4E"/>
<path d="M1 26.8V23.4828C1 23.3047 1.21543 23.2154 1.34142 23.3414L4.65858 26.6586C4.78457 26.7846 4.69534 27 4.51716 27H1.2C1.08954 27 1 26.9105 1 26.8Z" fill="#333C4E"/>
</svg>
