<svg width="20" height="20" viewBox="0 0 20 20" fill="none" xmlns="http://www.w3.org/2000/svg">
<path d="M9.9333 4.59706C10.2201 4.59706 10.4525 4.36459 10.4525 4.07783C10.4525 3.79106 10.2201 3.55859 9.9333 3.55859C9.64653 3.55859 9.41406 3.79106 9.41406 4.07783C9.41406 4.36459 9.64653 4.59706 9.9333 4.59706Z" fill="#333C4E"/>
<path d="M17 5.69229C17 5.01255 16.3732 4.46151 15.6 4.46151H13.6565C13.3972 4.20832 13.0642 4.01459 12.6815 3.91782C12.3592 3.83636 12.1112 3.61828 12.0184 3.33493C11.7662 2.564 10.958 2 9.99996 2C9.04192 2 8.23377 2.56396 7.98159 3.33485C7.88876 3.61855 7.64008 3.83636 7.31738 3.91812C6.93518 4.01497 6.60246 4.20851 6.34342 4.46151H4.4C3.62676 4.46151 3 5.01255 3 5.69229V16.7692C3 17.449 3.62676 18 4.4 18C7.61414 18 11.5644 18 15.6 18C16.3732 18 17 17.449 17 16.7692C17 13.2739 17 9.92681 17 5.69229ZM6.50004 5.68236C6.50486 5.14136 6.92066 4.65905 7.51124 4.50944C8.0673 4.36859 8.49461 3.99305 8.65429 3.50497C8.82566 2.98116 9.37901 2.61539 9.99996 2.61539C10.6209 2.61539 11.1743 2.98116 11.3456 3.50501C11.5054 3.99339 11.9324 4.36882 12.488 4.50924C13.0838 4.6599 13.4999 5.1464 13.4999 5.69225C13.4999 6.03212 13.2244 6.30764 12.8845 6.30764H7.12532C6.77999 6.30764 6.50004 6.02769 6.50004 5.68236ZM15.6 17.3846C11.8613 17.3846 8.12881 17.3846 4.4 17.3846C4.01399 17.3846 3.7 17.1085 3.7 16.7692V5.69229C3.7 5.35298 4.01399 5.0769 4.4 5.0769H5.91996C5.84427 5.26505 5.80192 5.46702 5.80009 5.67756C5.80009 6.36543 6.35772 6.92306 7.04559 6.92306H12.9692C13.649 6.92306 14.2 6.37203 14.2 5.69229C14.2 5.47632 14.1566 5.26955 14.0791 5.0769H15.6C15.986 5.0769 16.3 5.35298 16.3 5.69229C16.3 7.45164 16.2999 15.7021 16.3 16.7692C16.3 17.1085 15.986 17.3846 15.6 17.3846Z" fill="#333C4E" stroke="#333C4E" stroke-width="0.4"/>
</svg>
