<svg width="28" height="28" viewBox="0 0 28 28" fill="none" xmlns="http://www.w3.org/2000/svg">
<path d="M21.7034 4.80508C20.6282 3.73164 18.887 3.73164 17.8118 4.80508L16.8376 5.78468L6.46763 16.1501L6.44559 16.1723C6.44025 16.1777 6.44025 16.1833 6.43457 16.1833C6.42355 16.1999 6.40702 16.2162 6.39618 16.2328C6.39618 16.2383 6.39049 16.2383 6.39049 16.2438C6.37948 16.2603 6.37414 16.2713 6.36295 16.2879C6.35761 16.2934 6.35761 16.2987 6.3521 16.3044C6.34659 16.3209 6.34108 16.3319 6.3354 16.3485C6.3354 16.3538 6.33006 16.3538 6.33006 16.3595L4.02928 23.2789C3.96179 23.4758 4.0131 23.694 4.16134 23.8402C4.2655 23.943 4.406 24.0005 4.55218 24C4.61192 23.999 4.67115 23.9897 4.72831 23.9724L11.6417 21.6659C11.647 21.6659 11.647 21.6659 11.6527 21.6606C11.6701 21.6554 11.6868 21.648 11.7021 21.6384C11.7064 21.6379 11.7102 21.636 11.7133 21.633C11.7297 21.622 11.7517 21.6108 11.7682 21.5998C11.7846 21.589 11.8013 21.5724 11.8178 21.5614C11.8233 21.5557 11.8287 21.5557 11.8287 21.5504C11.8343 21.5449 11.8454 21.5395 11.8509 21.5284L23.195 10.1832C24.2683 9.10781 24.2683 7.36644 23.195 6.29127L21.7034 4.80508ZM11.4655 20.3723L7.63463 16.5412L17.2229 6.95197L21.0538 10.7831L11.4655 20.3723ZM7.09504 17.5595L10.4418 20.9064L5.41633 22.5798L7.09504 17.5595ZM22.419 9.41242L21.8355 10.0015L18.0044 6.17005L18.5936 5.58115C19.2381 4.93715 20.2826 4.93715 20.9273 5.58115L22.4243 7.07836C23.064 7.7258 23.0616 8.76808 22.419 9.41242Z" fill="#333C4E" stroke="#333C4E" stroke-width="0.2"/>
</svg>
