<svg width="20" height="20" viewBox="0 0 20 20" fill="none" xmlns="http://www.w3.org/2000/svg">
<path d="M15.1339 2H3.875C2.84113 2 2 2.84113 2 3.875V16.125C2 17.1589 2.84113 18 3.875 18H16.125C17.1589 18 18 17.1589 18 16.125V4.86613L15.1339 2ZM6.90625 3.25H10.625V5.625H11.875V3.25H13.125V6.25C13.125 6.59462 12.8446 6.875 12.5 6.875H7.53125C7.18663 6.875 6.90625 6.59462 6.90625 6.25V3.25ZM14.375 16.75H5.65625V11.25C5.65625 10.9054 5.93663 10.625 6.28125 10.625H13.75C14.0946 10.625 14.375 10.9054 14.375 11.25V16.75ZM16.75 16.125C16.75 16.4696 16.4696 16.75 16.125 16.75H15.625V11.25C15.625 10.2161 14.7839 9.375 13.75 9.375H6.28125C5.24738 9.375 4.40625 10.2161 4.40625 11.25V16.75H3.875C3.53038 16.75 3.25 16.4696 3.25 16.125V3.875C3.25 3.53038 3.53038 3.25 3.875 3.25H5.65625V6.25C5.65625 7.28387 6.49738 8.125 7.53125 8.125H12.5C13.5339 8.125 14.375 7.28387 14.375 6.25V3.25H14.6161L16.75 5.38387V16.125Z" fill="#333C4E"/>
</svg>
