<svg width="28" height="28" viewBox="0 0 28 28" fill="none" xmlns="http://www.w3.org/2000/svg">
<path d="M6.82813 8.21875H15.2812C15.5859 8.21875 15.832 7.97266 15.832 7.66797C15.832 7.36328 15.5859 7.11719 15.2812 7.11719H6.82813C6.52344 7.11719 6.27734 7.36328 6.27734 7.66797C6.27734 7.97266 6.52344 8.21875 6.82813 8.21875Z" fill="#333C4E"/>
<path d="M6.82813 11.375H13.4805C13.7852 11.375 14.0312 11.1289 14.0312 10.8242C14.0312 10.5195 13.7852 10.2734 13.4805 10.2734H6.82813C6.52344 10.2734 6.27734 10.5195 6.27734 10.8242C6.27734 11.1289 6.52344 11.375 6.82813 11.375Z" fill="#333C4E"/>
<path d="M10.5859 13.4297H6.82813C6.52344 13.4297 6.27734 13.6758 6.27734 13.9805C6.27734 14.2852 6.52344 14.5313 6.82813 14.5313H10.5859C10.8906 14.5313 11.1367 14.2852 11.1367 13.9805C11.1367 13.6758 10.8906 13.4297 10.5859 13.4297Z" fill="#333C4E"/>
<path d="M23.3984 21.0625L20.7422 18.4062C21.0156 17.8086 21.168 17.1484 21.168 16.4492C21.168 14.4023 19.8555 12.6602 18.0273 12.0117V5.72656C18.0273 4.81641 17.2852 4.07812 16.375 4.07812H5.73047C4.82031 4.07812 4.07812 4.81641 4.07812 5.72656V16.7422C4.07812 17.1836 4.25 17.5977 4.5625 17.9102L7.21094 20.5625C7.52344 20.875 7.9375 21.0469 8.37891 21.0469H15.3945C15.7344 21.125 16.0898 21.1719 16.4531 21.1719C17.1523 21.1719 17.8086 21.0156 18.4063 20.7422L21.0664 23.4023C21.7188 24.0547 22.6523 24.1484 23.3984 23.4023C24.1133 22.6836 24.0781 21.7422 23.3984 21.0625ZM7.37109 19.168L5.95703 17.75H7.375V19.168H7.37109ZM8.47266 19.9453V17.1992C8.47266 16.8945 8.22656 16.6484 7.92188 16.6484H5.17969V5.72656C5.17969 5.42188 5.42578 5.17578 5.73047 5.17578H16.3828C16.6875 5.17578 16.9336 5.42188 16.9336 5.72656V11.7578C16.7773 11.7422 16.6172 11.7344 16.457 11.7344C13.8555 11.7344 11.7383 13.8516 11.7383 16.4492C11.7383 17.8359 12.3438 19.0781 13.2969 19.9414H8.47266V19.9453ZM16.4531 20.0664C14.457 20.0664 12.8359 18.4453 12.8359 16.4492C12.8359 14.4531 14.457 12.832 16.4531 12.832C18.4492 12.832 20.0703 14.4531 20.0703 16.4492C20.0703 18.4453 18.4492 20.0664 16.4531 20.0664ZM22.6211 22.6172C22.4141 22.8242 22.0508 22.8242 21.8438 22.6172L19.375 20.1484C19.6641 19.9219 19.9258 19.6602 20.1523 19.3711L22.6211 21.8398C22.8477 22.0664 22.8398 22.4023 22.6211 22.6172Z" fill="#333C4E"/>
</svg>
