<svg width="28" height="28" viewBox="0 0 28 28" fill="none" xmlns="http://www.w3.org/2000/svg">
<path d="M21.652 6.34941C20.1363 4.83445 18.1218 4 15.979 4C13.8362 4 11.822 4.83445 10.3074 6.34941C7.18008 9.47816 7.18008 14.5677 10.3074 17.695C11.8224 19.21 13.8366 20.0445 15.9794 20.0445C18.1218 20.0445 20.1367 19.21 21.652 17.695C24.7797 14.5677 24.7797 9.47816 21.652 6.34941ZM20.7468 16.7895C19.4735 18.0632 17.7803 18.7645 15.9793 18.7645C14.1787 18.7645 12.4859 18.0632 11.2126 16.7895C8.5841 14.1611 8.5841 9.88379 11.2126 7.25461C12.4856 5.98094 14.1784 5.27996 15.979 5.27996C17.78 5.27996 19.4732 5.98164 20.7468 7.25461C23.3757 9.88375 23.3757 14.1614 20.7468 16.7895Z" fill="#333C4E"/>
<path d="M10.4605 19.2571L7.34074 22.3779C6.90047 22.8189 6.11766 22.8171 5.67879 22.379L5.62402 22.3239C5.40355 22.1034 5.28152 21.808 5.28152 21.4925C5.28152 21.1767 5.4032 20.8817 5.62437 20.6605L8.74516 17.5404C8.99512 17.2908 8.99512 16.8855 8.74516 16.6353C8.49555 16.3853 8.09062 16.3853 7.84 16.6353L4.71922 19.7553C4.25641 20.2181 4.00195 20.8355 4.00195 21.4928C4.00195 22.1502 4.25676 22.7672 4.71785 23.228L4.77262 23.2831C5.23539 23.7455 5.8525 24 6.51012 24C7.16844 24 7.7852 23.7452 8.24625 23.2824L11.3656 20.1623C11.6156 19.9123 11.6156 19.5071 11.3656 19.2571C11.1154 19.0072 10.7104 19.0072 10.4605 19.2571Z" fill="#333C4E"/>
<path d="M21.1474 11.1769C20.7938 11.1769 20.5074 11.4632 20.5074 11.8168C20.5074 12.0605 20.3088 12.2588 20.0647 12.2588C19.8214 12.2588 19.6234 12.0605 19.6234 11.8168C19.6234 11.5731 19.8214 11.3748 20.0647 11.3748C20.4183 11.3748 20.7047 11.0885 20.7047 10.7349C20.7047 10.3813 20.4183 10.0949 20.0647 10.0949C19.3416 10.0949 18.7217 10.5435 18.4672 11.1769H13.886C13.8981 11.158 13.9103 11.1393 13.9223 11.12L14.4678 10.2471C14.6207 10.2917 14.7821 10.3161 14.9492 10.3161C15.8991 10.3161 16.6718 9.54371 16.6718 8.59418C16.6718 8.24058 16.3855 7.95422 16.0319 7.95422C15.6783 7.95422 15.3919 8.24058 15.3919 8.59418C15.3919 8.83789 15.1933 9.03617 14.9492 9.03617C14.8526 9.03617 14.7634 9.00453 14.6906 8.95156C14.6713 8.93234 14.6508 8.91398 14.6287 8.89703C14.554 8.81781 14.5079 8.71136 14.5079 8.59414C14.5079 8.35043 14.7059 8.15179 14.9492 8.15179C15.3028 8.15179 15.5892 7.86543 15.5892 7.51183C15.5892 7.15824 15.3028 6.87187 14.9492 6.87187C14 6.87187 13.228 7.64461 13.228 8.59414C13.228 8.90554 13.3114 9.19765 13.4565 9.44996L12.8369 10.4416C12.5821 10.8491 12.372 11.0459 12.0341 11.1276C11.7021 10.8845 11.192 10.9093 10.8976 11.2036C10.7347 11.363 10.6445 11.5884 10.6445 11.8175C10.6445 12.0466 10.7343 12.2682 10.8976 12.4311C11.0571 12.5903 11.2824 12.6842 11.5112 12.6842C11.727 12.6842 11.9361 12.5998 12.0956 12.4568H14.666C15.3548 12.4568 15.6277 12.6079 15.9927 13.1928L16.6918 14.3112C16.6825 14.362 16.677 14.4136 16.677 14.4657C16.677 14.6949 16.7703 14.9164 16.9298 15.0797C17.0927 15.2388 17.3149 15.3324 17.5437 15.3324C17.7722 15.3324 17.994 15.2392 18.157 15.0797C18.3161 14.9164 18.4101 14.6945 18.4101 14.4657C18.4101 14.2404 18.3165 14.0151 18.157 13.8521C18.0534 13.7485 17.9229 13.6786 17.7829 13.6415L17.0782 12.5143C17.066 12.4948 17.0537 12.4759 17.0414 12.4568H18.4673C18.7217 13.0902 19.3416 13.5387 20.0648 13.5387C21.0146 13.5387 21.7874 12.7664 21.7874 11.8168C21.7873 11.4632 21.501 11.1769 21.1474 11.1769Z" fill="#333C4E"/>
<path d="M14.1019 13.8261H12.0952C11.7654 13.5306 11.2108 13.5386 10.8976 13.8522C10.7347 14.0151 10.6445 14.2366 10.6445 14.4657C10.6445 14.6949 10.7343 14.9164 10.8976 15.0797C11.0571 15.2388 11.2824 15.3324 11.5112 15.3324C11.7238 15.3324 11.935 15.2489 12.0948 15.1061H14.102C14.2593 15.2486 14.4713 15.3324 14.6868 15.3324C14.9155 15.3324 15.1374 15.2392 15.2966 15.0797C15.4591 14.9164 15.5531 14.6949 15.5531 14.4657C15.5531 14.2366 15.4595 14.0151 15.2966 13.8522C14.9868 13.5386 14.4294 13.5306 14.1019 13.8261Z" fill="#333C4E"/>
</svg>
