<svg width="20" height="20" viewBox="0 0 20 20" fill="none" xmlns="http://www.w3.org/2000/svg">
<path d="M9.5 11.546L4.27011 16.7759C4.12069 16.9253 3.94636 17 3.74713 17C3.54789 17 3.37356 16.9253 3.22414 16.7759C3.07471 16.6264 3 16.4521 3 16.2529C3 16.0536 3.07471 15.8793 3.22414 15.7299L8.45402 10.5L3.22414 5.27011C3.07471 5.12069 3 4.94636 3 4.74713C3 4.54789 3.07471 4.37356 3.22414 4.22414C3.37356 4.07471 3.54789 4 3.74713 4C3.94636 4 4.12069 4.07471 4.27011 4.22414L9.5 9.45402L14.7299 4.22414C14.8793 4.07471 15.0536 4 15.2529 4C15.4521 4 15.6264 4.07471 15.7759 4.22414C15.9253 4.37356 16 4.54789 16 4.74713C16 4.94636 15.9253 5.12069 15.7759 5.27011L10.546 10.5L15.7759 15.7299C15.9253 15.8793 16 16.0536 16 16.2529C16 16.4521 15.9253 16.6264 15.7759 16.7759C15.6264 16.9253 15.4521 17 15.2529 17C15.0536 17 14.8793 16.9253 14.7299 16.7759L9.5 11.546Z" fill="#333C4E"/>
</svg>
