<svg width="28" height="28" viewBox="0 0 28 28" fill="none" xmlns="http://www.w3.org/2000/svg">
<path d="M21.7081 24H12.9581C11.6939 24 10.6665 22.9725 10.6665 21.7083V12.9583C10.6665 11.6941 11.6939 10.6667 12.9581 10.6667H21.7081C22.9723 10.6667 23.9998 11.6941 23.9998 12.9583V21.7083C23.9998 22.9725 22.9723 24 21.7081 24ZM12.9581 11.9167C12.3839 11.9167 11.9165 12.3841 11.9165 12.9583V21.7083C11.9165 22.2825 12.3839 22.75 12.9581 22.75H21.7081C22.2823 22.75 22.7498 22.2825 22.7498 21.7083V12.9583C22.7498 12.3841 22.2823 11.9167 21.7081 11.9167H12.9581Z" fill="#333C4E"/>
<path d="M11.2917 18.9914C11.2858 18.9914 11.2792 18.9914 11.2742 18.9914C7.19504 18.8722 4 15.5806 4 11.4998C4 7.36478 7.36411 3.99976 11.5 3.99976C15.5817 3.99976 18.8724 7.19479 18.9916 11.2732C19.0017 11.6182 18.7301 11.9064 18.3842 11.9156C18.0524 11.943 17.7508 11.6539 17.7416 11.3089C17.6424 7.91135 14.9009 5.24976 11.5 5.24976C8.05334 5.24976 5.25 8.0531 5.25 11.4998C5.25 14.9006 7.91159 17.6422 11.3091 17.7423C11.6541 17.7522 11.9259 18.0398 11.9167 18.3848C11.9059 18.7239 11.6283 18.9914 11.2917 18.9914Z" fill="#333C4E"/>
<path d="M1 26.8V23.4828C1 23.3047 1.21543 23.2154 1.34142 23.3414L4.65858 26.6586C4.78457 26.7846 4.69534 27 4.51716 27H1.2C1.08954 27 1 26.9105 1 26.8Z" fill="#333C4E"/>
</svg>
