<svg width="20" height="20" viewBox="0 0 20 20" fill="none" xmlns="http://www.w3.org/2000/svg">
<path d="M5.41699 13.709L15.3545 3.77148C15.4795 3.64648 15.6253 3.58398 15.792 3.58398C15.9587 3.58398 16.1045 3.64648 16.2295 3.77148C16.3545 3.89648 16.417 4.04232 16.417 4.20898C16.417 4.37565 16.3545 4.52148 16.2295 4.64648L6.29199 14.584H11.792C11.9691 14.584 12.1175 14.6442 12.2373 14.7647C12.3571 14.8852 12.417 15.0345 12.417 15.2126C12.417 15.3908 12.3571 15.5388 12.2373 15.6569C12.1175 15.775 11.9691 15.834 11.792 15.834H4.79199C4.61491 15.834 4.46647 15.7741 4.34668 15.6543C4.22689 15.5345 4.16699 15.3861 4.16699 15.209V8.20898C4.16699 8.0319 4.22723 7.88346 4.34772 7.76367C4.46822 7.64388 4.61753 7.58398 4.79564 7.58398C4.97376 7.58398 5.12185 7.64388 5.23991 7.76367C5.35796 7.88346 5.41699 8.0319 5.41699 8.20898V13.709Z" fill="#333C4E"/>
</svg>
