<svg width="18" height="18" viewBox="0 0 18 18" fill="none" xmlns="http://www.w3.org/2000/svg">
<g clip-path="url(#clip0_2118_42638)">
<path d="M5.48075 14.642L5.46784 8.88322C5.52594 6.98638 7.08711 5.46209 8.99778 5.46209C10.9085 5.46209 12.4696 6.9873 12.5277 8.88322V14.641H16.5316V8.99388C16.5316 4.83965 13.1511 1.46094 8.9987 1.46094C4.84355 1.46094 1.46484 4.84057 1.46484 8.99388V14.642H5.48075Z" stroke="#333C4E" stroke-width="1.2" stroke-miterlimit="10"/>
<path d="M1.4668 14.7027V15.6248C1.4668 16.1459 1.89006 16.5682 2.41014 16.5682H4.67215C5.12768 16.5682 5.49838 16.1459 5.49838 15.6248L5.47994 14.6667" stroke="#333C4E" stroke-width="1.2" stroke-miterlimit="10"/>
<path d="M12.5254 14.3706L12.5257 15.6506C12.5257 16.1725 12.9719 16.5939 13.492 16.5939H15.754C16.2095 16.5939 16.5408 16.1716 16.5408 15.6506V14.5576" stroke="#333C4E" stroke-width="1.2" stroke-miterlimit="10"/>
</g>
<defs>
<clipPath id="clip0_2118_42638">
<rect width="18" height="18" fill="white"/>
</clipPath>
</defs>
</svg>
