<svg width="18" height="18" viewBox="0 0 18 18" fill="none" xmlns="http://www.w3.org/2000/svg">
<path d="M1.79869 10.8453C1.65563 11.4024 1.60248 11.9925 1.64263 12.578C1.68278 13.1636 1.81534 13.7317 2.03186 14.2461C2.4819 15.3257 3.22754 16.1398 4.1175 16.5233C4.63137 16.7576 5.17841 16.8391 5.71914 16.7618C6.25988 16.6845 6.78081 16.4504 7.24434 16.0764C7.90609 16.662 8.68287 16.9829 9.48057 17C10.1436 16.9968 10.793 16.7531 11.3573 16.2956C11.5585 16.4447 11.77 16.5687 11.9888 16.6659C13.8526 17.5022 15.8573 16.3041 16.4435 14.0035C16.611 13.3446 16.6543 12.6421 16.5697 11.9563C16.485 11.2706 16.275 10.622 15.9577 10.0664C16.0084 10.0068 16.057 9.94512 16.1034 9.88127C16.1455 9.82381 16.1844 9.76848 16.2233 9.70889C16.493 9.30285 16.6998 8.83151 16.8321 8.32133C16.9749 7.76323 17.0275 7.17211 16.9865 6.58578C16.9455 5.99944 16.8119 5.43081 16.5941 4.91626C16.3522 4.34177 16.0253 3.83665 15.6327 3.43062C15.2401 3.02459 14.7897 2.72584 14.308 2.55194C13.8262 2.37804 13.3229 2.33251 12.8276 2.41801C12.3322 2.50352 11.8549 2.71835 11.4237 3.04985C10.9672 2.21401 10.3218 1.5885 9.57934 1.26219C7.96977 0.544997 6.21123 1.34306 5.39997 3.12008C3.60419 2.47737 1.73068 3.66915 1.16393 5.86968C0.973557 6.63297 0.948459 7.45082 1.09144 8.23178C1.23442 9.01275 1.53984 9.72607 1.97357 10.292C1.90614 10.4712 1.84772 10.6561 1.79869 10.8453ZM1.62542 6.07398C2.12578 4.12671 3.8406 3.10731 5.44855 3.80322C5.50345 3.8268 5.56294 3.8239 5.61636 3.79504C5.66977 3.76618 5.71362 3.71325 5.74002 3.64574C6.38773 1.98577 7.97625 1.21963 9.43037 1.86659C10.1473 2.1845 10.7568 2.82224 11.1533 3.66915C11.1712 3.70672 11.1948 3.73899 11.2227 3.7639C11.2505 3.78882 11.2821 3.80583 11.3152 3.81386C11.3479 3.82281 11.3816 3.82271 11.4142 3.81354C11.4468 3.80438 11.4776 3.78637 11.5047 3.76066C11.9145 3.38625 12.3857 3.14426 12.8801 3.0544C13.3745 2.96454 13.878 3.02933 14.3497 3.24352C15.1216 3.57842 15.768 4.28576 16.1585 5.22271C16.3439 5.6595 16.4579 6.14231 16.4934 6.6403C16.5288 7.1383 16.4848 7.64052 16.3641 8.11489C16.2168 8.68804 15.9591 9.20127 15.616 9.60461C15.5675 9.6642 15.5156 9.71953 15.4638 9.77487C15.4385 9.80052 15.4172 9.83255 15.4014 9.86909C15.3856 9.90562 15.3754 9.94594 15.3715 9.98768C15.368 10.0304 15.3712 10.0736 15.381 10.1146C15.3907 10.1556 15.4068 10.1936 15.4282 10.226C15.7489 10.707 15.9692 11.289 16.0677 11.9152C16.1662 12.5415 16.1394 13.1906 15.9901 13.7992C15.4832 15.7657 13.7571 16.7787 12.1394 16.0615C11.9053 15.9523 11.681 15.8096 11.4707 15.6358C11.4312 15.602 11.385 15.5839 11.3379 15.5839C11.2907 15.5839 11.2446 15.602 11.2051 15.6358C10.6788 16.1423 9.25063 17.0915 7.3755 15.4294C7.33575 15.3925 7.28813 15.3731 7.23948 15.3741C7.18969 15.3742 7.1411 15.3942 7.10022 15.4315C6.69046 15.7976 6.22112 16.0324 5.72984 16.117C5.23857 16.2017 4.73904 16.1338 4.27133 15.9189C3.50003 15.5848 2.85409 14.8781 2.46421 13.9418C2.27974 13.5046 2.16623 13.0218 2.13083 12.524C2.09544 12.0263 2.13893 11.5242 2.25856 11.0496C2.31776 10.822 2.39482 10.603 2.4885 10.3963C2.5162 10.3339 2.52696 10.2609 2.51902 10.1894C2.51108 10.1179 2.48491 10.052 2.44478 10.0026C1.58656 8.94701 1.27242 7.44239 1.62542 6.07398Z" fill="#333C4E" stroke="#333C4E" stroke-width="0.6"/>
</svg>
