<svg width="20" height="20" viewBox="0 0 20 20" fill="none" xmlns="http://www.w3.org/2000/svg">
<path d="M10.0003 18.3327C8.86144 18.3327 7.78505 18.1139 6.77116 17.6764C5.75727 17.2389 4.87185 16.6417 4.11491 15.8848C3.35796 15.1278 2.76074 14.2424 2.32324 13.2285C1.88574 12.2146 1.66699 11.1382 1.66699 9.99935C1.66699 8.84657 1.88574 7.76324 2.32324 6.74935C2.76074 5.73546 3.35796 4.85352 4.11491 4.10352C4.87185 3.35352 5.75727 2.75977 6.77116 2.32227C7.78505 1.88477 8.86144 1.66602 10.0003 1.66602C11.1531 1.66602 12.2364 1.88477 13.2503 2.32227C14.2642 2.75977 15.1462 3.35352 15.8962 4.10352C16.6462 4.85352 17.2399 5.73546 17.6774 6.74935C18.1149 7.76324 18.3337 8.84657 18.3337 9.99935C18.3337 11.1382 18.1149 12.2146 17.6774 13.2285C17.2399 14.2424 16.6462 15.1278 15.8962 15.8848C15.1462 16.6417 14.2642 17.2389 13.2503 17.6764C12.2364 18.1139 11.1531 18.3327 10.0003 18.3327ZM10.0003 17.0827C11.9725 17.0827 13.6462 16.3917 15.0212 15.0098C16.3962 13.6278 17.0837 11.9577 17.0837 9.99935C17.0837 8.02713 16.3962 6.35352 15.0212 4.97852C13.6462 3.60352 11.9725 2.91602 10.0003 2.91602C8.04199 2.91602 6.37185 3.60352 4.98991 4.97852C3.60796 6.35352 2.91699 8.02713 2.91699 9.99935C2.91699 11.9577 3.60796 13.6278 4.98991 15.0098C6.37185 16.3917 8.04199 17.0827 10.0003 17.0827Z" fill="#333C4E"/>
</svg>
