<svg width="20" height="20" viewBox="0 0 20 20" fill="none" xmlns="http://www.w3.org/2000/svg">
<path fill-rule="evenodd" clip-rule="evenodd" d="M9.50002 11.4268C8.66897 11.3796 7.87412 11.2135 7.11547 10.9286L6.05878 12.9589C5.9313 13.2039 5.62937 13.2991 5.38442 13.1716C5.13947 13.0441 5.04424 12.7422 5.17172 12.4973L6.20147 10.5187C6.01258 10.4196 5.82611 10.3126 5.64207 10.1976C5.17025 9.9027 4.73715 9.57076 4.34278 9.20172L2.81494 10.4407C2.60046 10.6146 2.28559 10.5817 2.11166 10.3672C1.93773 10.1528 1.97061 9.83789 2.18509 9.66396L3.65408 8.47272C3.24144 7.97828 2.88377 7.43118 2.58106 6.83144C2.55258 6.7772 2.53195 6.71647 2.51918 6.64925C2.5064 6.58205 2.50002 6.5126 2.50002 6.4409C2.50002 6.36921 2.5064 6.29976 2.51918 6.23256C2.52398 6.20729 2.52989 6.18293 2.53691 6.1595C2.55847 6.08755 2.62247 6.03955 2.69514 6.02058C2.87325 5.97409 3.05974 6.05761 3.14365 6.22145L3.25605 6.4409C3.89468 7.73578 4.8175 8.76462 6.02452 9.52744C7.23153 10.2903 8.5567 10.6717 10 10.6717C11.4433 10.6717 12.7685 10.2903 13.9755 9.52744C15.1825 8.76462 16.1053 7.73578 16.744 6.4409L16.8488 6.23615C16.9372 6.06372 17.1334 5.97582 17.3209 6.02476C17.3834 6.04107 17.4381 6.08233 17.4582 6.1437C17.4674 6.17194 17.475 6.20156 17.4809 6.23256C17.4936 6.29976 17.5 6.36921 17.5 6.4409C17.5 6.5126 17.4936 6.58205 17.4809 6.64925C17.4681 6.71647 17.4475 6.7772 17.419 6.83144C17.1162 7.43118 16.7586 7.97827 16.3459 8.47271L17.8149 9.66396C18.0294 9.83789 18.0623 10.1528 17.8884 10.3672C17.7144 10.5817 17.3996 10.6146 17.1851 10.4407L15.6572 9.20171C15.2629 9.57075 14.8298 9.9027 14.3579 10.1976C14.174 10.3125 13.9876 10.4195 13.7987 10.5185L14.8286 12.4973C14.956 12.7422 14.8608 13.0441 14.6159 13.1716C14.3709 13.2991 14.069 13.2039 13.9415 12.9589L12.8848 10.9285C12.1261 11.2134 11.3311 11.3796 10.5 11.4268V13.4937C10.5 13.7699 10.2762 13.9937 10 13.9937C9.72387 13.9937 9.50002 13.7699 9.50002 13.4937V11.4268Z" fill="#333C4E"/>
</svg>
