<svg width="20" height="20" viewBox="0 0 20 20" fill="none" xmlns="http://www.w3.org/2000/svg">
<path d="M10.5035 12.8107C11.2822 12.8107 11.9431 12.5371 12.4859 11.9899C13.0287 11.4427 13.3002 10.7782 13.3002 9.99652C13.3002 9.21481 13.0276 8.55153 12.4824 8.00665C11.9373 7.46178 11.2753 7.18935 10.4965 7.18935C9.71774 7.18935 9.05692 7.46294 8.51409 8.01013C7.97125 8.55733 7.69983 9.22178 7.69983 10.0035C7.69983 10.7852 7.9724 11.4485 8.51755 11.9933C9.0627 12.5382 9.72467 12.8107 10.5035 12.8107ZM10.5 15C8.9211 15 7.46845 14.5856 6.14205 13.7567C4.81566 12.9278 3.79533 11.8057 3.08104 10.3905C3.05256 10.3363 3.03193 10.2756 3.01916 10.2083C3.00639 10.1411 3 10.0717 3 10C3 9.92831 3.00639 9.85886 3.01916 9.79165C3.03193 9.72444 3.05256 9.66371 3.08104 9.60946C3.79533 8.19428 4.81566 7.07224 6.14205 6.24335C7.46845 5.41445 8.9211 5 10.5 5C12.0789 5 13.5315 5.41445 14.8579 6.24335C16.1843 7.07224 17.2047 8.19428 17.9189 9.60946C17.9474 9.66371 17.9681 9.72444 17.9808 9.79165C17.9936 9.85886 18 9.92831 18 10C18 10.0717 17.9936 10.1411 17.9808 10.2083C17.9681 10.2756 17.9474 10.3363 17.9189 10.3905C17.2047 11.8057 16.1843 12.9278 14.8579 13.7567C13.5315 14.5856 12.0789 15 10.5 15ZM10.5 14.2308C11.9433 14.2308 13.2685 13.8494 14.4755 13.0865C15.6825 12.3237 16.6053 11.2949 17.2439 10C16.6053 8.70513 15.6825 7.67628 14.4755 6.91346C13.2685 6.15064 11.9433 5.76923 10.5 5.76923C9.05668 5.76923 7.73152 6.15064 6.5245 6.91346C5.31749 7.67628 4.39466 8.70513 3.75603 10C4.39466 11.2949 5.31749 12.3237 6.5245 13.0865C7.73152 13.8494 9.05668 14.2308 10.5 14.2308Z" fill="#333C4E" stroke="#333C4E" stroke-width="0.3"/>
</svg>
