<svg width="148" height="42" viewBox="0 0 148 42" fill="none" xmlns="http://www.w3.org/2000/svg">
<rect x="0.5" y="0.5" width="147" height="41" rx="3.5" fill="#F0F7F9"/>
<path d="M45.3105 18.1895C44.8379 18.1895 44.4121 18.2715 44.0332 18.4355C43.6582 18.5957 43.3379 18.8301 43.0723 19.1387C42.8105 19.4434 42.6094 19.8125 42.4688 20.2461C42.3281 20.6797 42.2578 21.168 42.2578 21.7109C42.2578 22.4297 42.3691 23.0547 42.5918 23.5859C42.8184 24.1133 43.1543 24.5215 43.5996 24.8105C44.0488 25.0996 44.6094 25.2441 45.2812 25.2441C45.6641 25.2441 46.0234 25.2129 46.3594 25.1504C46.6992 25.084 47.0293 25.002 47.3496 24.9043V25.7715C47.0371 25.8887 46.709 25.9746 46.3652 26.0293C46.0215 26.0879 45.6133 26.1172 45.1406 26.1172C44.2695 26.1172 43.541 25.9375 42.9551 25.5781C42.373 25.2148 41.9355 24.7031 41.6426 24.043C41.3535 23.3828 41.209 22.6035 41.209 21.7051C41.209 21.0566 41.2988 20.4648 41.4785 19.9297C41.6621 19.3906 41.9277 18.9258 42.2754 18.5352C42.627 18.1445 43.0566 17.8438 43.5645 17.6328C44.0762 17.418 44.6621 17.3105 45.3223 17.3105C45.7559 17.3105 46.1738 17.3535 46.5762 17.4395C46.9785 17.5254 47.3418 17.6484 47.666 17.8086L47.2676 18.6523C46.9941 18.5273 46.6934 18.4199 46.3652 18.3301C46.041 18.2363 45.6895 18.1895 45.3105 18.1895ZM50.0391 26H49.0605V16.8828H50.0391V26ZM53.0684 19.5781V26H52.0957V19.5781H53.0684ZM52.5938 17.1758C52.7539 17.1758 52.8906 17.2285 53.0039 17.334C53.1211 17.4355 53.1797 17.5957 53.1797 17.8145C53.1797 18.0293 53.1211 18.1895 53.0039 18.2949C52.8906 18.4004 52.7539 18.4531 52.5938 18.4531C52.4258 18.4531 52.2852 18.4004 52.1719 18.2949C52.0625 18.1895 52.0078 18.0293 52.0078 17.8145C52.0078 17.5957 52.0625 17.4355 52.1719 17.334C52.2852 17.2285 52.4258 17.1758 52.5938 17.1758ZM57.7031 26.1172C57.125 26.1172 56.6152 25.998 56.1738 25.7598C55.7324 25.5215 55.3887 25.1582 55.1426 24.6699C54.8965 24.1816 54.7734 23.5664 54.7734 22.8242C54.7734 22.0469 54.9023 21.4121 55.1602 20.9199C55.4219 20.4238 55.7812 20.0566 56.2383 19.8184C56.6953 19.5801 57.2148 19.4609 57.7969 19.4609C58.1172 19.4609 58.4258 19.4941 58.7227 19.5605C59.0234 19.623 59.2695 19.7031 59.4609 19.8008L59.168 20.6152C58.9727 20.5371 58.7461 20.4668 58.4883 20.4043C58.2344 20.3418 57.9961 20.3105 57.7734 20.3105C57.3281 20.3105 56.957 20.4062 56.6602 20.5977C56.3672 20.7891 56.1465 21.0703 55.998 21.4414C55.8535 21.8125 55.7812 22.2695 55.7812 22.8125C55.7812 23.332 55.8516 23.7754 55.9922 24.1426C56.1367 24.5098 56.3496 24.791 56.6309 24.9863C56.916 25.1777 57.2715 25.2734 57.6973 25.2734C58.0371 25.2734 58.3438 25.2383 58.6172 25.168C58.8906 25.0938 59.1387 25.0078 59.3613 24.9102V25.7773C59.1465 25.8867 58.9062 25.9707 58.6406 26.0293C58.3789 26.0879 58.0664 26.1172 57.7031 26.1172ZM61.8516 16.8828V21.6172C61.8516 21.7734 61.8457 21.9648 61.834 22.1914C61.8223 22.4141 61.8125 22.6113 61.8047 22.7832H61.8457C61.9277 22.6816 62.0469 22.5312 62.2031 22.332C62.3633 22.1328 62.498 21.9727 62.6074 21.8516L64.7402 19.5781H65.8828L63.2988 22.3203L66.0703 26H64.8984L62.6309 22.959L61.8516 23.6738V26H60.8848V16.8828H61.8516ZM72.3809 25.3203C72.541 25.3203 72.7051 25.3066 72.873 25.2793C73.041 25.252 73.1777 25.2188 73.2832 25.1797V25.9355C73.1699 25.9863 73.0117 26.0293 72.8086 26.0645C72.6094 26.0996 72.4141 26.1172 72.2227 26.1172C71.8828 26.1172 71.5742 26.0586 71.2969 25.9414C71.0195 25.8203 70.7969 25.6172 70.6289 25.332C70.4648 25.0469 70.3828 24.6523 70.3828 24.1484V20.3398H69.4688V19.8652L70.3887 19.4844L70.7754 18.0898H71.3613V19.5781H73.2422V20.3398H71.3613V24.1191C71.3613 24.5215 71.4531 24.8223 71.6367 25.0215C71.8242 25.2207 72.0723 25.3203 72.3809 25.3203ZM80.1211 22.7773C80.1211 23.3047 80.0527 23.7754 79.916 24.1895C79.7793 24.6035 79.582 24.9531 79.3242 25.2383C79.0664 25.5234 78.7539 25.7422 78.3867 25.8945C78.0234 26.043 77.6113 26.1172 77.1504 26.1172C76.7207 26.1172 76.3262 26.043 75.9668 25.8945C75.6113 25.7422 75.3027 25.5234 75.041 25.2383C74.7832 24.9531 74.582 24.6035 74.4375 24.1895C74.2969 23.7754 74.2266 23.3047 74.2266 22.7773C74.2266 22.0742 74.3457 21.4766 74.584 20.9844C74.8223 20.4883 75.1621 20.1113 75.6035 19.8535C76.0488 19.5918 76.5781 19.4609 77.1914 19.4609C77.7773 19.4609 78.2891 19.5918 78.7266 19.8535C79.168 20.1152 79.5098 20.4941 79.752 20.9902C79.998 21.4824 80.1211 22.0781 80.1211 22.7773ZM75.2344 22.7773C75.2344 23.293 75.3027 23.7402 75.4395 24.1191C75.5762 24.498 75.7871 24.791 76.0723 24.998C76.3574 25.2051 76.7246 25.3086 77.1738 25.3086C77.6191 25.3086 77.9844 25.2051 78.2695 24.998C78.5586 24.791 78.7715 24.498 78.9082 24.1191C79.0449 23.7402 79.1133 23.293 79.1133 22.7773C79.1133 22.2656 79.0449 21.8242 78.9082 21.4531C78.7715 21.0781 78.5605 20.7891 78.2754 20.5859C77.9902 20.3828 77.6211 20.2812 77.168 20.2812C76.5 20.2812 76.0098 20.502 75.6973 20.9434C75.3887 21.3848 75.2344 21.9961 75.2344 22.7773ZM89.0742 24.2422C89.0742 24.6523 88.9707 24.998 88.7637 25.2793C88.5605 25.5566 88.2676 25.7656 87.8848 25.9062C87.5059 26.0469 87.0527 26.1172 86.5254 26.1172C86.0762 26.1172 85.6875 26.082 85.3594 26.0117C85.0312 25.9414 84.7441 25.8418 84.498 25.7129V24.8164C84.7598 24.9453 85.0723 25.0625 85.4355 25.168C85.7988 25.2734 86.1699 25.3262 86.5488 25.3262C87.1035 25.3262 87.5059 25.2363 87.7559 25.0566C88.0059 24.877 88.1309 24.6328 88.1309 24.3242C88.1309 24.1484 88.0801 23.9941 87.9785 23.8613C87.8809 23.7246 87.7148 23.5938 87.4805 23.4688C87.2461 23.3398 86.9219 23.1992 86.5078 23.0469C86.0977 22.8906 85.7422 22.7363 85.4414 22.584C85.1445 22.4277 84.9141 22.2383 84.75 22.0156C84.5898 21.793 84.5098 21.5039 84.5098 21.1484C84.5098 20.6055 84.7285 20.1895 85.166 19.9004C85.6074 19.6074 86.1855 19.4609 86.9004 19.4609C87.2871 19.4609 87.6484 19.5 87.9844 19.5781C88.3242 19.6523 88.6406 19.7539 88.9336 19.8828L88.6055 20.6621C88.3398 20.5488 88.0566 20.4531 87.7559 20.375C87.4551 20.2969 87.1484 20.2578 86.8359 20.2578C86.3867 20.2578 86.041 20.332 85.7988 20.4805C85.5605 20.6289 85.4414 20.832 85.4414 21.0898C85.4414 21.2891 85.4961 21.4531 85.6055 21.582C85.7188 21.7109 85.8984 21.832 86.1445 21.9453C86.3906 22.0586 86.7148 22.1914 87.1172 22.3438C87.5195 22.4922 87.8672 22.6465 88.1602 22.8066C88.4531 22.9629 88.6777 23.1543 88.834 23.3809C88.9941 23.6035 89.0742 23.8906 89.0742 24.2422ZM91.6113 19.5781V26H90.6387V19.5781H91.6113ZM91.1367 17.1758C91.2969 17.1758 91.4336 17.2285 91.5469 17.334C91.6641 17.4355 91.7227 17.5957 91.7227 17.8145C91.7227 18.0293 91.6641 18.1895 91.5469 18.2949C91.4336 18.4004 91.2969 18.4531 91.1367 18.4531C90.9688 18.4531 90.8281 18.4004 90.7148 18.2949C90.6055 18.1895 90.5508 18.0293 90.5508 17.8145C90.5508 17.5957 90.6055 17.4355 90.7148 17.334C90.8281 17.2285 90.9688 17.1758 91.1367 17.1758ZM95.4668 28.8828C94.623 28.8828 93.9727 28.7246 93.5156 28.4082C93.0586 28.0957 92.8301 27.6562 92.8301 27.0898C92.8301 26.6875 92.957 26.3438 93.2109 26.0586C93.4688 25.7734 93.8242 25.584 94.2773 25.4902C94.1094 25.4121 93.9648 25.2949 93.8438 25.1387C93.7266 24.9824 93.668 24.8027 93.668 24.5996C93.668 24.3652 93.7324 24.1602 93.8613 23.9844C93.9941 23.8047 94.1953 23.6328 94.4648 23.4688C94.1289 23.332 93.8555 23.1016 93.6445 22.7773C93.4375 22.4492 93.334 22.0684 93.334 21.6348C93.334 21.1738 93.4297 20.7812 93.6211 20.457C93.8125 20.1289 94.0898 19.8789 94.4531 19.707C94.8164 19.5352 95.2559 19.4492 95.7715 19.4492C95.8848 19.4492 95.998 19.4551 96.1113 19.4668C96.2285 19.4746 96.3398 19.4883 96.4453 19.5078C96.5508 19.5234 96.6426 19.543 96.7207 19.5664H98.9238V20.1934L97.7402 20.3398C97.8574 20.4922 97.9551 20.6758 98.0332 20.8906C98.1113 21.1055 98.1504 21.3438 98.1504 21.6055C98.1504 22.2461 97.9336 22.7559 97.5 23.1348C97.0664 23.5098 96.4707 23.6973 95.7129 23.6973C95.5332 23.6973 95.3496 23.6816 95.1621 23.6504C94.9707 23.7559 94.8242 23.873 94.7227 24.002C94.625 24.1309 94.5762 24.2793 94.5762 24.4473C94.5762 24.5723 94.6133 24.6719 94.6875 24.7461C94.7656 24.8203 94.877 24.875 95.0215 24.9102C95.166 24.9414 95.3398 24.957 95.543 24.957H96.6738C97.373 24.957 97.9082 25.1035 98.2793 25.3965C98.6543 25.6895 98.8418 26.1172 98.8418 26.6797C98.8418 27.3906 98.5527 27.9355 97.9746 28.3145C97.3965 28.6934 96.5605 28.8828 95.4668 28.8828ZM95.4961 28.1211C96.0273 28.1211 96.4668 28.0664 96.8145 27.957C97.166 27.8516 97.4277 27.6973 97.5996 27.4941C97.7754 27.2949 97.8633 27.0566 97.8633 26.7793C97.8633 26.5215 97.8047 26.3262 97.6875 26.1934C97.5703 26.0645 97.3984 25.9785 97.1719 25.9355C96.9453 25.8887 96.668 25.8652 96.3398 25.8652H95.2266C94.9375 25.8652 94.6855 25.9102 94.4707 26C94.2559 26.0898 94.0898 26.2227 93.9727 26.3984C93.8594 26.5742 93.8027 26.793 93.8027 27.0547C93.8027 27.4023 93.9492 27.666 94.2422 27.8457C94.5352 28.0293 94.9531 28.1211 95.4961 28.1211ZM95.748 22.9883C96.2129 22.9883 96.5625 22.8711 96.7969 22.6367C97.0312 22.4023 97.1484 22.0605 97.1484 21.6113C97.1484 21.1309 97.0293 20.7715 96.791 20.5332C96.5527 20.291 96.2012 20.1699 95.7363 20.1699C95.291 20.1699 94.9473 20.2949 94.7051 20.5449C94.4668 20.791 94.3477 21.1523 94.3477 21.6289C94.3477 22.0664 94.4688 22.4023 94.7109 22.6367C94.9531 22.8711 95.2988 22.9883 95.748 22.9883ZM103.23 19.4609C103.992 19.4609 104.568 19.6484 104.959 20.0234C105.35 20.3945 105.545 20.9922 105.545 21.8164V26H104.584V21.8809C104.584 21.3457 104.461 20.9453 104.215 20.6797C103.973 20.4141 103.6 20.2812 103.096 20.2812C102.385 20.2812 101.885 20.4824 101.596 20.8848C101.307 21.2871 101.162 21.8711 101.162 22.6367V26H100.189V19.5781H100.975L101.121 20.5039H101.174C101.311 20.2773 101.484 20.0879 101.695 19.9355C101.906 19.7793 102.143 19.6621 102.404 19.584C102.666 19.502 102.941 19.4609 103.23 19.4609Z" fill="#31BD59"/>
<rect x="0.5" y="0.5" width="147" height="41" rx="3.5" stroke="#DDF4E4"/>
</svg>
