<svg width="24" height="24" viewBox="0 0 24 24" fill="none" xmlns="http://www.w3.org/2000/svg">
<path d="M19.6 6V3.5C19.6 2.06427 18.4357 0.9 17 0.9H16.9797H16.9593H16.9388H16.9182H16.8975H16.8768H16.856H16.8351H16.8141H16.793H16.7719H16.7507H16.7294H16.708H16.6865H16.665H16.6434H16.6217H16.5999H16.5781H16.5562H16.5342H16.5121H16.49H16.4677H16.4454H16.4231H16.4006H16.3781H16.3555H16.3329H16.3101H16.2873H16.2644H16.2415H16.2185H16.1954H16.1722H16.149H16.1257H16.1023H16.0789H16.0554H16.0318H16.0081H15.9844H15.9606H15.9368H15.9129H15.8889H15.8648H15.8407H15.8165H15.7923H15.7679H15.7436H15.7191H15.6946H15.67H15.6454H15.6207H15.5959H15.5711H15.5462H15.5213H15.4963H15.4712H15.446H15.4208H15.3956H15.3703H15.3449H15.3195H15.294H15.2684H15.2428H15.2171H15.1914H15.1656H15.1398H15.1139H15.0879H15.0619H15.0359H15.0097H14.9836H14.9573H14.931H14.9047H14.8783H14.8519H14.8254H14.7988H14.7722H14.7455H14.7188H14.6921H14.6652H14.6384H14.6115H14.5845H14.5575H14.5304H14.5033H14.4761H14.4489H14.4217H14.3943H14.367H14.3396H14.3121H14.2846H14.2571H14.2295H14.2019H14.1742H14.1464H14.1187H14.0908H14.063H14.0351H14.0071H13.9791H13.9511H13.923H13.8949H13.8667H13.8385H13.8103H13.782H13.7537H13.7253H13.6969H13.6684H13.64H13.6114H13.5829H13.5543H13.5256H13.4969H13.4682H13.4395H13.4107H13.3819H13.353H13.3241H13.2952H13.2662H13.2372H13.2081H13.1791H13.15H13.1208H13.0917H13.0624H13.0332H13.0039H12.9746H12.9453H12.9159H12.8865H12.8571H12.8276H12.7982H12.7686H12.7391H12.7095H12.6799H12.6503H12.6206H12.5909H12.5612H12.5315H12.5017H12.4719H12.4421H12.4122H12.3823H12.3524H12.3225H12.2926H12.2626H12.2326H12.2026H12.1725H12.1425H12.1124H12.0822H12.0521H12.022H11.9918H11.9616H11.9314H11.9011H11.8709H11.8406H11.8103H11.78H11.7496H11.7193H11.6889H11.6585H11.6281H11.5977H11.5672H11.5368H11.5063H11.4758H11.4453H11.4148H11.3843H11.3537H11.3231H11.2926H11.262H11.2314H11.2007H11.1701H11.1395H11.1088H11.0781H11.0475H11.0168H10.9861H10.9554H10.9247H10.8939H10.8632H10.8324H10.8017H10.7709H10.7401H10.7094H10.6786H10.6478H10.617H10.5862H10.5553H10.5245H10.4937H10.4629H10.432H10.4012H10.3703H10.3395H10.3086H10.2778H10.2469H10.2161H10.1852H10.1543H10.1235H10.0926H10.0617H10.0309H10H9.96913H9.93826H9.90739H9.87652H9.84566H9.81479H9.78393H9.75307H9.72221H9.69135H9.6605H9.62965H9.59881H9.56797H9.53713H9.5063H9.47547H9.44465H9.41384H9.38303H9.35223H9.32143H9.29064H9.25986H9.22909H9.19832H9.16757H9.13682H9.10608H9.07535H9.04463H9.01392H8.98322H8.95253H8.92185H8.89119H8.86053H8.82989H8.79926H8.76864H8.73803H8.70744H8.67686H8.6463H8.61575H8.58521H8.55469H8.52419H8.49369H8.46322H8.43276H8.40232H8.37189H8.34149H8.3111H8.28072H8.25037H8.22003H8.18971H8.15942H8.12914H8.09888H8.06864H8.03842H8.00822H7.97804H7.94789H7.91775H7.88764H7.85755H7.82748H7.79744H7.76741H7.73742H7.70744H7.67749H7.64757H7.61767H7.58779H7.55794H7.52812H7.49832H7.46855H7.4388H7.40908H7.3794H7.34973H7.3201H7.29049H7.26092H7.23137H7.20185H7.17236H7.1429H7.11347H7.08407H7.05471H7.02537H6.99607H6.9668H6.93756H6.90835H6.87918H6.85003H6.82093H6.79185H6.76281H6.73381H6.70484H6.67591H6.64701H6.61814H6.58932H6.56053H6.53177H6.50306H6.47438H6.44573H6.41713H6.38857H6.36004H6.33155H6.30311H6.2747H6.24633H6.218H6.18971H6.16147H6.13326H6.1051H6.07698H6.0489H6.02087H5.99287H5.96492H5.93702H5.90915H5.88134H5.85356H5.82583H5.79815H5.77051H5.74292H5.71537H5.68787H5.66042H5.63302H5.60566H5.57835H5.55108H5.52387H5.49671H5.46959H5.44252H5.41551H5.38854H5.36162H5.33476H5.30794H5.28118H5.25447H5.22781H5.2012H5.17465H5.14814H5.12169H5.0953H5.06896H5.04267H5.01644H4.99026H4.96414H4.93807H4.91206H4.88611H4.86021H4.83437H4.80858H4.78286H4.75719H4.73158H4.70602H4.68053H4.6551H4.62972H4.60441H4.57915H4.55396H4.52882H4.50375H4.47874H4.45379H4.4289H4.40407H4.37931H4.35461H4.32997H4.3054H4.28089H4.25644H4.23206H4.20774H4.18349H4.15931H4.13519H4.11114H4.08715H4.06323H4.03938H4.01559H3.99187H3.96823H3.94464H3.92113H3.89769H3.87432H3.85101H3.82778H3.80462H3.78152H3.7585H3.73555H3.71267H3.68987H3.66713H3.64447H3.62188H3.59937H3.57692H3.55456H3.53226H3.51004H3.4879H3.46583H3.44384H3.42192H3.40008H3.37831H3.35663H3.33502H3.31348H3.29203H3.27065H3.24935H3.22813H3.20699H3.18593H3.16495H3.14404H3.12322H3.10248H3.08182H3.06124H3.04075H3.02033H3C1.56427 0.9 0.4 2.06427 0.4 3.5V21.5C0.4 22.9357 1.56427 24.1 3 24.1H17C18.4357 24.1 19.6 22.9357 19.6 21.5V18.3285C19.6 17.9973 19.3312 17.7285 19 17.7285C18.6688 17.7285 18.4 17.9973 18.4 18.3285V21.5C18.4 22.2733 17.7733 22.9 17 22.9H3C2.22673 22.9 1.6 22.2733 1.6 21.5V21.4754V21.4507V21.4259V21.401V21.3759V21.3507V21.3254V21.2999V21.2744V21.2487V21.2229V21.197V21.171V21.1448V21.1186V21.0922V21.0657V21.039V21.0123V20.9855V20.9585V20.9314V20.9042V20.8769V20.8495V20.8219V20.7943V20.7665V20.7387V20.7107V20.6826V20.6544V20.6261V20.5977V20.5691V20.5405V20.5118V20.4829V20.454V20.4249V20.3957V20.3665V20.3371V20.3076V20.278V20.2484V20.2186V20.1887V20.1587V20.1286V20.0984V20.0681V20.0377V20.0072V19.9767V19.946V19.9152V19.8843V19.8533V19.8223V19.7911V19.7598V19.7285V19.697V19.6655V19.6338V19.6021V19.5703V19.5384V19.5064V19.4743V19.4421V19.4098V19.3775V19.345V19.3125V19.2798V19.2471V19.2143V19.1814V19.1485V19.1154V19.0822V19.049V19.0157V18.9823V18.9488V18.9153V18.8816V18.8479V18.8141V18.7802V18.7462V18.7122V18.6781V18.6439V18.6096V18.5752V18.5408V18.5063V18.4717V18.437V18.4023V18.3675V18.3326V18.2976V18.2626V18.2275V18.1923V18.1571V18.1218V18.0864V18.0509V18.0154V17.9798V17.9441V17.9084V17.8726V17.8367V17.8007V17.7647V17.7287V17.6925V17.6563V17.6201V17.5837V17.5473V17.5109V17.4744V17.4378V17.4012V17.3645V17.3277V17.2909V17.254V17.217V17.18V17.143V17.1059V17.0687V17.0315V16.9942V16.9568V16.9195V16.882V16.8445V16.8069V16.7693V16.7317V16.694V16.6562V16.6184V16.5805V16.5426V16.5046V16.4666V16.4285V16.3904V16.3523V16.314V16.2758V16.2375V16.1991V16.1607V16.1223V16.0838V16.0453V16.0067V15.9681V15.9295V15.8908V15.852V15.8132V15.7744V15.7356V15.6967V15.6577V15.6188V15.5797V15.5407V15.5016V15.4625V15.4233V15.3841V15.3449V15.3056V15.2663V15.227V15.1876V15.1482V15.1088V15.0693V15.0298V14.9903V14.9507V14.9111V14.8715V14.8319V14.7922V14.7525V14.7128V14.673V14.6332V14.5934V14.5536V14.5138V14.4739V14.434V14.394V14.3541V14.3141V14.2741V14.2341V14.1941V14.154V14.1139V14.0738V14.0337V13.9936V13.9534V13.9132V13.8731V13.8329V13.7926V13.7524V13.7121V13.6719V13.6316V13.5913V13.551V13.5107V13.4704V13.43V13.3897V13.3493V13.3089V13.2685V13.2281V13.1877V13.1473V13.1069V13.0665V13.026V12.9856V12.9452V12.9047V12.8642V12.8238V12.7833V12.7429V12.7024V12.6619V12.6214V12.581V12.5405V12.5V12.4595V12.419V12.3786V12.3381V12.2976V12.2571V12.2167V12.1762V12.1358V12.0953V12.0548V12.0144V11.974V11.9335V11.8931V11.8527V11.8123V11.7719V11.7315V11.6911V11.6507V11.6103V11.57V11.5296V11.4893V11.449V11.4087V11.3684V11.3281V11.2879V11.2476V11.2074V11.1671V11.1269V11.0868V11.0466V11.0064V10.9663V10.9262V10.8861V10.846V10.8059V10.7659V10.7259V10.6859V10.6459V10.606V10.566V10.5261V10.4862V10.4464V10.4066V10.3668V10.327V10.2872V10.2475V10.2078V10.1681V10.1285V10.0889V10.0493V10.0097V9.97019V9.93069V9.89123V9.8518V9.8124V9.77303V9.73369V9.69439V9.65512V9.61589V9.57669V9.53753V9.49841V9.45932V9.42026V9.38125V9.34227V9.30333V9.26443V9.22557V9.18676V9.14797V9.10924V9.07054V9.03188V8.99327V8.9547V8.91617V8.87769V8.83925V8.80086V8.76251V8.72421V8.68595V8.64774V8.60958V8.57147V8.5334V8.49538V8.45742V8.4195V8.38163V8.34381V8.30604V8.26833V8.23067V8.19306V8.1555V8.118V8.08055V8.04315V8.00581V7.96853V7.9313V7.89413V7.85701V7.81996V7.78296V7.74602V7.70913V7.67231V7.63555V7.59885V7.56221V7.52563V7.48911V7.45265V7.41626V7.37993V7.34367V7.30747V7.27133V7.23526V7.19925V7.16331V7.12744V7.09164V7.0559V7.02023V6.98463V6.9491V6.91364V6.87825V6.84293V6.80768V6.7725V6.73739V6.70236V6.6674V6.63251V6.5977V6.56296V6.5283V6.49371V6.4592V6.42477V6.39041V6.35613V6.32192V6.2878V6.25376V6.21979V6.1859V6.1521V6.11837V6.08473V6.05117V6.01769V5.98429V5.95098V5.91775V5.88461V5.85155V5.81857V5.78568V5.75288V5.72016V5.68754V5.65499V5.62254V5.59018V5.5579V5.52572V5.49362V5.46162V5.4297V5.39788V5.36615V5.33452V5.30297V5.27152V5.24016V5.2089V5.17773V5.14666V5.11569V5.08481V5.05403V5.02334V4.99275V4.96227V4.93188V4.90159V4.8714V4.84131V4.81132V4.78143V4.75164V4.72196V4.69238V4.6629V4.63353V4.60426V4.57509V4.54603V4.51708V4.48823V4.45949V4.43086V4.40233V4.37392V4.34561V4.31741V4.28932V4.26134V4.23347V4.20571V4.17806V4.15053V4.1231V4.09579V4.0686V4.04152V4.01455V3.9877V3.96096V3.93434V3.90784V3.88145V3.85518V3.82903V3.80299V3.77708V3.75128V3.72561V3.70005V3.67462V3.6493V3.62411V3.59904V3.5741V3.54927V3.52457V3.5C1.6 2.72673 2.22673 2.1 3 2.1H17C17.7733 2.1 18.4 2.72673 18.4 3.5V6C18.4 6.33123 18.6688 6.6 19 6.6C19.3312 6.6 19.6 6.33123 19.6 6Z" fill="#A4ABAE" stroke="#A4ABAE" stroke-width="0.2"/>
<path d="M10.4306 19.8104L10.5255 19.842L10.4306 19.8103L10.4306 19.8103L10.4307 19.81L10.4311 19.8089L10.4326 19.8044L10.4385 19.7868L10.4609 19.7196L10.5426 19.4745L10.8064 18.6834L11.3561 17.0344L10.4306 19.8104ZM10.4306 19.8104L10.4306 19.8105C10.3592 20.0258 10.4149 20.2634 10.5758 20.4242C10.7366 20.585 10.9742 20.6408 11.1894 20.5694L11.1896 20.5694L11.158 20.4745M10.4306 19.8104L11.158 20.4745M11.158 20.4745L11.1896 20.5694L11.1897 20.5693L11.19 20.5692L11.1911 20.5689L11.1956 20.5674L11.2131 20.5615L11.2803 20.5391L11.5255 20.4574L12.3166 20.1936L13.9655 19.6439M11.158 20.4745L13.9655 19.6439M13.9655 19.6439C13.9656 19.6439 13.9656 19.6439 13.9656 19.6439L13.9655 19.6439ZM22.6312 7.78279C22.8217 7.97279 23.0272 8.17828 23.2172 8.36879L22.6312 7.78279ZM22.6312 7.78279C22.3315 7.48308 21.9246 7.314 21.5 7.314C21.0755 7.314 20.6686 7.4825 20.3688 7.78279L22.6312 7.78279ZM14.5913 19.2571L23.2171 10.6313C23.5175 10.3315 23.686 9.92451 23.686 9.5C23.686 9.07546 23.5169 8.66858 23.2173 8.36888L14.5913 19.2571ZM20.3687 7.78285L11.7429 16.4087C11.5668 16.5842 11.4345 16.7987 11.3561 17.0344L20.3687 7.78285ZM12.2622 18.1106L12.8893 18.7378L11.9486 19.0514L12.2622 18.1106ZM20.6516 11.5L14 18.1516L12.8484 17L19.5 10.3484L20.6516 11.5ZM21.5 10.6516L20.3484 9.5L21.2172 8.63121C21.292 8.55642 21.3941 8.514 21.5 8.514C21.6059 8.514 21.708 8.55642 21.7828 8.63121L22.3688 9.21721C22.4436 9.292 22.486 9.39409 22.486 9.5C22.486 9.60591 22.4436 9.708 22.3688 9.78279L21.5 10.6516Z" fill="#A4ABAE" stroke="#A4ABAE" stroke-width="0.2"/>
<path d="M5 20.6H4C3.66877 20.6 3.4 20.3312 3.4 20C3.4 19.6688 3.66877 19.4 4 19.4H4.6292L5.4635 17.7319C5.46351 17.7319 5.46352 17.7318 5.46353 17.7318L5.46356 17.7318L5.55299 17.7765C5.63749 17.607 5.8105 17.5 6 17.5C6.1895 17.5 6.36251 17.607 6.44701 17.7765L5 20.6ZM5 20.6C5.22735 20.6 5.43501 20.4716 5.53646 20.2682M5 20.6L5.53646 20.2682M5.53646 20.2682C5.53647 20.2682 5.53649 20.2681 5.5365 20.2681L5.53644 20.2682L5.53646 20.2682ZM6.5365 17.7319C6.53649 17.7319 6.53648 17.7318 6.53647 17.7318L6.4635 20.2681L6.55299 20.2235L6.46356 20.2682L6.46354 20.2682C6.56499 20.4716 6.77265 20.6 7 20.6H9C9.33123 20.6 9.6 20.3312 9.6 20C9.6 19.6688 9.33123 19.4 9 19.4H7.3708L6.5365 17.7319ZM6 19.3415L6.05591 19.2298L6 19.118L5.94409 19.2298L6 19.3415Z" fill="#A4ABAE" stroke="#A4ABAE" stroke-width="0.2"/>
<path d="M5 5.6H15C15.3312 5.6 15.6 5.33123 15.6 5C15.6 4.66877 15.3312 4.4 15 4.4H5C4.66877 4.4 4.4 4.66877 4.4 5C4.4 5.33123 4.66877 5.6 5 5.6Z" fill="#A4ABAE" stroke="#A4ABAE" stroke-width="0.2"/>
<path d="M5 8.6H15C15.3312 8.6 15.6 8.33123 15.6 8C15.6 7.66877 15.3312 7.4 15 7.4H5C4.66877 7.4 4.4 7.66877 4.4 8C4.4 8.33123 4.66877 8.6 5 8.6Z" fill="#A4ABAE" stroke="#A4ABAE" stroke-width="0.2"/>
<path d="M4.77273 11.6H10.2273C10.3563 11.6 10.4511 11.5054 10.5079 11.4014C10.5667 11.2936 10.6 11.1515 10.6 11C10.6 10.8485 10.5667 10.7064 10.5079 10.5986C10.4511 10.4946 10.3563 10.4 10.2273 10.4H4.77273C4.64367 10.4 4.54885 10.4946 4.49212 10.5986C4.43331 10.7064 4.4 10.8485 4.4 11C4.4 11.1515 4.43331 11.2936 4.49212 11.4014C4.54885 11.5054 4.64367 11.6 4.77273 11.6Z" fill="#A4ABAE" stroke="#A4ABAE" stroke-width="0.2"/>
</svg>
