<svg width="20" height="20" viewBox="0 0 18 20" fill="none" xmlns="http://www.w3.org/2000/svg">
<path d="M14.588 12.9426H11.9204V12.4491C11.9204 11.763 11.507 11.172 10.9167 10.9112C11.122 9.69665 11.4543 8.55032 12.5033 6.71049L12.4599 6.68573L12.5033 6.71049C12.8331 6.13206 13.0074 5.47271 13.0074 4.80362C13.0074 2.67167 11.2764 0.934034 9.11612 0.950111C7.19826 0.964391 5.69157 2.36365 5.36999 4.05026C5.17119 5.09289 5.38851 6.13957 5.98255 6.99678C6.77276 8.13723 7.15882 9.54758 7.38888 10.9112C6.79854 11.172 6.38518 11.763 6.38518 12.4491V12.9426H3.71759C2.1915 12.9426 0.95 14.1841 0.95 15.7102V16.8335C0.95 17.1613 1.21572 17.427 1.54352 17.427H2.03705V17.9205C2.03705 18.8472 2.7909 19.6011 3.71759 19.6011H14.5879C15.5146 19.6011 16.2685 18.8472 16.2685 17.9205V17.427H16.762C17.0898 17.427 17.3556 17.1613 17.3556 16.8335V15.7102C17.3556 14.1841 16.1141 12.9426 14.588 12.9426ZM6.95828 6.32076C6.5474 5.72778 6.3972 5.00067 6.53603 4.27262C6.75321 3.13371 7.7993 2.12038 9.18845 2.13571C10.6507 2.15185 11.8204 3.34978 11.8204 4.80362C11.8204 5.26697 11.6999 5.72304 11.4721 6.12255C10.345 8.09939 9.97495 9.35966 9.73703 10.7686H8.56844C8.30558 9.20826 7.87352 7.64164 6.95828 6.32076ZM10.7333 12.4491V12.9426H7.57223V12.4491C7.57223 12.177 7.79365 11.9556 8.06575 11.9556H10.2398C10.5119 11.9556 10.7333 12.177 10.7333 12.4491ZM15.0815 17.9205C15.0815 18.1926 14.8601 18.4141 14.588 18.4141H3.71762C3.44556 18.4141 3.2241 18.1926 3.2241 17.9205V17.427H15.0815V17.9205ZM16.1686 16.24H16.1621H16.1555H16.1485H16.1413H16.1338H16.1261H16.1182H16.11H16.1015H16.0928H16.0838H16.0746H16.0652H16.0555H16.0455H16.0353H16.0249H16.0142H16.0033H15.9922H15.9808H15.9692H15.9573H15.9453H15.9329H15.9204H15.9076H15.8946H15.8813H15.8678H15.8541H15.8402H15.8261H15.8117H15.7971H15.7822H15.7672H15.7519H15.7365H15.7207H15.7048H15.6887H15.6723H15.6558H15.639H15.622H15.6048H15.5874H15.5698H15.5519H15.5339H15.5157H15.4972H15.4786H15.4597H15.4406H15.4214H15.4019H15.3823H15.3624H15.3424H15.3221H15.3017H15.2811H15.2602H15.2392H15.218H15.1966H15.175H15.1533H15.1313H15.1091H15.0868H15.0643H15.0416H15.0187H14.9957H14.9724H14.949H14.9254H14.9017H14.8777H14.8536H14.8293H14.8049H14.7802H14.7554H14.7304H14.7053H14.68H14.6545H14.6289H14.6031H14.5771H14.551H14.5247H14.4983H14.4717H14.4449H14.418H14.3909H14.3637H14.3363H14.3087H14.2811H14.2532H14.2252H14.1971H14.1688H14.1404H14.1118H14.0831H14.0542H14.0252H13.9961H13.9668H13.9374H13.9078H13.8781H13.8483H13.8183H13.7882H13.7579H13.7276H13.6971H13.6664H13.6357H13.6048H13.5737H13.5426H13.5113H13.4799H13.4484H13.4168H13.385H13.3532H13.3212H13.289H13.2568H13.2245H13.192H13.1594H13.1267H13.0939H13.061H13.028H12.9949H12.9616H12.9283H12.8949H12.8613H12.8277H12.7939H12.76H12.7261H12.692H12.6579H12.6236H12.5893H12.5548H12.5203H12.4856H12.4509H12.4161H12.3812H12.3462H12.3111H12.2759H12.2407H12.2053H12.1699H12.1344H12.0988H12.0632H12.0274H11.9916H11.9557H11.9197H11.8836H11.8475H11.8113H11.775H11.7387H11.7022H11.6657H11.6292H11.5926H11.5559H11.5191H11.4823H11.4454H11.4084H11.3714H11.3344H11.2972H11.26H11.2228H11.1855H11.1481H11.1107H11.0733H11.0357H10.9982H10.9606H10.9229H10.8852H10.8474H10.8096H10.7718H10.7339H10.6959H10.6579H10.6199H10.5819H10.5437H10.5056H10.4674H10.4292H10.391H10.3527H10.3144H10.276H10.2377H10.1993H10.1608H10.1224H10.0839H10.0454H10.0068H9.96827H9.92969H9.89109H9.85246H9.81382H9.77516H9.73648H9.69778H9.65907H9.62035H9.58161H9.54286H9.5041H9.46533H9.42655H9.38776H9.34896H9.31016H9.27136H9.23255H9.19373H9.15492H9.1161H9.07729H9.03847H8.99966H8.96085H8.92205H8.88325H8.84445H8.80567H8.76689H8.72812H8.68937H8.65062H8.61189H8.57317H8.53446H8.49577H8.4571H8.41844H8.3798H8.34119H8.30259H8.26401H8.22546H8.18693H8.14843H8.10995H8.0715H8.03307H7.99468H7.95632H7.91798H7.87968H7.84141H7.80317H7.76498H7.72681H7.68868H7.6506H7.61255H7.57454H7.53657H7.49864H7.46076H7.42292H7.38513H7.34738H7.30968H7.27203H7.23443H7.19688H7.15937H7.12193H7.08453H7.04719H7.00991H6.97268H6.93551H6.8984H6.86135H6.82436H6.78743H6.75056H6.71376H6.67702H6.64035H6.60374H6.5672H6.53073H6.49433H6.458H6.42175H6.38556H6.34946H6.31342H6.27746H6.24158H6.20578H6.17005H6.13441H6.09885H6.06337H6.02797H5.99265H5.95743H5.92229H5.88723H5.85226H5.81739H5.7826H5.74791H5.7133H5.67879H5.64438H5.61006H5.57584H5.54171H5.50769H5.47376H5.43993H5.40621H5.37259H5.33907H5.30566H5.27235H5.23915H5.20605H5.17307H5.1402H5.10743H5.07478H5.04224H5.00982H4.97751H4.94531H4.91324H4.88128H4.84944H4.81772H4.78612H4.75465H4.72329H4.69206H4.66096H4.62998H4.59913H4.56841H4.53782H4.50736H4.47703H4.44683H4.41677H4.38684H4.35704H4.32738H4.29786H4.26848H4.23924H4.21014H4.18118H4.15236H4.12368H4.09516H4.06677H4.03854H4.01045H3.98251H3.95472H3.92708H3.89959H3.87226H3.84508H3.81805H3.79118H3.76447H3.73791H3.71152H3.68528H3.65921H3.6333H3.60755H3.58196H3.55654H3.53129H3.50621H3.48129H3.45654H3.43196H3.40756H3.38332H3.35926H3.33537H3.31166H3.28813H3.26477H3.24159H3.2186H3.19578H3.17314H3.15069H3.12842H3.10633H3.08443H3.06272H3.04119H3.01986H2.99871H2.97776H2.95699H2.93642H2.91604H2.89586H2.87588H2.85609H2.8365H2.8171H2.79791H2.77892H2.76013H2.74155H2.72317H2.70499H2.68702H2.66926H2.6517H2.63436H2.61722H2.6003H2.58359H2.56709H2.55081H2.53474H2.51889H2.50326H2.48784H2.47264H2.45767H2.44292H2.42839H2.41408H2.4H2.38614H2.37251H2.35911H2.34593H2.33299H2.32028H2.3078H2.29555H2.28353H2.27175H2.26021H2.24891H2.23784H2.22701H2.21642H2.20607H2.19596H2.1861H2.17648H2.16711H2.15798H2.1491H2.14047H2.13709V15.7102C2.13709 14.8387 2.84616 14.1297 3.71762 14.1297H3.71929H3.72116H3.72323H3.72551H3.728H3.73069H3.73358H3.73668H3.73998H3.74348H3.74718H3.75107H3.75517H3.75947H3.76396H3.76865H3.77353H3.77861H3.78389H3.78935H3.79501H3.80086H3.80691H3.81314H3.81956H3.82617H3.83297H3.83996H3.84713H3.85449H3.86203H3.86976H3.87767H3.88576H3.89404H3.90249H3.91113H3.91995H3.92894H3.93811H3.94746H3.95699H3.96669H3.97657H3.98662H3.99685H4.00724H4.01781H4.02855H4.03946H4.05054H4.06179H4.07321H4.08479H4.09654H4.10846H4.12054H4.13278H4.14519H4.15776H4.17049H4.18339H4.19644H4.20966H4.22303H4.23656H4.25025H4.26409H4.27809H4.29225H4.30656H4.32102H4.33563H4.3504H4.36532H4.38039H4.3956H4.41097H4.42649H4.44215H4.45796H4.47391H4.49001H4.50625H4.52264H4.53917H4.55584H4.57265H4.58961H4.6067H4.62393H4.6413H4.65881H4.67645H4.69423H4.71214H4.73019H4.74837H4.76669H4.78513H4.80371H4.82242H4.84125H4.86022H4.87931H4.89853H4.91788H4.93736H4.95695H4.97668H4.99652H5.01649H5.03658H5.05679H5.07713H5.09758H5.11815H5.13884H5.15964H5.18057H5.2016H5.22276H5.24403H5.26541H5.2869H5.30851H5.33022H5.35205H5.37399H5.39603H5.41819H5.44045H5.46281H5.48529H5.50787H5.53055H5.55334H5.57622H5.59922H5.62231H5.6455H5.66879H5.69218H5.71567H5.73926H5.76294H5.78672H5.81059H5.83456H5.85862H5.88278H5.90702H5.93136H5.95579H5.9803H6.00491H6.0296H6.05439H6.07926H6.10421H6.12925H6.15437H6.17958H6.20487H6.23024H6.25569H6.28123H6.30684H6.33253H6.3583H6.38415H6.41007H6.43607H6.46215H6.48829H6.51452H6.54081H6.56718H6.59362H6.62013H6.64671H6.67335H6.70007H6.72685H6.7537H6.78062H6.8076H6.83464H6.86175H6.88892H6.91615H6.94345H6.9708H6.99822H7.02569H7.05322H7.08081H7.10846H7.13616H7.16392H7.19173H7.21959H7.24751H7.27548H7.3035H7.33157H7.35969H7.38786H7.41608H7.44434H7.47265H7.50101H7.52941H7.55786H7.58635H7.61489H7.64346H7.67208H7.70074H7.72943H7.75817H7.78694H7.81575H7.8446H7.87349H7.9024H7.93136H7.96034H7.98936H8.01842H8.0475H8.07661H8.10576H8.13493H8.16413H8.19336H8.22261H8.25189H8.2812H8.31053H8.33988H8.36926H8.39866H8.42808H8.45752H8.48698H8.51646H8.54595H8.57547H8.605H8.63455H8.66411H8.69369H8.72328H8.75288H8.7825H8.81212H8.84176H8.87141H8.90106H8.93073H8.9604H8.99008H9.01976H9.04945H9.07914H9.10884H9.13854H9.16824H9.19795H9.22765H9.25735H9.28706H9.31676H9.34646H9.37615H9.40584H9.43553H9.46521H9.49489H9.52455H9.55421H9.58386H9.61351H9.64314H9.67276H9.70236H9.73196H9.76154H9.79111H9.82067H9.8502H9.87973H9.90923H9.93872H9.96819H9.99763H10.0271H10.0565H10.0859H10.1152H10.1446H10.1739H10.2032H10.2324H10.2617H10.2909H10.3201H10.3492H10.3784H10.4074H10.4365H10.4655H10.4945H10.5235H10.5525H10.5813H10.6102H10.639H10.6678H10.6966H10.7253H10.754H10.7826H10.8112H10.8397H10.8683H10.8967H10.9251H10.9535H10.9819H11.0101H11.0384H11.0666H11.0947H11.1228H11.1508H11.1788H11.2068H11.2347H11.2625H11.2903H11.318H11.3457H11.3733H11.4008H11.4283H11.4558H11.4832H11.5105H11.5377H11.5649H11.5921H11.6191H11.6461H11.6731H11.7H11.7268H11.7535H11.7802H11.8068H11.8333H11.8598H11.8862H11.9125H11.9388H11.965H11.9911H12.0171H12.0431H12.0689H12.0947H12.1205H12.1461H12.1717H12.1972H12.2226H12.2479H12.2731H12.2983H12.3234H12.3484H12.3733H12.3981H12.4228H12.4475H12.472H12.4965H12.5209H12.5452H12.5693H12.5934H12.6175H12.6414H12.6652H12.6889H12.7125H12.7361H12.7595H12.7828H12.8061H12.8292H12.8522H12.8752H12.898H12.9207H12.9433H12.9659H12.9883H13.0106H13.0328H13.0549H13.0769H13.0987H13.1205H13.1421H13.1637H13.1851H13.2064H13.2276H13.2487H13.2697H13.2906H13.3113H13.3319H13.3524H13.3728H13.3931H13.4132H13.4332H13.4531H13.4729H13.4925H13.5121H13.5315H13.5508H13.5699H13.5889H13.6078H13.6266H13.6452H13.6637H13.6821H13.7003H13.7184H13.7364H13.7542H13.7719H13.7895H13.8069H13.8242H13.8414H13.8584H13.8752H13.892H13.9086H13.925H13.9413H13.9575H13.9735H13.9894H14.0051H14.0207H14.0361H14.0514H14.0665H14.0815H14.0963H14.111H14.1255H14.1399H14.1541H14.1682H14.1821H14.1959H14.2095H14.2229H14.2362H14.2493H14.2623H14.2751H14.2877H14.3002H14.3125H14.3246H14.3366H14.3485H14.3601H14.3716H14.3829H14.3941H14.405H14.4159H14.4265H14.437H14.4473H14.4574H14.4673H14.4771H14.4867H14.4961H14.5054H14.5145H14.5234H14.5321H14.5406H14.549H14.5571H14.5651H14.5729H14.5805H14.588C15.4594 14.1297 16.1686 14.8388 16.1686 15.7102V16.24Z" fill="#333C4E" stroke="#333C4E" stroke-width="0.1"/>
</svg>
