<svg width="20" height="20" viewBox="0 0 20 20" fill="none" xmlns="http://www.w3.org/2000/svg">
<path d="M5.30496 18.5C5.1187 18.5 4.93375 18.4394 4.7759 18.3203C4.48186 18.0979 4.34451 17.7157 4.42453 17.3469L5.51819 12.3198L1.8092 8.92564C1.53657 8.67728 1.43242 8.28398 1.54435 7.9241C1.65629 7.56489 1.96083 7.31058 2.3214 7.2758L7.22884 6.81089L9.16907 2.07291C9.31213 1.72481 9.63794 1.5 9.99994 1.5C10.3619 1.5 10.6878 1.72481 10.8308 2.0721L12.771 6.81089L17.6777 7.2758C18.0391 7.30977 18.3436 7.56489 18.4555 7.9241C18.5675 8.2833 18.464 8.67728 18.1913 8.92564L14.4823 12.3191L15.576 17.3461C15.6562 17.7157 15.5187 18.0979 15.2248 18.3196C14.9315 18.5413 14.5405 18.5583 14.2316 18.3647L9.99994 15.7259L5.76826 18.3661C5.62519 18.4548 5.46579 18.5 5.30496 18.5ZM9.99994 14.5891C10.1608 14.5891 10.32 14.6342 10.4632 14.7228L14.4569 17.2153L13.4247 12.4706C13.3511 12.1329 13.4609 11.7803 13.711 11.5519L17.2131 8.34691L12.5797 7.90786C12.2461 7.87605 11.9592 7.6572 11.8289 7.33643L9.99994 2.86521L8.1688 7.33711C8.03987 7.65571 7.75297 7.87456 7.42015 7.90637L2.78613 8.34542L6.28811 11.5504C6.53895 11.7795 6.64868 12.1314 6.57436 12.4699L5.54296 17.2145L9.53664 14.7228C9.67971 14.6342 9.83911 14.5891 9.99994 14.5891ZM7.19136 6.90252L7.19058 6.90401L7.19136 6.90252ZM12.8071 6.90036L12.8079 6.90184L12.8071 6.90036Z" fill="#333C4E" stroke="#333C4E" stroke-width="0.2"/>
</svg>
