<svg width="28" height="28" viewBox="0 0 28 28" fill="none" xmlns="http://www.w3.org/2000/svg">
<path d="M14 0C6.28009 0 0 6.28009 0 14C0 21.7199 6.28009 28 14 28C21.7199 28 28 21.7199 28 14C28 6.28009 21.7199 0 14 0Z" fill="#31BD59"/>
<path d="M21.0958 11.0332L13.5124 18.6164C13.2849 18.8439 12.9863 18.9584 12.6876 18.9584C12.389 18.9584 12.0903 18.8439 11.8628 18.6164L8.07123 14.8248C7.61493 14.3687 7.61493 13.6313 8.07123 13.1752C8.52731 12.7189 9.26453 12.7189 9.72083 13.1752L12.6876 16.142L19.4462 9.38361C19.9023 8.92731 20.6395 8.92731 21.0958 9.38361C21.5519 9.83969 21.5519 10.5769 21.0958 11.0332Z" fill="#FAFAFA"/>
</svg>
