<svg width="20" height="20" viewBox="0 0 20 20" fill="none" xmlns="http://www.w3.org/2000/svg">
<path d="M15.4375 17H4.56246C4.34575 17 4.14772 16.8837 4.05475 16.7003C3.96164 16.5177 3.98938 16.3013 4.12589 16.1438L9.46377 9.99994L4.1252 3.85607C3.98869 3.69855 3.96164 3.48155 4.05475 3.29954C4.14772 3.11625 4.34575 3 4.56246 3H15.4375C15.748 3 16 3.2352 16 3.525V5.27495C16 5.56475 15.748 5.79995 15.4375 5.79995C15.127 5.79995 14.875 5.56475 14.875 5.27495V4.05H5.74295L10.6248 9.66886C10.792 9.86138 10.792 10.1379 10.6248 10.3304L5.74295 15.95H14.875V14.7249C14.875 14.4351 15.127 14.1999 15.4375 14.1999C15.748 14.1999 16 14.4351 16 14.7249V16.475C16 16.7648 15.748 17 15.4375 17Z" fill="#333C4E"/>
</svg>
