<svg width="28" height="28" viewBox="0 0 28 28" fill="none" xmlns="http://www.w3.org/2000/svg">
<path d="M3.90002 11.2852L3.9 11.2852V11.2871C3.9 14.4812 5.92733 17.2093 8.76158 18.2537C9.83476 21.1599 12.5984 23.1 15.7125 23.1L15.7142 23.1C23.9608 22.9673 25.982 11.6951 18.2796 8.72445C15.3677 1.08837 4.05905 2.94444 3.90002 11.2852ZM17.7402 11.4986L17.8685 11.3704C17.8296 14.9037 14.9334 17.7957 11.4124 17.8241L11.5357 17.7008L12.3046 16.9322L14.638 14.5997L16.9713 12.2672L17.7402 11.4986ZM11.2287 4.74575L4.77294 11.1989C4.79941 7.67721 7.69231 4.78932 11.2287 4.74575ZM8.19575 17.0307L17.0664 8.16328C17.4123 8.79592 17.6539 9.49148 17.7747 10.2286L10.2646 17.7359C9.52632 17.616 8.82952 17.3755 8.19575 17.0307ZM4.86201 12.3454L12.3721 4.83835C13.1104 4.95824 13.8071 5.19881 14.4409 5.54356L5.57022 14.4107C5.22438 13.7781 4.98274 13.0825 4.86201 12.3454ZM6.05297 15.1637L15.1953 6.02501C15.7247 6.4151 16.1925 6.88199 16.5836 7.41033L7.4414 16.5493C6.91194 16.1591 6.44409 15.6921 6.05297 15.1637ZM15.7119 22.2202C13.1872 22.2199 10.9238 20.7788 9.83642 18.5607C14.3052 19.5328 18.8022 15.9315 18.7366 11.2862C18.7366 10.7802 18.684 10.2866 18.5867 9.80912C24.744 12.872 22.667 22.131 15.7119 22.2202Z" fill="#333C4E" stroke="#333C4E" stroke-width="0.2"/>
</svg>
