<svg width="28" height="28" viewBox="0 0 28 28" fill="none" xmlns="http://www.w3.org/2000/svg">
<path d="M16.1875 18.8438C16.5326 18.8438 16.8125 18.5639 16.8125 18.2188V11.9688C16.8125 11.6236 16.5326 11.3438 16.1875 11.3438C15.8424 11.3438 15.5625 11.6236 15.5625 11.9688V18.2188C15.5625 18.5639 15.8424 18.8438 16.1875 18.8438Z" fill="#333C4E"/>
<path d="M11.8125 18.8438C12.1576 18.8438 12.4375 18.5639 12.4375 18.2188V11.9688C12.4375 11.6236 12.1576 11.3438 11.8125 11.3438C11.4674 11.3438 11.1875 11.6236 11.1875 11.9688V18.2188C11.1875 18.5639 11.4674 18.8438 11.8125 18.8438Z" fill="#333C4E"/>
<path d="M16.5 6.65625C16.8451 6.65625 17.125 6.37638 17.125 6.03125C17.125 5.68612 16.8451 5.40625 16.5 5.40625H11.5C11.1549 5.40625 10.875 5.68612 10.875 6.03125C10.875 6.37638 11.1549 6.65625 11.5 6.65625H16.5Z" fill="#333C4E"/>
<path d="M7.125 7.28125C6.77987 7.28125 6.5 7.56112 6.5 7.90625C6.5 8.25138 6.77987 8.53125 7.125 8.53125H7.75V20.0312C7.75 21.4437 8.9 22.5938 10.3125 22.5938H17.6875C19.0999 22.5938 20.25 21.4437 20.25 20.0312V8.53125H20.875C21.2201 8.53125 21.5 8.25138 21.5 7.90625C21.5 7.56112 21.2201 7.28125 20.875 7.28125H19.625H8.375H7.125ZM19 8.53125V20.0312C19 20.7562 18.4125 21.3438 17.6875 21.3438H10.3125C9.5875 21.3438 9 20.7562 9 20.0312V8.53125H19Z" fill="#333C4E"/>
</svg>
