<svg width="28" height="28" viewBox="0 0 28 28" fill="none" xmlns="http://www.w3.org/2000/svg">
<path fill-rule="evenodd" clip-rule="evenodd" d="M6.45962 5.19038C6.20578 4.93654 5.79422 4.93654 5.54038 5.19038C5.28654 5.44422 5.28654 5.85578 5.54038 6.10962L8.15934 8.72858C5.23685 9.19238 3 11.653 3 14.6083C3 17.8931 5.76328 20.5667 9.15998 20.5667H11.14C11.5043 20.5667 11.8 20.2807 11.8 19.9283C11.8 19.5759 11.5043 19.2899 11.14 19.2899H9.15998C6.49096 19.2899 4.32001 17.1891 4.32001 14.6083C4.32001 12.0276 6.49096 9.92678 9.15998 9.92678C9.15998 9.92678 9.2358 9.93015 9.36397 9.93321L13.1887 13.7579H10.7826C10.3727 13.7579 10.04 14.1392 10.04 14.6091C10.04 15.079 10.3727 15.4603 10.7826 15.4603H14.8911L18.7206 19.2899H16.8597C16.4954 19.2899 16.1997 19.5759 16.1997 19.9283C16.1997 20.2807 16.4954 20.5667 16.8597 20.5667H18.8397C19.2039 20.5667 19.5608 20.5359 19.9078 20.477L22.5404 23.1096C22.7942 23.3635 23.2058 23.3635 23.4596 23.1096C23.7135 22.8558 23.7135 22.4442 23.4596 22.1904L21.7865 20.5172L21.7835 20.5201L20.1834 18.9142L6.45962 5.19038ZM17.3909 15.3524L15.6947 13.65L18.4347 13.65C18.8446 13.65 19.1772 14.0313 19.1772 14.5012C19.1772 14.9711 18.8446 15.3524 18.4347 15.3524H17.3909ZM20.8793 18.8536L21.8355 19.8133C23.7217 18.7934 24.9997 16.8422 24.9997 14.6083C24.9997 11.3236 22.2364 8.65 18.8397 8.65H16.8597C16.4954 8.65 16.1997 8.936 16.1997 9.28839C16.1997 9.64078 16.4954 9.92678 16.8597 9.92678H18.8397C21.5087 9.92678 23.6797 12.0276 23.6797 14.6083C23.6797 16.4849 22.5318 18.1077 20.8793 18.8536Z" fill="#333C4E"/>
</svg>
