<svg class="fill" width="25" height="24" viewBox="0 0 25 24" fill="none" xmlns="http://www.w3.org/2000/svg">
    <g clip-path="url(#clip0_837_16108)">
        <path d="M20.9844 12.569H18.6351C18.3154 12.569 18.0058 12.6127 17.7112 12.693C17.13 11.5506 15.9435 10.7656 14.5763 10.7656H10.4237C9.05647 10.7656 7.86997 11.5506 7.28881 12.693C6.9942 12.6127 6.68464 12.569 6.36491 12.569H4.01562C2.07711 12.569 0.5 14.1461 0.5 16.0846V19.8402C0.5 21.0033 1.44627 21.9495 2.60938 21.9495H22.3906C23.5537 21.9495 24.5 21.0033 24.5 19.8402V16.0846C24.5 14.1461 22.9229 12.569 20.9844 12.569ZM6.90805 14.2813V20.5433H2.60938C2.22167 20.5433 1.90625 20.2279 1.90625 19.8402V16.0847C1.90625 14.9216 2.85252 13.9753 4.01562 13.9753H6.36491C6.55578 13.9753 6.74061 14.0012 6.91658 14.049C6.91152 14.1259 6.90805 14.2033 6.90805 14.2813ZM16.6857 20.5433H8.3143V14.2813C8.3143 13.1182 9.26056 12.1719 10.4237 12.1719H14.5763C15.7394 12.1719 16.6857 13.1182 16.6857 14.2813V20.5433ZM23.0938 19.8402C23.0938 20.2279 22.7783 20.5433 22.3906 20.5433H18.092V14.2813C18.092 14.2032 18.0885 14.1258 18.0834 14.0489C18.2594 14.0012 18.4442 13.9753 18.6351 13.9753H20.9844C22.1475 13.9753 23.0938 14.9215 23.0938 16.0846V19.8402Z" fill="#A4ABAE"/>
        <path d="M5.19044 5.92969C3.46783 5.92969 2.06641 7.33111 2.06641 9.05372C2.06636 10.7763 3.46783 12.1777 5.19044 12.1777C6.913 12.1777 8.31447 10.7763 8.31447 9.05372C8.31447 7.33111 6.91305 5.92969 5.19044 5.92969ZM5.19039 10.7715C4.24319 10.7715 3.47261 10.0009 3.47261 9.05372C3.47261 8.10652 4.24319 7.33594 5.19039 7.33594C6.13759 7.33594 6.90817 8.10652 6.90817 9.05372C6.90817 10.0009 6.13759 10.7715 5.19039 10.7715Z" fill="#A4ABAE"/>
        <path d="M12.4998 2.04883C10.1985 2.04883 8.32617 3.92111 8.32617 6.22248C8.32617 8.52386 10.1985 10.3961 12.4998 10.3961C14.8012 10.3961 16.6735 8.52386 16.6735 6.22248C16.6735 3.92116 14.8012 2.04883 12.4998 2.04883ZM12.4998 8.98989C10.9739 8.98989 9.73242 7.74845 9.73242 6.22248C9.73242 4.69656 10.9739 3.45508 12.4998 3.45508C14.0258 3.45508 15.2672 4.69652 15.2672 6.22248C15.2672 7.74845 14.0258 8.98989 12.4998 8.98989Z" fill="#A4ABAE"/>
        <path d="M19.8096 5.92969C18.087 5.92969 16.6855 7.33111 16.6855 9.05372C16.6856 10.7763 18.087 12.1777 19.8096 12.1777C21.5322 12.1777 22.9336 10.7763 22.9336 9.05372C22.9336 7.33111 21.5322 5.92969 19.8096 5.92969ZM19.8096 10.7715C18.8624 10.7715 18.0918 10.0009 18.0918 9.05372C18.0918 8.10652 18.8624 7.33594 19.8096 7.33594C20.7568 7.33594 21.5274 8.10652 21.5274 9.05372C21.5274 10.0009 20.7568 10.7715 19.8096 10.7715Z" fill="#A4ABAE"/>
    </g>
    <defs>
    <clipPath id="clip0_837_16108">
    <rect width="24" height="24" fill="white" transform="translate(0.5)"/>
    </clipPath>
    </defs>
</svg>