<svg width="26" height="25" viewBox="0 0 26 25" fill="none" xmlns="http://www.w3.org/2000/svg">
    <path d="M13.4724 18.3175C16.1168 16.802 21.4224 13.6517 23.581 12.3679C23.6563 12.323 23.8091 12.2051 23.8092 12C23.8092 11.7935 23.6571 11.6768 23.5825 11.6329L13.4724 18.3175ZM13.4724 18.3175C13.175 18.4874 12.824 18.4869 12.5288 18.3181C9.88343 16.8021 4.5781 13.652 2.41929 12.3686C2.34351 12.3228 2.19089 12.205 2.19089 12C2.19089 11.7935 2.34306 11.6768 2.41765 11.6328L4.21773 10.5735C6.71334 12.0527 9.98283 13.9828 11.8871 15.0744C12.227 15.2695 12.6127 15.3727 13 15.3727C13.3873 15.3727 13.7731 15.2695 14.1141 15.0739C16.0175 13.9826 19.2867 12.0528 21.7822 10.5735L23.5824 11.6328L13.4724 18.3175ZM24.2403 10.5214L24.24 10.5212L23.0494 9.82077C23.5053 9.55005 23.9122 9.30816 24.2415 9.11225L24.2416 9.11218C24.7775 8.79241 25.1 8.24067 25.1 7.63545C25.1 7.03021 24.7775 6.47851 24.2417 6.1582L24.2415 6.15808C22.5713 5.16478 16.9061 1.79818 14.113 0.196949C13.4356 -0.192014 12.612 -0.206767 11.8828 0.199537L11.8827 0.199514L11.8808 0.200666L11.9314 0.286892C11.8808 0.200666 11.8808 0.200683 11.8807 0.200717L11.8804 0.20087L11.8794 0.201479L11.8753 0.203905L11.8589 0.213508L11.7949 0.251125L11.5495 0.395247L10.6548 0.920981C9.90335 1.36252 8.87515 1.96683 7.76798 2.6179C5.55371 3.92 3.02337 5.40925 1.75971 6.15752L1.75964 6.15756C1.22247 6.47626 0.9 7.02815 0.9 7.63545C0.9 8.24069 1.22253 8.79239 1.75833 9.1127L1.75853 9.11282C2.08773 9.30858 2.49459 9.55039 2.95031 9.82098L1.76001 10.5212L1.75969 10.5214C1.22247 10.8401 0.9 11.392 0.9 11.9993C0.9 12.6046 1.22253 13.1563 1.75833 13.4766L1.75853 13.4767C2.08773 13.6725 2.49459 13.9143 2.95031 14.1849L1.76001 14.8851L1.75969 14.8853C1.22247 15.204 0.9 15.7559 0.9 16.3632C0.9 16.9684 1.22253 17.5201 1.75833 17.8405L1.75853 17.8406C3.91987 19.1258 9.23351 22.2804 11.8871 23.8017C12.227 23.9968 12.6127 24.1 13 24.1C13.3873 24.1 13.7731 23.9968 14.1141 23.8012C16.7665 22.2803 22.0802 19.1258 24.2415 17.84L24.2416 17.8399C24.7776 17.5202 25.1001 16.9684 25.1001 16.3632C25.1001 15.7559 24.7776 15.204 24.2404 14.8853L24.24 14.8851L23.0495 14.1846C23.5053 13.9139 23.9123 13.672 24.2415 13.4761L24.2416 13.4761C24.7775 13.1563 25.1 12.6045 25.1 11.9993C25.1 11.392 24.7775 10.8401 24.2403 10.5214ZM2.41765 7.26917L2.41778 7.26909C3.67951 6.52185 6.20609 5.03485 8.41725 3.73464C9.5228 3.08455 10.5494 2.48119 11.2996 2.04038L12.1929 1.51556L12.4377 1.37173L12.5016 1.33421L12.5179 1.32464L12.522 1.32221L12.5226 1.32188C12.8391 1.14407 13.1804 1.1517 13.4712 1.31824C16.2551 2.91412 21.9131 6.27569 23.5808 7.26781C23.6566 7.31355 23.8091 7.43135 23.8091 7.63632C23.8091 7.84147 23.6563 7.95929 23.581 8.00421C21.4224 9.28808 16.1167 12.4384 13.4723 13.9539C13.1749 14.1238 12.8239 14.1232 12.5287 13.9543C9.88333 12.4384 4.57808 9.2884 2.41929 8.00493C2.34351 7.95923 2.19089 7.84142 2.19089 7.63637C2.19089 7.42985 2.34306 7.31318 2.41765 7.26917ZM12.4321 1.25904C12.4517 1.24754 12.4643 1.2401 12.4697 1.23695L12.5157 1.3255C12.471 1.31083 12.4459 1.28575 12.4321 1.25904ZM23.5824 15.9964C23.6569 16.0404 23.8091 16.1571 23.8091 16.3636C23.8091 16.5689 23.6561 16.6867 23.5809 16.7316C21.4222 18.0155 16.1168 21.1656 13.4724 22.6811C13.175 22.8511 12.824 22.8505 12.5288 22.6817C9.88343 21.1657 4.5781 18.0157 2.41929 16.7322C2.34351 16.6865 2.19089 16.5687 2.19089 16.3636C2.19089 16.1571 2.34306 16.0404 2.41765 15.9964L4.21773 14.9372C6.71334 16.4163 9.98283 18.3464 11.8871 19.4381C12.227 19.6331 12.6127 19.7363 13 19.7363C13.3874 19.7363 13.7731 19.6331 14.1141 19.4375C16.0175 18.3462 19.2867 16.4164 21.7822 14.9371L23.5824 15.9964Z" fill="#A4ABAE" stroke="#A4ABAE" stroke-width="0.2"/>
</svg>
