<svg width="28" height="28" viewBox="0 0 28 28" fill="none" xmlns="http://www.w3.org/2000/svg">
<path d="M9.14404 20.0665L11.6095 19.2391C12.0534 19.0901 12.531 19.3481 12.6485 19.8013C12.7209 20.0807 12.8017 20.3754 12.8918 20.6872C13.1923 21.7257 12.6181 22.8161 11.593 23.1601L11.5374 23.1788C10.5347 23.5153 9.4422 23.0216 9.03262 22.0464C8.91585 21.7683 8.78898 21.465 8.65501 21.1429C8.47503 20.7102 8.69979 20.2156 9.14404 20.0665Z" stroke="#333C4E" stroke-width="1.2" stroke-miterlimit="10" stroke-linecap="round" stroke-linejoin="round"/>
<path d="M11.4077 11.6243C11.7272 13.3181 11.5919 14.2816 11.6444 15.6284C11.6584 15.9881 11.4354 16.3145 11.0941 16.429L7.77484 17.543C7.36694 17.6798 6.92344 17.473 6.76573 17.0726C6.26828 15.8102 5.80251 14.5777 5.47906 13.6139C4.37117 10.3127 5.29448 8.14328 7.1253 7.52885C8.95616 6.91443 10.8487 8.66029 11.4077 11.6243Z" stroke="#333C4E" stroke-width="1.2" stroke-miterlimit="10" stroke-linecap="round" stroke-linejoin="round"/>
<path d="M19.4672 17.6598L17.0017 16.8323C16.5578 16.6834 16.0802 16.9413 15.9627 17.3946C15.8903 17.674 15.8095 17.9686 15.7194 18.2804C15.4189 19.3189 15.9931 20.4094 17.0182 20.7534L17.0738 20.772C18.0765 21.1085 19.169 20.6149 19.5786 19.6397C19.6954 19.3616 19.8222 19.0583 19.9562 18.7362C20.1362 18.3035 19.9114 17.8089 19.4672 17.6598Z" stroke="#333C4E" stroke-width="1.2" stroke-miterlimit="10" stroke-linecap="round" stroke-linejoin="round"/>
<path d="M17.2031 9.21807C16.8836 10.9119 17.0189 11.8754 16.9664 13.2222C16.9524 13.5819 17.1754 13.9083 17.5167 14.0228L20.836 15.1367C21.2439 15.2736 21.6874 15.0667 21.8451 14.6664C22.3426 13.4039 22.8083 12.1715 23.1318 11.2077C24.2397 7.90645 23.3164 5.73705 21.4855 5.12259C19.6547 4.50821 17.7622 6.2541 17.2031 9.21807Z" stroke="#333C4E" stroke-width="1.2" stroke-miterlimit="10" stroke-linecap="round" stroke-linejoin="round"/>
</svg>
