<svg width="28" height="28" viewBox="0 0 28 28" fill="none" xmlns="http://www.w3.org/2000/svg">
<path d="M27.4182 20.9973L17.5272 2.81499C15.938 0.13962 12.0641 0.136066 10.4728 2.81499L0.582251 20.9973C-1.0423 23.731 0.92454 27.1929 4.10861 27.1929H23.891C27.0724 27.1929 29.0428 23.7338 27.4182 20.9973ZM14 23.9116C13.0956 23.9116 12.3594 23.1754 12.3594 22.271C12.3594 21.3666 13.0956 20.6304 14 20.6304C14.9044 20.6304 15.6406 21.3666 15.6406 22.271C15.6406 23.1754 14.9044 23.9116 14 23.9116ZM15.6406 17.3491C15.6406 18.2535 14.9044 18.9897 14 18.9897C13.0956 18.9897 12.3594 18.2535 12.3594 17.3491V9.146C12.3594 8.24157 13.0956 7.50537 14 7.50537C14.9044 7.50537 15.6406 8.24157 15.6406 9.146V17.3491Z" fill="#CAA210"/>
</svg>
