<svg xmlns="http://www.w3.org/2000/svg" width="28" height="28" viewBox="0 0 28 28" fill="none">
  <path d="M21.109 20.2237L18.1523 17.267C19.0723 16.1512 19.6257 14.722 19.6257 13.1654C19.6257 9.60453 16.7282 6.70703 13.1673 6.70703C9.60648 6.70703 6.70898 9.60453 6.70898 13.1654C6.70898 16.7262 9.60648 19.6237 13.1673 19.6237C14.7232 19.6237 16.1523 19.0704 17.269 18.1504L20.2256 21.107C20.3473 21.2287 20.5073 21.2904 20.6673 21.2904C20.8273 21.2904 20.9873 21.2295 21.109 21.107C21.3532 20.8629 21.3532 20.4679 21.109 20.2237ZM7.95898 13.1654C7.95898 10.2937 10.2957 7.95703 13.1673 7.95703C16.039 7.95703 18.3757 10.2937 18.3757 13.1654C18.3757 16.037 16.039 18.3737 13.1673 18.3737C10.2957 18.3737 7.95898 16.037 7.95898 13.1654Z" fill="#333C4E"/>
  <path d="M13.2256 10.543V15.798" stroke="#333C4E" stroke-linecap="round" stroke-linejoin="round"/>
  <path d="M10.5977 13.1719H15.8527" stroke="#333C4E" stroke-linecap="round" stroke-linejoin="round"/>
</svg>