<svg width="28" height="28" viewBox="0 0 28 28" fill="none" xmlns="http://www.w3.org/2000/svg">
<path d="M19.35 7V13.0056C19.1585 12.9022 18.7421 12.6936 18.2173 12.5296C17.6249 12.3446 16.8228 12.1933 16.0307 12.3825C15.292 12.5589 14.7288 12.7907 14.2704 13.1012C13.8081 13.4144 13.4887 13.7832 13.2104 14.178C12.858 14.6779 12.5752 15.5048 12.4079 16.0524C12.3509 16.239 12.189 16.35 12.0322 16.35H5C4.8067 16.35 4.65 16.1933 4.65 16V7C4.65 6.8067 4.8067 6.65 5 6.65H19C19.1933 6.65 19.35 6.8067 19.35 7Z" stroke="#333C4E" stroke-width="1.3"/>
<path d="M22.9326 22.1247L20.766 19.9582C21.4398 19.11 21.843 18.0371 21.843 16.8714C21.843 14.1303 19.6126 11.9 16.8715 11.9C14.1303 11.9 11.9 14.1303 11.9 16.8714C11.9 19.6125 14.1303 21.8429 16.8715 21.8429C18.0366 21.8429 19.1096 21.4397 19.9583 20.7659L22.1249 22.9324C22.236 23.0436 22.3824 23.1 22.5287 23.1C22.6747 23.1 22.8213 23.0444 22.9327 22.9323C23.1558 22.7091 23.1558 22.3479 22.9326 22.1247ZM13.0429 16.8714C13.0429 14.7606 14.7606 13.0429 16.8715 13.0429C18.9824 13.0429 20.7001 14.7606 20.7001 16.8714C20.7001 18.9823 18.9824 20.7 16.8715 20.7C14.7606 20.7 13.0429 18.9823 13.0429 16.8714Z" fill="#333C4E" stroke="#333C4E" stroke-width="0.2"/>
</svg>
