<svg xmlns="http://www.w3.org/2000/svg" width="20" height="20" viewBox="0 0 20 20" fill="none">
  <path d="M17.109 16.2237L14.1523 13.267C15.0723 12.1512 15.6257 10.722 15.6257 9.16536C15.6257 5.60453 12.7282 2.70703 9.16732 2.70703C5.60648 2.70703 2.70898 5.60453 2.70898 9.16536C2.70898 12.7262 5.60648 15.6237 9.16732 15.6237C10.7232 15.6237 12.1523 15.0704 13.269 14.1504L16.2256 17.107C16.3473 17.2287 16.5073 17.2904 16.6673 17.2904C16.8273 17.2904 16.9873 17.2295 17.109 17.107C17.3532 16.8629 17.3532 16.4679 17.109 16.2237ZM3.95898 9.16536C3.95898 6.2937 6.29565 3.95703 9.16732 3.95703C12.039 3.95703 14.3757 6.2937 14.3757 9.16536C14.3757 12.037 12.039 14.3737 9.16732 14.3737C6.29565 14.3737 3.95898 12.037 3.95898 9.16536Z" fill="#333C4E"/>
  <path d="M7.99805 6.8457L9.19805 5.6457L10.3981 6.8457" stroke="#333C4E" stroke-width="0.8" stroke-linecap="round" stroke-linejoin="round"/>
  <path d="M10.3984 11.5234L9.19843 12.7234L7.99843 11.5234" stroke="#333C4E" stroke-width="0.8" stroke-linecap="round" stroke-linejoin="round"/>
  <path d="M9.19824 5.64648V12.1465" stroke="#333C4E" stroke-width="0.8" stroke-linecap="round" stroke-linejoin="round"/>
  <path d="M11.5371 7.98242L12.7371 9.18243L11.5371 10.3824" stroke="#333C4E" stroke-width="0.8" stroke-linecap="round" stroke-linejoin="round"/>
  <path d="M6.86035 10.3828L5.66035 9.18281L6.86035 7.9828" stroke="#333C4E" stroke-width="0.8" stroke-linecap="round" stroke-linejoin="round"/>
  <path d="M12.7373 9.18359L6.2373 9.18359" stroke="#333C4E" stroke-width="0.8" stroke-linecap="round" stroke-linejoin="round"/>
</svg>